<svg xmlns="http://www.w3.org/2000/svg" aria-hidden="true" style="width:0;height:0;position:absolute;overflow:hidden"><defs><symbol id="icon-logo-footer-mobile" viewBox="0 0 68 32"><path d="M21.217 17.522c.026-1.266.511-2.338 1.311-3.292 1.755-2.097 4.068-3.259 6.598-4.045.294-.092.319-.189.219-.468-.403-1.097-.428-2.301-.069-3.414s1.079-2.068 2.043-2.709c.29-.194.304-.358.196-.645a4.35 4.35 0 0 0-1.731-2.19c-.135-.088-.272-.17-.297-.353a.332.332 0 0 1 .152-.346c.167-.112.329-.051.48.046.923.588 1.614 1.387 1.992 2.426.145.4.259.52.704.377a4.673 4.673 0 0 1 2.961.049c.255.086.329.029.412-.213A4.975 4.975 0 0 1 38.206.141c.157-.105.317-.203.508-.097.284.154.249.469-.091.693a4.554 4.554 0 0 0-1.706 2.06c-.171.396-.128.606.25.868.926.648 1.613 1.591 1.953 2.681s.313 2.264-.075 3.337c-.116.326-.046.42.258.511 2.095.633 4.036 1.576 5.669 3.08 1.018.939 1.864 2.009 2.124 3.443.247 1.353-.128 2.547-.877 3.65a9.03 9.03 0 0 1-1.316 1.498c-.086.083-.188.146-.299.188s-.229.059-.347.052c-1.298-.023-2.443-.499-3.5-1.228a8.957 8.957 0 0 1-1-.781c-.239-.223-.284-.145-.356.123a11.38 11.38 0 0 1-3.652 5.848c-.395.335-.824.626-1.246.924-.23.163-.399.155-.634 0-2.472-1.612-4.101-3.857-4.886-6.733-.11-.407-.204-.306-.43-.112-1.162 1.011-2.449 1.757-4.006 1.94-.538.064-.956-.051-1.348-.463-.954-1.005-1.749-2.079-1.959-3.505-.011-.079-.026-.16-.03-.24.003-.119.008-.241.008-.358zm18.593-6.361c-.018-.066-.055-.065-.101-.03l.071.066c.638.67 1.272 1.349 1.916 2.016 1.462 1.508 2.925 3.013 4.387 4.513.087.088.147.223.319.232a.66.66 0 0 0 .038-.145 4.133 4.133 0 0 0 0-.522c-.151-1.749-1.246-2.893-2.463-3.952a8.8 8.8 0 0 0-1.197-.802c-.939-.571-1.904-1.086-2.971-1.375zm-11.254 0c-.102.02-.203.046-.302.077-1.588.598-3.071 1.401-4.346 2.536-.877.775-1.584 1.683-1.871 2.861-.11.446-.19.893-.026 1.483.072-.12.152-.235.239-.344 1.152-1.212 2.316-2.406 3.474-3.599.956-.989 1.922-1.969 2.877-2.961.015-.032.101-.039.036-.097-.007-.011-.05.025-.077.045h-.004zm1.519-1.591c2.746-2.119 5.488-2.119 8.225 0 .791-1.578.205-3.906-1.301-5.134-.809-.649-1.81-.999-2.84-.993s-2.027.368-2.829 1.027c-1.476 1.244-2.049 3.585-1.251 5.097l-.004.003zm4.083 10.136h4.234c.142 0 .329.092.416-.119a.48.48 0 0 0-.109-.548 11.809 11.809 0 0 1-1.679-2.43.33.33 0 0 0-.335-.216c-1.661.006-3.323.006-4.986 0-.071-.007-.143.008-.205.045s-.111.092-.14.158c-.468.9-1.046 1.736-1.72 2.489-.138.156-.123.311-.07.485.064.211.236.135.365.135l4.233-.002-.004.003zm.023.727h-4.072c-.243 0-.329.032-.238.309a11.197 11.197 0 0 0 1.442 2.846.428.428 0 0 0 .398.197c1.634-.007 3.268-.007 4.901 0a.561.561 0 0 0 .515-.286 11.622 11.622 0 0 0 1.368-2.717c.096-.276.081-.363-.238-.359-1.357.016-2.714.007-4.071.007l-.004.003zm-5.245-5.1-.141-.086c-.281.319-.573.628-.839.96-.115.156-.268.279-.445.355s-.37.104-.56.079c-.251-.026-.401.077-.548.291-.835 1.252-1.689 2.491-2.53 3.738-.081.121-.279.233-.167.402s.287.354.554.309c.285-.048.577-.065.856-.132 1.426-.335 2.542-1.186 3.564-2.199a.348.348 0 0 0 .123-.242c.047-1.161.093-2.321.137-3.48l-.004.003zm10.626 1.886v1.486a.498.498 0 0 0 .167.386 9.37 9.37 0 0 0 2.142 1.634 5.714 5.714 0 0 0 2.179.659.612.612 0 0 0 .605-.294c.137-.202-.084-.31-.17-.436-.816-1.218-1.645-2.423-2.461-3.643-.17-.255-.344-.411-.665-.373-.366.044-.658-.105-.903-.392-.171-.203-.373-.378-.56-.566-.093-.093-.118-.112-.219-.086-.135.023-.118.195-.121.315 0 .453-.024 1.307.01 1.307l-.004.003zm-5.374-1.557c.685 0 1.371-.01 2.055 0 .249.006.298-.093.233-.305-.035-.112-.079-.223-.123-.335-.359-.91-.542-1.845-.377-2.825.029-.172-.008-.252-.177-.271a15.098 15.098 0 0 0-3.195 0c-.144.014-.257.058-.195.253.098.319.034.645.016.968a6.694 6.694 0 0 1-.501 2.175c-.131.319-.048.342.208.34l2.055-.001zm3.471-5.56c-1.725-1.91-5.509-1.713-6.915.01.53.209.987.517 1.283 1.019.08.134.185.126.306.112 1.227-.17 2.472-.17 3.699 0 .11.016.231.05.313-.089.302-.527.769-.839 1.313-1.055l.001.003zm5.613 5.803c0 .022.01-.012 0-.027-.955-.997-1.912-1.993-2.87-2.987-.491-.509-1.012-.992-1.484-1.52-.658-.732-1.097-.781-1.737-.112l-.027.029c-.219.206-.247.376 0 .619 1.277 1.257 2.536 2.535 3.801 3.804.082.083.154.194.287.194.674-.007 1.352-.008 2.029-.008l.001.007zm-18.205.007.052.086c.538-.025 1.076-.069 1.613-.066a1.007 1.007 0 0 0 .858-.38c.235-.283.52-.522.78-.781.972-.976 1.937-1.958 2.917-2.924.175-.173.172-.292.026-.463a2.06 2.06 0 0 0-.839-.579c-.098-.051-.209-.065-.316-.04s-.202.087-.268.175c-.995 1.047-2.007 2.077-3.013 3.113l-1.81 1.861zm6.628-3.423c-.607.478-1.055 1.065-1.595 1.549a1.362 1.362 0 0 0-.462 1.081c-.007.642-.031 1.283-.043 1.925-.005.285 0 .57 0 .893 1.175-1.349 2.351-3.859 2.099-5.449zm4.921-.062c0 2.201.95 3.885 2.141 5.474.034-.132.047-.27.039-.406-.026-.776-.091-1.552-.07-2.327.013-.458-.047-.805-.424-1.109-.576-.463-.997-1.095-1.686-1.632zm6.1 4.314c.824 1.212 1.63 2.4 2.438 3.586.11.157.177.031.237-.047.267-.348.501-.722.698-1.116.101-.203.082-.329-.077-.488-.575-.574-1.135-1.162-1.701-1.743-.082-.086-.161-.186-.293-.187-.416-.004-.831-.004-1.302-.004zm-17.048 0h-1.241a.423.423 0 0 0-.311.146c-.591.613-1.183 1.224-1.777 1.833-.102.105-.154.203-.083.355.202.437.454.849.749 1.228.11.134.168.119.259-.016.79-1.17 1.584-2.335 2.405-3.546zm6.423 7.784a9.903 9.903 0 0 0 1.914 1.674c.082.056.156.147.28.065a9.646 9.646 0 0 0 1.996-1.734l-4.189-.004zm-25.96-7.662a5.731 5.731 0 0 1 3.445.748c.046-1.228.359-2.358 1.086-3.401.405.494.631 1.042.812 1.614.199.578.29 1.189.268 1.801 1.097-.612 2.214-.883 3.46-.763a4.89 4.89 0 0 1-.968 1.516 4.746 4.746 0 0 1-1.385 1.126c1.051.657 1.833 1.501 2.339 2.605-.616.276-2.091-.02-3.422-.68-.035 1.228-.356 2.353-1.055 3.357-.554-.446-1.01-1.81-1.132-3.359a5.77 5.77 0 0 1-3.379.757c.103-.727 1.136-1.927 2.277-2.66a5.989 5.989 0 0 1-2.345-2.661zm.591 4.938c.034.026.049.046.067.048.042.007.085.01.128.008a5.906 5.906 0 0 0 1.915-.429 2.467 2.467 0 0 0 1.039-.758c.147-.2.262-.423.341-.66.077-.223.021-.31-.2-.361a1.952 1.952 0 0 0-.604-.05 2.366 2.366 0 0 0-1.132.446 5.697 5.697 0 0 0-1.476 1.59c-.03.052-.056.107-.078.164zm7.943.085c-.068-.143-.089-.203-.123-.256a5.85 5.85 0 0 0-1.382-1.509 2.403 2.403 0 0 0-1.239-.521 2.661 2.661 0 0 0-.665.075.182.182 0 0 0-.136.086.183.183 0 0 0-.013.161c.05.199.123.392.219.573.235.375.581.664.987.827.44.175.891.319 1.351.431.33.064.664.108.999.133zm-3.948 2.278c.126-.294.254-.558.353-.83.23-.643.396-1.299.319-1.993-.046-.422-.159-.818-.456-1.135-.219-.223-.311-.223-.53.006a1.8 1.8 0 0 0-.446 1.106c-.092.998.207 1.903.653 2.771.008.019.028.019.109.076h-.001zm3.911-7.002c-.319.035-.599.049-.877.098-.651.112-1.286.286-1.838.686-.294.213-.559.459-.704.8-.219.507-.151.644.405.696.457.045.877-.112 1.261-.346.719-.439 1.261-1.059 1.706-1.772a.764.764 0 0 0 .048-.163h-.001zm-7.878 0-.037.087c.06.114.129.223.205.326.336.386.666.781 1.025 1.139.294.296.659.509 1.058.617.248.078.508.111.768.097.499-.046.574-.167.384-.633a1.398 1.398 0 0 0-.342-.511 4.75 4.75 0 0 0-.838-.608c-.439-.243-.93-.349-1.426-.429-.263-.037-.529-.052-.796-.08l-.001-.006zm3.932-2.261c-.027.011-.055.014-.063.029-.473.906-.782 1.854-.649 2.902.034.364.182.707.422.979.228.247.329.249.548 0 .271-.317.426-.72.439-1.139.079-.973-.219-1.859-.645-2.71a.271.271 0 0 0-.052-.055l-.001-.006zm.196 4.63c-.098-.075-.152-.146-.201-.143s-.11.075-.136.13c-.009.019.068.112.11.112s.115-.041.227-.098z"/><path d="M5.922 11.135a5.844 5.844 0 0 1 2.193 1.228c.616.537 1.054 1.184 1.228 2a4.299 4.299 0 0 1-.189 2.329.334.334 0 0 1-.053.076c-.774-.073-1.505-.397-2.085-.924s-.979-1.23-1.138-2.004a6.132 6.132 0 0 1-.014-2.513c.012-.054.029-.106.057-.191zm2.862 5.124c.034-.036.057-.049.061-.068.319-1.196.151-2.286-.71-3.209A5.207 5.207 0 0 0 6.53 11.83c-.092-.043-.191-.071-.309-.112-.11.955-.067 1.848.287 2.698.429 1.022 1.248 1.573 2.269 1.843h.005zm6.648-5.125c.169.661.217 1.347.142 2.026a5.86 5.86 0 0 1-.146.842c-.291 1.179-1.008 1.993-2.099 2.462-.336.144-.693.233-1.056.353a1.846 1.846 0 0 1-.11-.223 4.417 4.417 0 0 1-.208-1.913 3.4 3.4 0 0 1 .933-1.981 5.72 5.72 0 0 1 2.544-1.565zm-.32.551c-.928.421-1.711.933-2.255 1.748-.58.869-.615 1.82-.348 2.799.039.009.063.022.08.017 1.23-.335 2.084-1.068 2.413-2.353a5.714 5.714 0 0 0 .11-2.211zm-7.558 7.837c-.694.814-1.492 1.377-2.53 1.527a3.575 3.575 0 0 1-1.686-.199 5.792 5.792 0 0 1-2.145-1.295c0-.035 0-.064.013-.075a5.348 5.348 0 0 1 2.961-1.492c.801-.119 1.542.077 2.228.501a4.47 4.47 0 0 1 1.158 1.032zm-5.733-.015c.4.375 1.01.704 1.664.932 1.246.433 2.332.146 3.29-.734.056-.054.108-.112.156-.173a.278.278 0 0 0-.021-.057.33.33 0 0 0-.041-.05c-.971-.944-2.084-1.277-3.384-.826a5.277 5.277 0 0 0-1.664.909zm18.358.004a4.562 4.562 0 0 1-1.041.815 5.734 5.734 0 0 1-1.519.64 3.304 3.304 0 0 1-2.589-.368 4.226 4.226 0 0 1-1.235-1.091c.67-.795 1.468-1.366 2.522-1.518.671-.097 1.309.038 1.931.282.596.231 1.152.56 1.645.972.092.083.183.177.285.269zm-.627.02a5.328 5.328 0 0 0-1.692-.935c-1.244-.435-2.332-.147-3.29.733-.061.057-.11.125-.178.2.5.52 1.061.899 1.748 1.038 1.297.261 2.349-.298 3.413-1.036h-.001zM9.111 22.267c.037.094.08.181.11.272.468 1.642.159 3.06-1.164 4.189a6.01 6.01 0 0 1-1.811 1.069c-.099.038-.204.059-.347.099-.047-.29-.11-.558-.133-.823a6.043 6.043 0 0 1 .167-2.092c.379-1.422 1.339-2.232 2.688-2.628.11-.034.231-.056.348-.079.047-.005.094-.008.142-.008zm-2.895 5.05a2.08 2.08 0 0 0 .232-.073 5.066 5.066 0 0 0 1.777-1.297c.798-.924.919-1.992.605-3.144a.42.42 0 0 0-.117-.008c-.915.252-1.665.74-2.107 1.618-.452.902-.491 1.872-.39 2.903zm9.218.6c-.293-.112-.556-.205-.808-.321a5.64 5.64 0 0 1-1.621-1.131c-.953-.946-1.247-2.099-1.002-3.411.049-.265.134-.522.213-.821.268.068.5.112.722.188 1.508.51 2.379 1.562 2.599 3.17.089.62.086 1.25-.008 1.869-.022.138-.056.274-.094.458zm-2.916-5.158c-.329 1.248-.182 2.344.673 3.272a5.265 5.265 0 0 0 1.625 1.18c.091.038.184.07.279.097a.88.88 0 0 0 .045-.143 5.353 5.353 0 0 0-.219-2.311c-.389-1.15-1.237-1.775-2.403-2.095zm-2.239-11.208c-.52.529.287 1.353.808.823s-.287-1.354-.808-.823zm.023-2.054c-.521.529.287 1.353.808.823s-.287-1.353-.808-.823zm-2.019 0c-.52.529.287 1.353.808.823s-.287-1.353-.808-.823zm1.996-2.055c-.52.53.287 1.354.808.823s-.287-1.353-.808-.823zm2.042 2.055c-.521.529.287 1.353.808.823s-.287-1.353-.808-.823zm4.995 5.723c-.712-.189-1.001.938-.287 1.126s1.001-.938.287-1.126zm1.753-1.02c-.713-.189-1.002.937-.288 1.126s1.001-.936.288-1.126zm-1.022-1.771c-.712-.189-1.001.936-.288 1.126s1.002-.938.288-1.126zm2.752.712c-.713-.189-1.002.936-.288 1.126s1.001-.937.288-1.126zm2.607-2.919c-.713-.189-1.002.937-.288 1.127s1.001-.937.288-1.127zm-2.759-.994c-.713-.189-1.002.937-.288 1.126s1.001-.936.288-1.126zm3.734-1.403c-.712-.19-1.001.936-.288 1.126s1.001-.938.288-1.126zm2.378.819c-.712-.19-1.001.936-.287 1.126s1.001-.937.287-1.126zm-6.669 7.328c-.712-.189-1.001.938-.288 1.126s1.002-.938.288-1.126zm-2.324 7.28c-.201-.72-1.301-.404-1.097.317s1.299.405 1.097-.317zm1.755 1.024c-.201-.721-1.302-.405-1.097.317s1.295.407 1.097-.317zm.987-1.794c-.201-.721-1.302-.405-1.097.317s1.293.405 1.097-.317zm3.303.492c-.201-.721-1.301-.405-1.097.317s1.303.405 1.097-.317zm2.408 1.032c-.201-.721-1.302-.405-1.097.317s1.297.405 1.097-.317zm2.081-1.898c-.201-.72-1.301-.404-1.097.317s1.297.405 1.097-.317zm-7.008 3.149c-.201-.72-1.302-.404-1.097.317s1.3.405 1.097-.317zm-2.758.812c-.201-.721-1.302-.405-1.097.317s1.297.4 1.097-.317zm-7.497 1.65c.52-.53-.291-1.353-.81-.821s.291 1.353.81.821zm-.019 2.054c.52-.531-.29-1.353-.81-.821s.291 1.353.81.821zm2.02-.004c.52-.531-.291-1.353-.81-.821s.291 1.353.81.821zm-1.992 2.059c.52-.531-.29-1.353-.81-.821s.293 1.353.81.821zm-2.045-2.05c.519-.53-.291-1.353-.81-.821s.29 1.353.81.821zm-5.085-5.834c.71.2 1.016-.921.305-1.116s-1.014.916-.305 1.116zm-1.768.994c.71.2 1.016-.922.305-1.122s-1.014.922-.305 1.122zm.996 1.786c.71.2 1.016-.922.305-1.116s-1.016.916-.305 1.116zm-2.74-.754c.71.2 1.016-.921.305-1.122s-1.016.922-.305 1.122zm.75-2.821c.71.2 1.016-.922.305-1.116s-1.02.916-.305 1.116zm2.387-7.144c.2.721 1.301.407 1.097-.315s-1.295-.407-1.097.315zm58.722.858a5.734 5.734 0 0 0-3.446.748c-.045-1.228-.359-2.358-1.086-3.401-.405.494-.631 1.042-.812 1.614a5.028 5.028 0 0 0-.268 1.801c-1.097-.612-2.214-.883-3.46-.763a4.89 4.89 0 0 0 .968 1.516c.388.461.858.843 1.385 1.126-1.051.657-1.833 1.501-2.339 2.605.616.276 2.091-.02 3.423-.68.035 1.228.355 2.353 1.054 3.357.548-.446 1.01-1.81 1.133-3.359a5.767 5.767 0 0 0 3.378.757c-.103-.727-1.136-1.927-2.277-2.66a5.997 5.997 0 0 0 2.346-2.661zm-.591 4.938c-.035.026-.05.046-.068.048a.608.608 0 0 1-.128.008 5.906 5.906 0 0 1-1.915-.429 2.471 2.471 0 0 1-1.043-.752 2.391 2.391 0 0 1-.341-.66c-.077-.223-.021-.31.2-.361a1.95 1.95 0 0 1 .604-.05 2.37 2.37 0 0 1 1.132.446 5.736 5.736 0 0 1 1.484 1.585c.029.053.054.108.076.164zm-7.944.085c.036-.087.077-.173.122-.256a5.84 5.84 0 0 1 1.38-1.509 2.411 2.411 0 0 1 1.239-.521c.224-.003.447.022.665.075a.182.182 0 0 1 .136.086.183.183 0 0 1 .013.161 2.502 2.502 0 0 1-.219.573 2.07 2.07 0 0 1-.982.827c-.441.176-.894.32-1.355.431-.33.064-.662.108-.997.133zm3.948 2.278c-.126-.294-.254-.558-.352-.83-.231-.643-.397-1.299-.32-1.993.047-.422.159-.818.457-1.135.219-.223.31-.223.529.006a1.8 1.8 0 0 1 .447 1.104c.092.998-.207 1.903-.651 2.771-.011.021-.035.021-.112.078h.002zm-3.91-7.002c.319.035.599.049.877.098.651.112 1.288.286 1.838.686.294.213.559.459.704.8.219.507.151.644-.404.696-.458.045-.877-.112-1.262-.346-.718-.439-1.261-1.059-1.706-1.772a.766.766 0 0 1-.049-.163h.002zm7.877 0 .037.087c-.06.114-.128.223-.205.326-.336.386-.666.781-1.025 1.139a2.363 2.363 0 0 1-1.058.617 2.19 2.19 0 0 1-.762.097c-.499-.046-.572-.167-.384-.633.075-.195.193-.369.343-.511.256-.233.537-.437.837-.608.439-.243.93-.349 1.426-.429.257-.037.524-.052.79-.08l.002-.006zm-3.932-2.261c.027.011.056.014.064.029.472.906.781 1.854.648 2.902a1.72 1.72 0 0 1-.421.979c-.229.247-.329.249-.554 0a1.842 1.842 0 0 1-.439-1.139c-.079-.973.219-1.859.645-2.71.005-.02.032-.037.055-.055l.002-.006zm-.197 4.63c.099-.075.152-.146.201-.143s.11.075.136.13c.009.019-.068.112-.11.112s-.115-.041-.227-.098z"/><path d="M62.475 11.135a5.844 5.844 0 0 0-2.193 1.228c-.616.537-1.054 1.184-1.227 2-.17.796-.073 1.57.188 2.329a.292.292 0 0 0 .054.076c.773-.075 1.502-.399 2.081-.926s.976-1.229 1.135-2.002a6.132 6.132 0 0 0 .014-2.513l-.05-.191zm-2.862 5.124c-.034-.036-.057-.049-.061-.068-.319-1.196-.151-2.286.71-3.209.457-.483 1-.874 1.6-1.152.091-.043.19-.071.308-.112.11.955.068 1.848-.286 2.698-.43 1.022-1.248 1.573-2.27 1.843zm-6.651-5.125a5.62 5.62 0 0 0-.14 2.026c.029.284.078.565.147.842.289 1.179 1.007 1.993 2.099 2.462.334.144.692.233 1.055.353.042-.071.079-.146.11-.223.209-.614.28-1.267.208-1.913a3.4 3.4 0 0 0-.933-1.981 5.73 5.73 0 0 0-2.545-1.565zm.318.551c.928.421 1.711.933 2.256 1.748.58.869.615 1.82.348 2.799-.041.009-.064.022-.081.017-1.23-.335-2.084-1.068-2.418-2.353a4.893 4.893 0 0 1-.11-.549 5.714 5.714 0 0 1 .005-1.662zm7.558 7.837c.694.814 1.492 1.377 2.53 1.527a3.57 3.57 0 0 0 1.685-.199 5.771 5.771 0 0 0 2.145-1.295c0-.035 0-.064-.013-.075a5.328 5.328 0 0 0-2.961-1.492c-.799-.119-1.542.077-2.228.501a4.47 4.47 0 0 0-1.158 1.032zm5.734-.015c-.4.375-1.01.704-1.664.932-1.246.433-2.332.146-3.29-.734a1.99 1.99 0 0 1-.155-.176.656.656 0 0 1 .021-.057.287.287 0 0 1 .041-.051c.971-.944 2.084-1.277 3.385-.826.602.201 1.165.51 1.66.913h.002zm-18.359.004c.306.322.657.596 1.041.815.475.287.988.502 1.523.64.434.118.887.146 1.332.082s.873-.217 1.259-.451a4.239 4.239 0 0 0 1.235-1.091c-.671-.795-1.47-1.366-2.522-1.518-.67-.097-1.309.038-1.931.282a5.883 5.883 0 0 0-1.645.972c-.098.083-.187.177-.291.269zm.626.02a5.328 5.328 0 0 1 1.692-.935c1.245-.435 2.332-.147 3.29.733.061.057.11.125.178.2-.5.52-1.059.899-1.748 1.038-1.291.261-2.351-.298-3.412-1.036zm10.442 2.736c-.041.089-.078.18-.11.272-.468 1.642-.16 3.06 1.163 4.189.538.46 1.151.822 1.811 1.069.1.038.204.059.347.099.048-.29.11-.558.133-.823a6.019 6.019 0 0 0-.167-2.092c-.379-1.422-1.339-2.232-2.688-2.628-.11-.034-.231-.056-.348-.079a1.314 1.314 0 0 0-.14-.008zm2.895 5.05a2.165 2.165 0 0 1-.233-.073 5.057 5.057 0 0 1-1.777-1.297c-.8-.924-.92-1.992-.606-3.144a.42.42 0 0 1 .117-.008c.915.252 1.665.74 2.107 1.618.453.902.493 1.872.392 2.903zm-9.218.6c.293-.112.557-.205.808-.321a5.642 5.642 0 0 0 1.617-1.131c.953-.946 1.247-2.099 1.003-3.411-.049-.265-.135-.522-.213-.821-.269.068-.501.112-.723.188-1.507.51-2.379 1.562-2.598 3.17a6.302 6.302 0 0 0 .008 1.865c.025.143.059.279.098.462zm2.916-5.158c.329 1.248.183 2.344-.673 3.272a5.249 5.249 0 0 1-1.625 1.18c-.091.038-.184.07-.279.097a.88.88 0 0 1-.045-.143 5.353 5.353 0 0 1 .219-2.311c.389-1.15 1.238-1.775 2.403-2.095zm2.239-11.208c.521.529-.287 1.353-.808.823s.287-1.354.808-.823zm-.023-2.054c.521.529-.287 1.353-.808.823s.287-1.353.808-.823zm2.019 0c.521.529-.287 1.353-.808.823s.287-1.353.808-.823zm-1.996-2.055c.521.53-.287 1.354-.808.823s.287-1.353.808-.823zm-2.041 2.055c.52.529-.288 1.353-.809.823s.287-1.353.809-.823zm-4.996 5.723c.712-.189 1.001.938.288 1.126s-1.002-.938-.288-1.126zm-1.752-1.02c.712-.189 1.001.937.287 1.126s-1.001-.936-.287-1.126zm1.021-1.771c.712-.189 1.001.936.288 1.126s-1.001-.938-.288-1.126zm-2.748.712c.713-.189 1.002.936.288 1.126s-1.005-.937-.288-1.126zm-2.609-2.919c.712-.189 1.001.937.287 1.127s-1.001-.937-.287-1.127zm2.758-.994c.712-.189 1.001.937.287 1.126s-1.001-.936-.287-1.126zm-3.735-1.403c.713-.19 1.002.936.288 1.126s-1.001-.938-.288-1.126zm-2.378.819c.712-.19 1.001.936.288 1.126s-1.002-.937-.288-1.126zm6.669 7.328c.712-.189 1.001.938.288 1.126s-1.001-.938-.288-1.126zm2.323 7.28c.201-.72 1.301-.404 1.097.317s-1.297.405-1.097-.317zm-1.752 1.024c.201-.721 1.302-.405 1.097.317s-1.297.407-1.097-.317zm-.985-1.794c.201-.721 1.302-.405 1.097.317s-1.297.405-1.097-.317zm-3.307.492c.201-.721 1.302-.405 1.097.317s-1.297.405-1.097-.317zm-2.408 1.032c.201-.721 1.302-.405 1.097.317s-1.297.405-1.097-.317zm-2.081-1.898c.201-.72 1.302-.404 1.097.317s-1.297.405-1.097-.317zm7.008 3.149c.201-.72 1.302-.404 1.097.317s-1.297.405-1.097-.317zm2.758.812c.201-.721 1.302-.405 1.097.317s-1.297.4-1.097-.317zm7.499 1.65c-.519-.53.291-1.353.81-.821s-.293 1.353-.81.821zm.017 2.054c-.52-.531.291-1.353.81-.821s-.291 1.353-.81.821zm-2.019-.004c-.519-.531.291-1.353.81-.821s-.291 1.353-.81.821zm1.991 2.059c-.52-.531.291-1.353.81-.821s-.291 1.353-.81.821zm2.047-2.05c-.52-.53.29-1.353.81-.821s-.291 1.353-.81.821zm5.083-5.834c-.709.2-1.015-.921-.304-1.116s1.015.916.304 1.116zm1.765.994c-.71.2-1.016-.922-.305-1.122s1.019.922.305 1.122zm-.987 1.786c-.708.2-1.015-.922-.305-1.116s1.01.916.305 1.116zm2.735-.754c-.71.2-1.016-.921-.305-1.122s1.015.922.305 1.122zm-.751-2.821c-.708.2-1.015-.922-.305-1.116s1.016.916.305 1.116zm-2.387-7.144c-.198.721-1.301.407-1.097-.315s1.296-.407 1.097.315z"/></symbol><symbol id="icon-vk" viewBox="0 0 32 32"><path d="M32 16c0 8.837-7.163 16-16 16S0 24.837 0 16 7.163 0 16 0s16 7.163 16 16z"/><path d="M26.147 10.245c.158-.525 0-.912-.75-.912h-2.48c-.631 0-.921.334-1.079.701 0 0-1.261 3.074-3.047 5.07-.578.578-.841.762-1.156.762-.158 0-.386-.184-.386-.709v-4.913c0-.631-.183-.912-.708-.912h-3.897c-.394 0-.631.293-.631.57 0 .598.893.736.985 2.417v3.652c0 .801-.145.946-.46.946-.841 0-2.886-3.087-4.098-6.62-.238-.687-.476-.964-1.11-.964H4.85c-.708 0-.85.334-.85.701 0 .657.841 3.914 3.914 8.223 2.049 2.942 4.936 4.537 7.563 4.537 1.576 0 1.771-.354 1.771-.964v-2.224c0-.708.149-.85.648-.85.368 0 .998.184 2.47 1.603 1.681 1.681 1.959 2.436 2.904 2.436h2.48c.708 0 1.063-.354.858-1.053-.224-.697-1.026-1.708-2.092-2.906-.578-.683-1.445-1.419-1.708-1.786-.368-.473-.263-.683 0-1.103 0 0 3.021-4.256 3.337-5.701z"/></symbol><symbol id="icon-close" viewBox="0 0 32 32"><path d="m26.667 7.303-1.97-1.97-7.808 7.808-7.808-7.808-1.97 1.97 7.808 7.808-7.808 7.808 1.97 1.97 7.808-7.808 7.808 7.808 1.97-1.97-7.808-7.808 7.808-7.808z"/></symbol><symbol id="icon-envelope" viewBox="0 0 45 32"><path stroke-linecap="round" stroke-linejoin="round" stroke-width="2.824" d="M33.129 1.882H12.047c-1.449 0-2.635 1.165-2.635 2.588v15.529c0 1.424 1.186 2.588 2.635 2.588h21.082c1.449 0 2.635-1.165 2.635-2.588V4.47c0-1.424-1.186-2.588-2.635-2.588z"/><path stroke-linecap="round" stroke-linejoin="round" stroke-width="2.824" d="m9.412 3.953 13.176 10.353L35.764 3.953"/></symbol><symbol id="icon-location" viewBox="0 0 28 32"><path d="M14 2.477c3.022 0 5.921 1.142 8.058 3.175s3.338 4.79 3.338 7.664c0 4.199-2.869 8.258-5.992 11.393A40.928 40.928 0 0 1 14 29.242a40.928 40.928 0 0 1-5.404-4.533c-3.123-3.135-5.992-7.194-5.992-11.393 0-2.875 1.201-5.631 3.338-7.664S10.977 2.477 14 2.477zm0 28.285c.722 1.031.723 1.03.723 1.03l.004-.003.009-.006.032-.021.116-.076a38.475 38.475 0 0 0 1.911-1.362 43.568 43.568 0 0 0 4.499-3.912C24.52 23.173 28 18.51 28 13.315c0-3.532-1.475-6.919-4.101-9.416S17.713-.001 14-.001s-7.274 1.403-9.899 3.9C1.475 6.396 0 9.783 0 13.315c0 5.195 3.479 9.858 6.706 13.097a43.568 43.568 0 0 0 5.986 4.988c.181.124.324.22.424.286l.116.076.032.021.012.008s.002.001.724-1.029zm0 0-.724 1.029c.437.277 1.01.278 1.447.001L14 30.762zm0-20.233c1.618 0 2.93 1.248 2.93 2.787s-1.312 2.787-2.93 2.787-2.93-1.248-2.93-2.787 1.312-2.787 2.93-2.787zm5.535 2.787c0-2.908-2.478-5.265-5.535-5.265s-5.535 2.357-5.535 5.265c0 2.908 2.478 5.265 5.535 5.265s5.535-2.357 5.535-5.265z"/></symbol><symbol id="icon-logo" viewBox="0 0 69 32"><path d="M21.35 17.522c.026-1.266.514-2.338 1.319-3.292 1.766-2.097 4.093-3.259 6.639-4.045.296-.092.321-.189.221-.468-.406-1.097-.43-2.301-.069-3.414s1.086-2.068 2.056-2.709c.291-.194.306-.358.198-.645a4.359 4.359 0 0 0-1.741-2.19c-.136-.088-.274-.17-.299-.353a.332.332 0 0 1 .153-.346c.168-.112.331-.051.483.046.929.588 1.624 1.387 2.004 2.426.146.4.26.52.708.377a4.732 4.732 0 0 1 2.98.049c.257.086.331.029.415-.213A4.983 4.983 0 0 1 38.448.141c.158-.105.319-.203.511-.097.286.154.251.469-.092.693a4.565 4.565 0 0 0-1.717 2.06c-.172.396-.129.606.252.868.932.648 1.623 1.591 1.965 2.681s.315 2.264-.076 3.337c-.117.326-.046.42.259.511 2.108.633 4.061 1.576 5.704 3.08 1.024.939 1.876 2.009 2.138 3.443.248 1.353-.129 2.547-.883 3.65a9.03 9.03 0 0 1-1.324 1.498.883.883 0 0 1-.65.24c-1.307-.023-2.459-.499-3.522-1.228a8.933 8.933 0 0 1-1.006-.781c-.241-.223-.286-.145-.359.123a11.375 11.375 0 0 1-3.675 5.848c-.397.335-.829.626-1.254.924-.232.163-.402.155-.638 0-2.488-1.612-4.126-3.857-4.916-6.733-.11-.407-.205-.306-.433-.112-1.17 1.011-2.464 1.757-4.031 1.94-.542.064-.962-.051-1.356-.463-.96-1.005-1.76-2.079-1.971-3.504-.011-.079-.026-.16-.03-.24.003-.119.008-.241.008-.358zm18.71-6.361c-.018-.066-.055-.065-.102-.03l.072.066c.642.67 1.28 1.349 1.928 2.016 1.471 1.508 2.943 3.013 4.414 4.513.087.088.148.223.321.232a.722.722 0 0 0 .039-.145 4.133 4.133 0 0 0 0-.522c-.153-1.749-1.254-2.893-2.479-3.952a8.871 8.871 0 0 0-1.204-.802c-.945-.571-1.916-1.086-2.99-1.375zm-11.325 0c-.103.02-.204.046-.304.077-1.598.598-3.09 1.401-4.373 2.536-.883.775-1.594 1.683-1.883 2.861-.11.446-.191.893-.026 1.483.073-.12.153-.235.241-.344 1.159-1.212 2.331-2.406 3.496-3.599.962-.989 1.935-1.969 2.895-2.961.015-.032.102-.039.036-.097-.007-.011-.051.025-.077.045h-.004zm1.529-1.591c2.763-2.119 5.522-2.119 8.277 0 .796-1.578.206-3.906-1.309-5.134-.814-.649-1.822-.999-2.858-.993s-2.04.368-2.846 1.027c-1.485 1.244-2.061 3.585-1.259 5.097l-.004.003zm4.108 10.136h4.261c.142 0 .331.092.418-.119a.473.473 0 0 0-.11-.548 11.82 11.82 0 0 1-1.69-2.43c-.025-.068-.072-.126-.132-.165s-.132-.057-.204-.051c-1.672.006-3.344.006-5.017 0-.072-.007-.144.008-.206.045s-.112.092-.141.158a12.15 12.15 0 0 1-1.73 2.489c-.139.156-.124.311-.071.485.064.211.237.135.367.135l4.26-.002-.004.003zm.023.727h-4.098c-.245 0-.331.032-.239.309a11.193 11.193 0 0 0 1.451 2.846.425.425 0 0 0 .4.197 579.16 579.16 0 0 1 4.932 0 .566.566 0 0 0 .519-.286 11.61 11.61 0 0 0 1.376-2.717c.097-.276.082-.363-.239-.359-1.365.016-2.731.007-4.097.007l-.004.003zm-5.277-5.1-.142-.086c-.283.319-.576.628-.844.96a1.095 1.095 0 0 1-1.011.434c-.253-.026-.404.077-.552.291-.84 1.252-1.7 2.491-2.546 3.738-.082.121-.28.233-.168.402s.289.354.557.309c.287-.048.58-.065.862-.132 1.435-.335 2.558-1.186 3.587-2.199a.34.34 0 0 0 .124-.241l.138-3.48-.004.003zm10.693 1.886v1.486a.498.498 0 0 0 .167.386 9.419 9.419 0 0 0 2.155 1.634 5.781 5.781 0 0 0 2.193.659.624.624 0 0 0 .61-.293c.138-.202-.085-.31-.171-.436-.821-1.218-1.656-2.423-2.477-3.643-.171-.254-.347-.411-.669-.373-.369.044-.662-.105-.908-.392-.172-.203-.375-.378-.564-.566-.094-.093-.119-.112-.221-.086-.136.023-.119.195-.121.315 0 .453-.024 1.307.01 1.307l-.004.003zm-5.408-1.557c.69 0 1.38-.01 2.068 0 .25.006.3-.093.234-.305a4.537 4.537 0 0 0-.124-.335c-.361-.91-.545-1.845-.38-2.825.029-.172-.008-.252-.178-.271a15.288 15.288 0 0 0-3.215 0c-.145.014-.258.058-.196.253.098.319.034.645.017.968a6.672 6.672 0 0 1-.504 2.175c-.131.319-.049.342.21.34l2.068-.001zm3.493-5.56c-1.736-1.91-5.543-1.713-6.958.01.533.209.993.517 1.291 1.019.081.134.186.126.308.112 1.235-.17 2.487-.17 3.722 0 .11.016.233.05.315-.089.303-.527.774-.839 1.321-1.055l.001.003zm5.648 5.803c0 .022.01-.012 0-.027a1356.48 1356.48 0 0 0-2.888-2.987c-.494-.509-1.019-.992-1.493-1.52-.662-.732-1.104-.781-1.748-.112l-.028.029c-.221.206-.248.376 0 .619 1.285 1.257 2.551 2.535 3.825 3.804.083.083.154.194.289.194.679-.007 1.361-.008 2.042-.008l.001.007zm-18.319.007.052.086c.542-.025 1.083-.069 1.623-.066a1.022 1.022 0 0 0 .863-.38c.236-.284.523-.522.785-.781.978-.975 1.949-1.958 2.936-2.924.177-.173.173-.292.026-.463-.23-.261-.52-.46-.844-.579-.098-.051-.211-.065-.318-.04s-.203.087-.27.175c-1.001 1.047-2.02 2.077-3.032 3.113l-1.821 1.861zm6.669-3.423c-.61.478-1.062 1.065-1.605 1.549a1.348 1.348 0 0 0-.464 1.081c-.007.642-.031 1.283-.043 1.925-.006.285 0 .57 0 .893 1.182-1.349 2.366-3.859 2.112-5.449zm4.953-.062c0 2.201.956 3.885 2.154 5.474.034-.132.048-.27.04-.406-.026-.776-.092-1.552-.071-2.327.013-.458-.047-.805-.427-1.109-.579-.463-1.003-1.095-1.696-1.632zm6.138 4.314c.829 1.212 1.64 2.4 2.453 3.586.11.157.178.031.238-.047.269-.348.504-.722.702-1.116.102-.203.083-.329-.077-.488-.578-.574-1.142-1.162-1.712-1.743-.082-.086-.162-.186-.295-.188-.418-.004-.836-.004-1.31-.004zm-17.156 0H24.58a.428.428 0 0 0-.313.146 442.38 442.38 0 0 1-1.788 1.833c-.103.105-.154.203-.084.355.204.437.456.849.754 1.228.11.134.169.119.26-.016.795-1.17 1.594-2.335 2.42-3.546zm6.464 7.784a9.973 9.973 0 0 0 1.926 1.674c.083.056.157.147.281.065a9.691 9.691 0 0 0 2.009-1.734l-4.216-.004zM6.169 16.863a5.795 5.795 0 0 1 3.466.748c.046-1.228.361-2.358 1.093-3.401.407.494.635 1.042.817 1.614.2.578.292 1.189.269 1.801 1.104-.612 2.228-.883 3.482-.763a4.89 4.89 0 0 1-.974 1.516c-.39.461-.863.843-1.394 1.126 1.057.657 1.844 1.501 2.354 2.605-.62.276-2.105-.02-3.443-.68-.035 1.228-.359 2.353-1.062 3.357-.557-.446-1.016-1.81-1.139-3.359a5.835 5.835 0 0 1-3.4.757c.104-.727 1.143-1.927 2.291-2.66a5.998 5.998 0 0 1-2.36-2.661zm.595 4.938c.034.026.05.046.067.048.043.007.086.01.129.008a5.976 5.976 0 0 0 1.927-.429 2.479 2.479 0 0 0 1.045-.758c.148-.2.264-.423.343-.66.077-.223.021-.31-.201-.36a1.975 1.975 0 0 0-.608-.05 2.391 2.391 0 0 0-1.139.446 5.714 5.714 0 0 0-1.485 1.59c-.03.052-.057.107-.078.164zm7.993.085c-.068-.143-.089-.203-.124-.256a5.863 5.863 0 0 0-1.39-1.509 2.426 2.426 0 0 0-1.247-.521 2.693 2.693 0 0 0-.669.075.177.177 0 0 0-.136.086.17.17 0 0 0-.025.079.19.19 0 0 0 .012.082c.05.199.124.392.221.573.237.375.584.664.993.827.443.175.897.319 1.36.431a8.72 8.72 0 0 0 1.005.133zm-3.973 2.278c.127-.294.256-.558.355-.83.232-.643.398-1.299.321-1.993-.046-.422-.16-.818-.459-1.135-.221-.223-.313-.223-.533.006-.271.305-.43.696-.449 1.106-.093.998.209 1.903.657 2.771.008.019.029.019.109.076h-.001zm3.936-7.002c-.321.035-.603.049-.883.098-.656.112-1.294.286-1.85.686-.296.213-.563.459-.709.8-.221.507-.152.644.407.696.46.045.883-.112 1.269-.346.724-.439 1.269-1.059 1.717-1.772a.829.829 0 0 0 .049-.163h-.001zm-7.927 0a1.64 1.64 0 0 1-.038.087c.06.114.129.223.206.326.338.386.67.781 1.032 1.14a2.38 2.38 0 0 0 1.065.617c.25.078.511.111.773.097.502-.046.577-.167.386-.633a1.403 1.403 0 0 0-.344-.511 4.788 4.788 0 0 0-.843-.608c-.441-.243-.936-.349-1.435-.429-.265-.037-.532-.052-.801-.08l-.001-.006zm3.956-2.261c-.028.011-.055.014-.063.029-.476.906-.787 1.854-.653 2.902.034.364.183.707.425.979.23.247.331.249.552 0 .273-.317.429-.72.441-1.14.079-.973-.221-1.859-.649-2.71a.271.271 0 0 0-.052-.055l-.001-.006zm.197 4.63c-.098-.075-.153-.146-.202-.143s-.11.075-.137.13c-.009.019.068.112.11.112s.116-.041.228-.098z"/><path d="M5.959 11.135a5.892 5.892 0 0 1 2.207 1.228c.62.537 1.061 1.184 1.236 2a4.27 4.27 0 0 1-.19 2.329.334.334 0 0 1-.053.076c-.779-.073-1.515-.397-2.099-.924s-.985-1.23-1.145-2.004a6.08 6.08 0 0 1-.014-2.513c.012-.054.029-.106.057-.191zm2.881 5.124c.034-.036.057-.049.062-.068.321-1.196.152-2.286-.714-3.209a5.238 5.238 0 0 0-1.615-1.152c-.093-.044-.192-.071-.311-.112-.11.955-.067 1.848.289 2.698.432 1.022 1.256 1.573 2.283 1.843h.006zm6.689-5.125a5.62 5.62 0 0 1 .142 2.026 5.691 5.691 0 0 1-.147.841c-.292 1.179-1.014 1.993-2.112 2.462-.338.144-.697.233-1.063.353a1.709 1.709 0 0 1-.11-.223c-.21-.614-.282-1.267-.21-1.913a3.39 3.39 0 0 1 .939-1.981 5.766 5.766 0 0 1 2.56-1.565zm-.322.551c-.934.421-1.722.933-2.269 1.748-.584.869-.619 1.82-.35 2.799.04.009.063.022.081.017 1.238-.335 2.097-1.068 2.428-2.353a5.714 5.714 0 0 0 .11-2.211zm-7.606 7.837c-.699.814-1.501 1.377-2.546 1.527a3.615 3.615 0 0 1-1.696-.199A5.839 5.839 0 0 1 1.2 19.555c0-.035 0-.064.013-.075a5.391 5.391 0 0 1 2.98-1.492c.806-.119 1.552.077 2.243.501.445.273.84.622 1.165 1.032zm-5.769-.015c.403.375 1.016.704 1.674.932 1.254.433 2.346.146 3.311-.734.056-.054.108-.112.157-.173a.278.278 0 0 0-.021-.057.33.33 0 0 0-.041-.05c-.977-.944-2.097-1.277-3.406-.826a5.332 5.332 0 0 0-1.674.908zm18.474.004a4.594 4.594 0 0 1-1.047.815 5.792 5.792 0 0 1-1.528.64 3.347 3.347 0 0 1-2.606-.368 4.256 4.256 0 0 1-1.243-1.091c.674-.795 1.478-1.366 2.538-1.518.675-.097 1.318.038 1.943.282.6.231 1.159.56 1.655.972.093.083.184.177.287.269zm-.631.02a5.37 5.37 0 0 0-1.703-.935c-1.251-.435-2.346-.147-3.311.733-.062.057-.11.125-.179.2.503.52 1.067.9 1.759 1.038 1.305.261 2.364-.298 3.434-1.036h-.001zM9.169 22.267c.038.094.081.181.11.272.471 1.642.16 3.06-1.171 4.189a6.052 6.052 0 0 1-1.822 1.069c-.099.038-.205.059-.349.099-.047-.29-.11-.558-.134-.823a6.019 6.019 0 0 1 .168-2.092c.382-1.422 1.347-2.232 2.705-2.628.11-.034.233-.056.35-.079.047-.005.095-.008.142-.008zm-2.914 5.05c.079-.02.157-.044.234-.073a5.088 5.088 0 0 0 1.788-1.297c.803-.924.925-1.992.609-3.144a.427.427 0 0 0-.118-.008c-.92.252-1.675.74-2.12 1.618-.455.902-.494 1.872-.393 2.903zm9.276.6c-.295-.112-.56-.205-.813-.321a5.673 5.673 0 0 1-1.631-1.131c-.959-.946-1.255-2.099-1.009-3.411.05-.265.135-.522.214-.821.269.068.503.112.726.188 1.517.51 2.394 1.563 2.615 3.17.09.62.087 1.25-.008 1.869-.022.138-.056.275-.095.458zm-2.935-5.158c-.331 1.248-.183 2.344.678 3.272a5.3 5.3 0 0 0 1.636 1.18c.092.038.185.07.28.097a.88.88 0 0 0 .045-.143 5.308 5.308 0 0 0-.221-2.311c-.392-1.15-1.245-1.775-2.418-2.095zm-2.252-11.208c-.523.529.289 1.353.813.823s-.289-1.354-.813-.823zm.023-2.054c-.524.529.289 1.353.813.823s-.289-1.353-.813-.823zm-2.032 0c-.523.529.289 1.353.813.823s-.289-1.353-.813-.823zm2.009-2.055c-.523.53.289 1.354.813.823s-.289-1.353-.813-.823zm2.055 2.055c-.524.529.289 1.353.813.823s-.289-1.353-.813-.823zm5.026 5.723c-.716-.189-1.008.937-.289 1.126s1.008-.938.289-1.126zm1.764-1.02c-.717-.189-1.009.938-.29 1.126s1.008-.936.29-1.126zm-1.028-1.771c-.716-.189-1.008.936-.29 1.126s1.009-.938.29-1.126zm2.769.712c-.717-.189-1.009.936-.29 1.126s1.008-.938.29-1.126zm2.623-2.919c-.717-.189-1.009.938-.29 1.127s1.008-.937.29-1.127zm-2.776-.994c-.717-.189-1.009.938-.29 1.126s1.008-.936.29-1.126zm3.757-1.403c-.716-.19-1.008.936-.29 1.126s1.008-.938.29-1.126zm2.394.819c-.716-.19-1.008.936-.289 1.126s1.008-.938.289-1.126zm-6.711 7.328c-.716-.189-1.008.938-.29 1.126s1.009-.938.29-1.126zm-2.339 7.28c-.202-.72-1.309-.404-1.104.317s1.307.405 1.104-.317zm1.766 1.024c-.202-.721-1.31-.405-1.104.317s1.303.407 1.104-.317zm.993-1.794c-.202-.721-1.31-.405-1.104.317s1.301.405 1.104-.317zm3.324.492c-.202-.721-1.309-.405-1.104.317s1.311.405 1.104-.317zm2.422 1.032c-.202-.721-1.31-.405-1.104.317s1.306.405 1.104-.317zm2.095-1.898c-.202-.72-1.309-.404-1.104.317s1.306.405 1.104-.317zm-7.052 3.149c-.202-.72-1.31-.404-1.104.317s1.308.405 1.104-.317zm-2.775.812c-.202-.721-1.31-.405-1.104.317s1.306.4 1.104-.317zm-7.544 1.65c.523-.53-.292-1.353-.816-.821s.292 1.353.816.821zm-.019 2.054c.523-.531-.291-1.353-.816-.821s.292 1.353.816.821zm2.031-.004c.523-.531-.292-1.353-.816-.821s.292 1.353.816.821zm-2.004 2.059c.523-.531-.291-1.353-.816-.821s.295 1.353.816.821zm-2.058-2.05c.522-.53-.292-1.353-.816-.821s.291 1.353.816.821zm-5.116-5.834c.714.2 1.022-.921.307-1.116s-1.021.916-.307 1.116zm-1.779.993c.714.2 1.022-.922.307-1.122s-1.021.922-.307 1.122zm1.002 1.787c.714.2 1.022-.922.307-1.116s-1.022.916-.307 1.116zM.406 25.97c.714.2 1.022-.921.307-1.122s-1.022.922-.307 1.122zm.755-2.821c.714.2 1.022-.922.307-1.116s-1.026.916-.307 1.116zm2.402-7.145c.201.721 1.309.407 1.104-.315s-1.303-.407-1.104.315zm59.091.859a5.798 5.798 0 0 0-3.467.748c-.045-1.228-.361-2.358-1.092-3.401-.407.494-.635 1.042-.817 1.614a4.964 4.964 0 0 0-.269 1.801c-1.104-.612-2.228-.883-3.482-.763a4.89 4.89 0 0 0 .974 1.516c.39.461.863.843 1.394 1.126-1.057.657-1.844 1.501-2.354 2.605.62.276 2.105-.02 3.445-.68.035 1.228.357 2.353 1.06 3.357.552-.446 1.017-1.81 1.14-3.359a5.83 5.83 0 0 0 3.399.757c-.104-.727-1.143-1.927-2.291-2.66a6.006 6.006 0 0 0 2.361-2.661zm-.595 4.938c-.035.026-.05.046-.068.048a.622.622 0 0 1-.129.008 5.976 5.976 0 0 1-1.927-.429 2.484 2.484 0 0 1-1.049-.752 2.37 2.37 0 0 1-.343-.66c-.077-.223-.021-.31.201-.36.199-.048.404-.065.608-.05.412.047.803.201 1.139.446.594.427 1.1.965 1.493 1.585.029.053.054.108.076.164zm-7.993.085c.036-.087.077-.173.122-.256a5.871 5.871 0 0 1 1.388-1.509 2.434 2.434 0 0 1 1.247-.521c.225-.003.45.022.669.075a.182.182 0 0 1 .136.086.183.183 0 0 1 .013.161c-.05.199-.124.392-.221.573a2.08 2.08 0 0 1-.988.827c-.444.176-.9.32-1.364.431a8.657 8.657 0 0 1-1.003.133zm3.973 2.278c-.127-.294-.256-.558-.354-.83-.233-.643-.4-1.299-.322-1.993.047-.422.16-.818.46-1.135.221-.223.313-.223.532.006.271.305.43.695.45 1.104.093.998-.209 1.903-.655 2.771-.011.021-.035.021-.113.078h.002zm-3.936-7.002c.321.035.603.049.883.098.656.112 1.296.286 1.85.686.295.213.563.459.708.8.221.507.152.644-.406.696-.462.045-.883-.112-1.27-.346-.723-.439-1.269-1.059-1.717-1.772a.831.831 0 0 1-.05-.163h.002zm7.927 0c.012.029.024.058.038.087-.06.114-.129.223-.206.326-.338.386-.67.781-1.032 1.14a2.38 2.38 0 0 1-1.065.617c-.248.077-.508.11-.767.097-.502-.046-.576-.167-.386-.633.075-.195.193-.369.345-.511.258-.233.54-.437.842-.608.441-.243.936-.349 1.435-.429.258-.037.528-.052.795-.08l.002-.006zm-3.956-2.261c.028.011.057.014.064.029.474.906.786 1.854.652 2.902a1.716 1.716 0 0 1-.423.979c-.231.247-.331.249-.558 0a1.833 1.833 0 0 1-.441-1.14c-.079-.973.221-1.859.649-2.71.005-.02.032-.037.055-.055l.002-.006zm-.199 4.63c.099-.075.153-.146.202-.143s.11.075.137.13c.009.019-.068.112-.11.112s-.116-.041-.228-.098z"/><path d="M62.868 11.135a5.892 5.892 0 0 0-2.207 1.228c-.62.537-1.061 1.184-1.235 2-.171.796-.074 1.57.189 2.329a.292.292 0 0 0 .054.076c.778-.075 1.512-.399 2.094-.926s.982-1.229 1.142-2.002c.18-.827.185-1.684.014-2.513a18.383 18.383 0 0 0-.051-.191zm-2.88 5.124c-.034-.036-.057-.049-.062-.068-.321-1.196-.152-2.286.714-3.209a5.262 5.262 0 0 1 1.61-1.152c.092-.044.191-.071.31-.112.11.955.068 1.848-.288 2.698-.433 1.022-1.256 1.573-2.284 1.843zm-6.694-5.125a5.598 5.598 0 0 0-.141 2.026c.029.284.078.565.148.841.291 1.179 1.013 1.993 2.112 2.462.336.144.696.233 1.062.353.042-.071.079-.146.11-.223.21-.614.282-1.267.21-1.913a3.39 3.39 0 0 0-.939-1.981 5.764 5.764 0 0 0-2.561-1.565zm.32.551c.934.421 1.721.933 2.27 1.748.583.869.619 1.82.35 2.799-.041.009-.064.022-.082.017-1.238-.335-2.097-1.068-2.433-2.353a5.645 5.645 0 0 1-.104-2.211zm7.606 7.837c.699.814 1.501 1.377 2.546 1.527.573.07 1.154.002 1.696-.199a5.835 5.835 0 0 0 2.158-1.295c0-.035 0-.064-.013-.075a5.378 5.378 0 0 0-2.98-1.492c-.804-.119-1.551.077-2.242.501a4.504 4.504 0 0 0-1.166 1.032zm5.77-.015c-.403.375-1.017.704-1.674.932-1.254.433-2.347.146-3.311-.734a2.178 2.178 0 0 1-.156-.176.656.656 0 0 1 .021-.057.287.287 0 0 1 .041-.051c.977-.944 2.097-1.277 3.406-.826a5.33 5.33 0 0 1 1.671.913h.002zm-18.474.004c.308.322.661.596 1.047.815.478.287.994.502 1.533.64a3.356 3.356 0 0 0 2.606-.369 4.256 4.256 0 0 0 1.243-1.091c-.675-.795-1.479-1.366-2.538-1.518-.674-.097-1.318.038-1.944.282-.6.231-1.159.56-1.655.972-.098.083-.188.177-.292.269zm.63.02a5.37 5.37 0 0 1 1.703-.935c1.252-.435 2.346-.147 3.311.733.062.057.11.125.179.2-.503.52-1.066.9-1.759 1.038-1.299.261-2.366-.298-3.434-1.036zm10.507 2.736c-.042.089-.078.18-.11.272-.471 1.642-.161 3.06 1.17 4.189a6.073 6.073 0 0 0 1.822 1.069c.101.038.206.059.349.099.049-.29.11-.558.134-.823a5.971 5.971 0 0 0-.168-2.092c-.382-1.422-1.347-2.232-2.705-2.628-.11-.034-.233-.056-.35-.079a1.333 1.333 0 0 0-.141-.008zm2.914 5.05a2.182 2.182 0 0 1-.234-.073 5.08 5.08 0 0 1-1.788-1.297c-.804-.924-.926-1.992-.61-3.144a.424.424 0 0 1 .118-.008c.921.252 1.675.74 2.12 1.618.455.902.497 1.872.394 2.903zm-9.276.6c.295-.112.561-.205.814-.321a5.668 5.668 0 0 0 1.627-1.131c.959-.946 1.255-2.099 1.01-3.411-.05-.265-.135-.522-.214-.821-.27.068-.505.112-.727.188-1.516.51-2.394 1.563-2.614 3.17a6.302 6.302 0 0 0 .007 1.865c.025.143.06.279.098.462zm2.935-5.158c.331 1.248.184 2.344-.678 3.272a5.283 5.283 0 0 1-1.636 1.18 2.52 2.52 0 0 1-.281.097.88.88 0 0 1-.045-.143 5.323 5.323 0 0 1 .221-2.311c.391-1.15 1.246-1.775 2.418-2.095zm2.252-11.208c.524.529-.289 1.353-.814.823s.289-1.354.814-.823zm-.023-2.054c.524.529-.289 1.353-.813.823s.289-1.353.813-.823zm2.032 0c.524.529-.289 1.353-.814.823s.289-1.353.814-.823zm-2.009-2.055c.524.53-.289 1.354-.814.823s.289-1.353.814-.823zm-2.054 2.055c.523.529-.29 1.353-.814.823s.289-1.353.814-.823zm-5.027 5.723c.716-.189 1.008.937.29 1.126s-1.009-.938-.29-1.126zm-1.763-1.02c.716-.189 1.008.938.289 1.126s-1.008-.936-.289-1.126zm1.027-1.771c.716-.189 1.008.936.29 1.126s-1.007-.938-.29-1.126zm-2.765.712c.717-.189 1.009.936.29 1.126s-1.011-.938-.29-1.126zm-2.626-2.919c.716-.189 1.007.938.289 1.127s-1.007-.937-.289-1.127zm2.776-.994c.716-.189 1.008.938.289 1.126s-1.008-.936-.289-1.126zm-3.758-1.403c.718-.19 1.009.936.29 1.126s-1.007-.938-.29-1.126zm-2.394.819c.716-.19 1.008.936.29 1.126s-1.009-.938-.29-1.126zm6.711 7.328c.716-.189 1.007.938.29 1.126s-1.008-.938-.29-1.126zm2.338 7.28c.202-.72 1.309-.404 1.104.317s-1.306.405-1.104-.317zm-1.763 1.024c.202-.721 1.31-.405 1.104.317s-1.305.407-1.104-.317zm-.991-1.794c.202-.721 1.31-.405 1.103.317s-1.305.405-1.103-.317zm-3.328.492c.202-.721 1.31-.405 1.103.317s-1.305.405-1.103-.317zm-2.423 1.032c.202-.721 1.31-.405 1.104.317s-1.306.405-1.104-.317zm-2.094-1.898c.202-.72 1.31-.404 1.104.317s-1.306.405-1.104-.317zm7.052 3.149c.202-.72 1.31-.404 1.103.317s-1.305.405-1.103-.317zm2.775.812c.202-.721 1.31-.405 1.104.317s-1.305.4-1.104-.317zm7.546 1.65c-.522-.53.292-1.353.816-.821s-.295 1.353-.816.821zm.017 2.054c-.523-.531.292-1.353.816-.821s-.293 1.353-.816.821zm-2.032-.004c-.522-.531.292-1.353.816-.821s-.292 1.353-.816.821zm2.005 2.059c-.523-.531.292-1.353.816-.821s-.293 1.353-.816.821zm2.059-2.05c-.523-.53.291-1.353.815-.821s-.292 1.353-.815.821zm5.115-5.834c-.714.2-1.022-.921-.307-1.116s1.022.916.307 1.116zm1.776.993c-.714.2-1.022-.922-.307-1.122s1.025.922.307 1.122zm-.993 1.787c-.713.2-1.021-.922-.307-1.116s1.017.916.307 1.116zm2.752-.754c-.714.2-1.022-.921-.307-1.122s1.022.922.307 1.122zm-.755-2.821c-.713.2-1.021-.922-.307-1.116s1.022.916.307 1.116zm-2.402-7.145c-.2.721-1.309.407-1.104-.315s1.303-.407 1.104.315z"/></symbol><symbol id="icon-mobile-menu" viewBox="0 0 57 32"><path d="M2.526 0h52.211a2.526 2.526 0 0 1 0 5.052H2.526a2.526 2.526 0 0 1 0-5.052zm0 13.474h52.211a2.526 2.526 0 0 1 0 5.052H2.526a2.526 2.526 0 0 1 0-5.052zm0 13.473h52.211a2.526 2.526 0 0 1 0 5.052H2.526a2.526 2.526 0 0 1 0-5.052z"/></symbol><symbol id="icon-phone" viewBox="0 0 32 32"><path d="M27.506 21.284c-1.659 0-3.457-.276-4.978-.829h-.415c-.415 0-.691.138-.968.415l-3.042 3.042c-3.872-2.074-7.19-5.254-9.126-9.126l3.042-3.042c.415-.415.553-.968.277-1.383-.415-1.521-.691-3.319-.691-4.978 0-.691-.691-1.383-1.383-1.383h-4.84c-.691 0-1.383.691-1.383 1.383 0 12.998 10.509 23.506 23.506 23.506.691 0 1.383-.691 1.383-1.383v-4.839c0-.691-.691-1.383-1.383-1.383zM6.765 6.765h2.074c.138 1.244.415 2.489.691 3.595l-1.659 1.659c-.553-1.659-.968-3.457-1.106-5.254zm19.358 19.358c-1.797-.138-3.595-.553-5.254-1.106l1.659-1.659c1.106.276 2.351.553 3.595.553v2.212zm-5.53-9.679h2.765a6.913 6.913 0 0 0-6.914-6.914v2.765a4.148 4.148 0 0 1 4.148 4.148zm5.53 0h2.765A12.418 12.418 0 0 0 16.444 4v2.765c5.337 0 9.679 4.328 9.679 9.679z"/></symbol><symbol id="icon-rhombus" viewBox="0 0 32 32"><path d="M0 15.328 15.328 0l15.328 15.328-15.328 15.328L0 15.328z"/></symbol><symbol id="icon-telegram" viewBox="0 0 32 32"><path stroke-width=".8" d="M31 16c0 8.284-6.716 15-15 15S1 24.284 1 16C1 7.716 7.716 1 16 1s15 6.716 15 15z"/><path d="M5.976 15.577s8.846-3.567 11.913-4.823c1.176-.502 5.164-2.11 5.164-2.11s1.841-.703 1.687 1.005c-.051.703-.46 3.165-.869 5.828-.614 3.768-1.278 7.888-1.278 7.888s-.102 1.156-.971 1.357c-.869.201-2.301-.703-2.556-.904-.205-.151-3.835-2.412-5.164-3.517-.358-.301-.767-.904.051-1.608a194.885 194.885 0 0 0 5.369-5.024c.614-.603 1.227-2.01-1.329-.302-3.63 2.462-7.209 4.773-7.209 4.773s-.818.502-2.352.05c-1.534-.452-3.324-1.055-3.324-1.055s-1.227-.754.869-1.558z"/></symbol><symbol id="icon-twitter" viewBox="0 0 32 32"><path stroke-width=".8" d="M31 16c0 8.284-6.716 15-15 15S1 24.284 1 16C1 7.716 7.716 1 16 1s15 6.716 15 15z"/><path d="M26 9.2a8.13 8.13 0 0 1-2.357.655 4.153 4.153 0 0 0 1.804-2.3 8.19 8.19 0 0 1-2.606 1.01 4.072 4.072 0 0 0-2.994-1.313c-2.266 0-4.103 1.862-4.103 4.158 0 .326.037.644.106.947-3.41-.173-6.433-1.829-8.457-4.345a4.192 4.192 0 0 0-.555 2.091c0 1.442.724 2.715 1.825 3.46a4.055 4.055 0 0 1-1.858-.52v.052c0 2.015 1.414 3.696 3.291 4.077a4.058 4.058 0 0 1-1.852.072c.522 1.652 2.038 2.855 3.833 2.888a8.158 8.158 0 0 1-6.075 1.722 11.5 11.5 0 0 0 6.29 1.868c7.547 0 11.673-6.336 11.673-11.831 0-.18-.004-.359-.012-.538a8.42 8.42 0 0 0 2.048-2.152z"/></symbol><symbol id="icon-vk1" viewBox="0 0 32 32"><path fill="#3d2c23" d="M32 16c0 8.837-7.163 16-16 16S0 24.837 0 16 7.163 0 16 0s16 7.163 16 16z" style="fill:var(--color1,#3d2c23)"/><path fill="#f8ac1c" d="M26.147 10.245c.158-.525 0-.912-.75-.912h-2.48c-.631 0-.921.334-1.079.701 0 0-1.261 3.074-3.047 5.07-.578.578-.841.762-1.156.762-.158 0-.386-.184-.386-.709v-4.913c0-.631-.183-.912-.708-.912h-3.897c-.394 0-.631.293-.631.57 0 .598.893.736.985 2.417v3.652c0 .801-.145.946-.46.946-.841 0-2.886-3.087-4.098-6.62-.238-.687-.476-.964-1.11-.964H4.85c-.708 0-.85.334-.85.701 0 .657.841 3.914 3.914 8.223 2.049 2.942 4.936 4.537 7.563 4.537 1.576 0 1.771-.354 1.771-.964v-2.224c0-.708.149-.85.648-.85.368 0 .998.184 2.47 1.603 1.681 1.681 1.959 2.436 2.904 2.436h2.48c.708 0 1.063-.354.858-1.053-.224-.697-1.026-1.708-2.092-2.906-.578-.683-1.445-1.419-1.708-1.786-.368-.473-.263-.683 0-1.103 0 0 3.021-4.256 3.337-5.701z" style="fill:var(--color2,#f8ac1c)"/></symbol></defs></svg>