<svg xmlns="http://www.w3.org/2000/svg" aria-hidden="true" style="width:0;height:0;position:absolute;overflow:hidden"><defs><symbol id="icon-envelope-footer" viewBox="0 0 45 32"><path stroke-linecap="round" stroke-linejoin="round" stroke-width="2.824" d="M33.129 1.882H12.047c-1.449 0-2.635 1.165-2.635 2.588v15.529c0 1.424 1.186 2.588 2.635 2.588h21.082c1.449 0 2.635-1.165 2.635-2.588V4.47c0-1.424-1.186-2.588-2.635-2.588z"/><path stroke-linecap="round" stroke-linejoin="round" stroke-width="2.824" d="m9.412 3.953 13.176 10.353L35.764 3.953"/></symbol><symbol id="icon-telegram-footer" viewBox="0 0 40 32"><path d="M3.72 14.262s16.65-6.715 22.425-9.079c2.214-.946 9.721-3.972 9.721-3.972s3.465-1.324 3.176 1.891c-.096 1.324-.866 5.958-1.636 10.971C36.251 21.166 35 28.921 35 28.921s-.192 2.175-1.829 2.554c-1.636.378-4.331-1.324-4.812-1.702-.385-.284-7.218-4.54-9.721-6.62-.674-.567-1.444-1.702.096-3.026 3.465-3.121 7.603-6.998 10.106-9.457 1.155-1.135 2.31-3.783-2.502-.568-6.833 4.634-13.57 8.985-13.57 8.985s-1.54.946-4.427.095c-2.887-.851-6.256-1.986-6.256-1.986s-2.31-1.419 1.636-2.932z"/></symbol><symbol id="icon-vk-footer" viewBox="0 0 50 32"><path d="M49.171 3.668c.338-1.126 0-1.953-1.607-1.953H42.25c-1.351 0-1.974.715-2.312 1.503 0 0-2.702 6.587-6.53 10.865-1.238 1.238-1.802 1.633-2.477 1.633-.338 0-.827-.394-.827-1.52V3.669c0-1.351-.392-1.953-1.518-1.953h-8.35c-.844 0-1.352.627-1.352 1.221 0 1.281 1.914 1.576 2.111 5.179v7.825c0 1.716-.31 2.027-.985 2.027-1.801 0-6.183-6.616-8.782-14.186-.509-1.471-1.02-2.066-2.378-2.066H3.536c-1.518 0-1.822.715-1.822 1.503 0 1.407 1.801 8.388 8.388 17.62 4.391 6.305 10.578 9.723 16.207 9.723 3.378 0 3.796-.759 3.796-2.067V23.73c0-1.518.32-1.821 1.39-1.821.788 0 2.139.394 5.292 3.434 3.603 3.603 4.197 5.219 6.223 5.219h5.314c1.518 0 2.277-.759 1.839-2.257-.479-1.493-2.199-3.659-4.482-6.227-1.239-1.464-3.096-3.04-3.659-3.828-.788-1.013-.563-1.464 0-2.364 0 0 6.474-9.12 7.15-12.216z"/></symbol><symbol id="icon-logo-footer-mobile" viewBox="0 0 68 32"><path d="M21.217 17.522c.026-1.266.511-2.338 1.311-3.292 1.755-2.097 4.068-3.259 6.598-4.045.294-.092.319-.189.219-.468-.403-1.097-.428-2.301-.069-3.414s1.079-2.068 2.043-2.709c.29-.194.304-.358.196-.645a4.35 4.35 0 0 0-1.731-2.19c-.135-.088-.272-.17-.297-.353a.332.332 0 0 1 .152-.346c.167-.112.329-.051.48.046.923.588 1.614 1.387 1.992 2.426.145.4.259.52.704.377a4.673 4.673 0 0 1 2.961.049c.255.086.329.029.412-.213A4.975 4.975 0 0 1 38.206.141c.157-.105.317-.203.508-.097.284.154.249.469-.091.693a4.554 4.554 0 0 0-1.706 2.06c-.171.396-.128.606.25.868.926.648 1.613 1.591 1.953 2.681s.313 2.264-.075 3.337c-.116.326-.046.42.258.511 2.095.633 4.036 1.576 5.669 3.08 1.018.939 1.864 2.009 2.124 3.443.247 1.353-.128 2.547-.877 3.65a9.03 9.03 0 0 1-1.316 1.498c-.086.083-.188.146-.299.188s-.229.059-.347.052c-1.298-.023-2.443-.499-3.5-1.228a8.957 8.957 0 0 1-1-.781c-.239-.223-.284-.145-.356.123a11.38 11.38 0 0 1-3.652 5.848c-.395.335-.824.626-1.246.924-.23.163-.399.155-.634 0-2.472-1.612-4.101-3.857-4.886-6.733-.11-.407-.204-.306-.43-.112-1.162 1.011-2.449 1.757-4.006 1.94-.538.064-.956-.051-1.348-.463-.954-1.005-1.749-2.079-1.959-3.505-.011-.079-.026-.16-.03-.24.003-.119.008-.241.008-.358zm18.593-6.361c-.018-.066-.055-.065-.101-.03l.071.066c.638.67 1.272 1.349 1.916 2.016 1.462 1.508 2.925 3.013 4.387 4.513.087.088.147.223.319.232a.66.66 0 0 0 .038-.145 4.133 4.133 0 0 0 0-.522c-.151-1.749-1.246-2.893-2.463-3.952a8.8 8.8 0 0 0-1.197-.802c-.939-.571-1.904-1.086-2.971-1.375zm-11.254 0c-.102.02-.203.046-.302.077-1.588.598-3.071 1.401-4.346 2.536-.877.775-1.584 1.683-1.871 2.861-.11.446-.19.893-.026 1.483.072-.12.152-.235.239-.344 1.152-1.212 2.316-2.406 3.474-3.599.956-.989 1.922-1.969 2.877-2.961.015-.032.101-.039.036-.097-.007-.011-.05.025-.077.045h-.004zm1.519-1.591c2.746-2.119 5.488-2.119 8.225 0 .791-1.578.205-3.906-1.301-5.134-.809-.649-1.81-.999-2.84-.993s-2.027.368-2.829 1.027c-1.476 1.244-2.049 3.585-1.251 5.097l-.004.003zm4.083 10.136h4.234c.142 0 .329.092.416-.119a.48.48 0 0 0-.109-.548 11.809 11.809 0 0 1-1.679-2.43.33.33 0 0 0-.335-.216c-1.661.006-3.323.006-4.986 0-.071-.007-.143.008-.205.045s-.111.092-.14.158c-.468.9-1.046 1.736-1.72 2.489-.138.156-.123.311-.07.485.064.211.236.135.365.135l4.233-.002-.004.003zm.023.727h-4.072c-.243 0-.329.032-.238.309a11.197 11.197 0 0 0 1.442 2.846.428.428 0 0 0 .398.197c1.634-.007 3.268-.007 4.901 0a.561.561 0 0 0 .515-.286 11.622 11.622 0 0 0 1.368-2.717c.096-.276.081-.363-.238-.359-1.357.016-2.714.007-4.071.007l-.004.003zm-5.245-5.1-.141-.086c-.281.319-.573.628-.839.96-.115.156-.268.279-.445.355s-.37.104-.56.079c-.251-.026-.401.077-.548.291-.835 1.252-1.689 2.491-2.53 3.738-.081.121-.279.233-.167.402s.287.354.554.309c.285-.048.577-.065.856-.132 1.426-.335 2.542-1.186 3.564-2.199a.348.348 0 0 0 .123-.242c.047-1.161.093-2.321.137-3.48l-.004.003zm10.626 1.886v1.486a.498.498 0 0 0 .167.386 9.37 9.37 0 0 0 2.142 1.634 5.714 5.714 0 0 0 2.179.659.612.612 0 0 0 .605-.294c.137-.202-.084-.31-.17-.436-.816-1.218-1.645-2.423-2.461-3.643-.17-.255-.344-.411-.665-.373-.366.044-.658-.105-.903-.392-.171-.203-.373-.378-.56-.566-.093-.093-.118-.112-.219-.086-.135.023-.118.195-.121.315 0 .453-.024 1.307.01 1.307l-.004.003zm-5.374-1.557c.685 0 1.371-.01 2.055 0 .249.006.298-.093.233-.305-.035-.112-.079-.223-.123-.335-.359-.91-.542-1.845-.377-2.825.029-.172-.008-.252-.177-.271a15.098 15.098 0 0 0-3.195 0c-.144.014-.257.058-.195.253.098.319.034.645.016.968a6.694 6.694 0 0 1-.501 2.175c-.131.319-.048.342.208.34l2.055-.001zm3.471-5.56c-1.725-1.91-5.509-1.713-6.915.01.53.209.987.517 1.283 1.019.08.134.185.126.306.112 1.227-.17 2.472-.17 3.699 0 .11.016.231.05.313-.089.302-.527.769-.839 1.313-1.055l.001.003zm5.613 5.803c0 .022.01-.012 0-.027-.955-.997-1.912-1.993-2.87-2.987-.491-.509-1.012-.992-1.484-1.52-.658-.732-1.097-.781-1.737-.112l-.027.029c-.219.206-.247.376 0 .619 1.277 1.257 2.536 2.535 3.801 3.804.082.083.154.194.287.194.674-.007 1.352-.008 2.029-.008l.001.007zm-18.205.007.052.086c.538-.025 1.076-.069 1.613-.066a1.007 1.007 0 0 0 .858-.38c.235-.283.52-.522.78-.781.972-.976 1.937-1.958 2.917-2.924.175-.173.172-.292.026-.463a2.06 2.06 0 0 0-.839-.579c-.098-.051-.209-.065-.316-.04s-.202.087-.268.175c-.995 1.047-2.007 2.077-3.013 3.113l-1.81 1.861zm6.628-3.423c-.607.478-1.055 1.065-1.595 1.549a1.362 1.362 0 0 0-.462 1.081c-.007.642-.031 1.283-.043 1.925-.005.285 0 .57 0 .893 1.175-1.349 2.351-3.859 2.099-5.449zm4.921-.062c0 2.201.95 3.885 2.141 5.474.034-.132.047-.27.039-.406-.026-.776-.091-1.552-.07-2.327.013-.458-.047-.805-.424-1.109-.576-.463-.997-1.095-1.686-1.632zm6.1 4.314c.824 1.212 1.63 2.4 2.438 3.586.11.157.177.031.237-.047.267-.348.501-.722.698-1.116.101-.203.082-.329-.077-.488-.575-.574-1.135-1.162-1.701-1.743-.082-.086-.161-.186-.293-.187-.416-.004-.831-.004-1.302-.004zm-17.048 0h-1.241a.423.423 0 0 0-.311.146c-.591.613-1.183 1.224-1.777 1.833-.102.105-.154.203-.083.355.202.437.454.849.749 1.228.11.134.168.119.259-.016.79-1.17 1.584-2.335 2.405-3.546zm6.423 7.784a9.903 9.903 0 0 0 1.914 1.674c.082.056.156.147.28.065a9.646 9.646 0 0 0 1.996-1.734l-4.189-.004zm-25.96-7.662a5.731 5.731 0 0 1 3.445.748c.046-1.228.359-2.358 1.086-3.401.405.494.631 1.042.812 1.614.199.578.29 1.189.268 1.801 1.097-.612 2.214-.883 3.46-.763a4.89 4.89 0 0 1-.968 1.516 4.746 4.746 0 0 1-1.385 1.126c1.051.657 1.833 1.501 2.339 2.605-.616.276-2.091-.02-3.422-.68-.035 1.228-.356 2.353-1.055 3.357-.554-.446-1.01-1.81-1.132-3.359a5.77 5.77 0 0 1-3.379.757c.103-.727 1.136-1.927 2.277-2.66a5.989 5.989 0 0 1-2.345-2.661zm.591 4.938c.034.026.049.046.067.048.042.007.085.01.128.008a5.906 5.906 0 0 0 1.915-.429 2.467 2.467 0 0 0 1.039-.758c.147-.2.262-.423.341-.66.077-.223.021-.31-.2-.361a1.952 1.952 0 0 0-.604-.05 2.366 2.366 0 0 0-1.132.446 5.697 5.697 0 0 0-1.476 1.59c-.03.052-.056.107-.078.164zm7.943.085c-.068-.143-.089-.203-.123-.256a5.85 5.85 0 0 0-1.382-1.509 2.403 2.403 0 0 0-1.239-.521 2.661 2.661 0 0 0-.665.075.182.182 0 0 0-.136.086.183.183 0 0 0-.013.161c.05.199.123.392.219.573.235.375.581.664.987.827.44.175.891.319 1.351.431.33.064.664.108.999.133zm-3.948 2.278c.126-.294.254-.558.353-.83.23-.643.396-1.299.319-1.993-.046-.422-.159-.818-.456-1.135-.219-.223-.311-.223-.53.006a1.8 1.8 0 0 0-.446 1.106c-.092.998.207 1.903.653 2.771.008.019.028.019.109.076h-.001zm3.911-7.002c-.319.035-.599.049-.877.098-.651.112-1.286.286-1.838.686-.294.213-.559.459-.704.8-.219.507-.151.644.405.696.457.045.877-.112 1.261-.346.719-.439 1.261-1.059 1.706-1.772a.764.764 0 0 0 .048-.163h-.001zm-7.878 0-.037.087c.06.114.129.223.205.326.336.386.666.781 1.025 1.139.294.296.659.509 1.058.617.248.078.508.111.768.097.499-.046.574-.167.384-.633a1.398 1.398 0 0 0-.342-.511 4.75 4.75 0 0 0-.838-.608c-.439-.243-.93-.349-1.426-.429-.263-.037-.529-.052-.796-.08l-.001-.006zm3.932-2.261c-.027.011-.055.014-.063.029-.473.906-.782 1.854-.649 2.902.034.364.182.707.422.979.228.247.329.249.548 0 .271-.317.426-.72.439-1.139.079-.973-.219-1.859-.645-2.71a.271.271 0 0 0-.052-.055l-.001-.006zm.196 4.63c-.098-.075-.152-.146-.201-.143s-.11.075-.136.13c-.009.019.068.112.11.112s.115-.041.227-.098z"/><path d="M5.922 11.135a5.844 5.844 0 0 1 2.193 1.228c.616.537 1.054 1.184 1.228 2a4.299 4.299 0 0 1-.189 2.329.334.334 0 0 1-.053.076c-.774-.073-1.505-.397-2.085-.924s-.979-1.23-1.138-2.004a6.132 6.132 0 0 1-.014-2.513c.012-.054.029-.106.057-.191zm2.862 5.124c.034-.036.057-.049.061-.068.319-1.196.151-2.286-.71-3.209A5.207 5.207 0 0 0 6.53 11.83c-.092-.043-.191-.071-.309-.112-.11.955-.067 1.848.287 2.698.429 1.022 1.248 1.573 2.269 1.843h.005zm6.648-5.125c.169.661.217 1.347.142 2.026a5.86 5.86 0 0 1-.146.842c-.291 1.179-1.008 1.993-2.099 2.462-.336.144-.693.233-1.056.353a1.846 1.846 0 0 1-.11-.223 4.417 4.417 0 0 1-.208-1.913 3.4 3.4 0 0 1 .933-1.981 5.72 5.72 0 0 1 2.544-1.565zm-.32.551c-.928.421-1.711.933-2.255 1.748-.58.869-.615 1.82-.348 2.799.039.009.063.022.08.017 1.23-.335 2.084-1.068 2.413-2.353a5.714 5.714 0 0 0 .11-2.211zm-7.558 7.837c-.694.814-1.492 1.377-2.53 1.527a3.575 3.575 0 0 1-1.686-.199 5.792 5.792 0 0 1-2.145-1.295c0-.035 0-.064.013-.075a5.348 5.348 0 0 1 2.961-1.492c.801-.119 1.542.077 2.228.501a4.47 4.47 0 0 1 1.158 1.032zm-5.733-.015c.4.375 1.01.704 1.664.932 1.246.433 2.332.146 3.29-.734.056-.054.108-.112.156-.173a.278.278 0 0 0-.021-.057.33.33 0 0 0-.041-.05c-.971-.944-2.084-1.277-3.384-.826a5.277 5.277 0 0 0-1.664.909zm18.358.004a4.562 4.562 0 0 1-1.041.815 5.734 5.734 0 0 1-1.519.64 3.304 3.304 0 0 1-2.589-.368 4.226 4.226 0 0 1-1.235-1.091c.67-.795 1.468-1.366 2.522-1.518.671-.097 1.309.038 1.931.282.596.231 1.152.56 1.645.972.092.083.183.177.285.269zm-.627.02a5.328 5.328 0 0 0-1.692-.935c-1.244-.435-2.332-.147-3.29.733-.061.057-.11.125-.178.2.5.52 1.061.899 1.748 1.038 1.297.261 2.349-.298 3.413-1.036h-.001zM9.111 22.267c.037.094.08.181.11.272.468 1.642.159 3.06-1.164 4.189a6.01 6.01 0 0 1-1.811 1.069c-.099.038-.204.059-.347.099-.047-.29-.11-.558-.133-.823a6.043 6.043 0 0 1 .167-2.092c.379-1.422 1.339-2.232 2.688-2.628.11-.034.231-.056.348-.079.047-.005.094-.008.142-.008zm-2.895 5.05a2.08 2.08 0 0 0 .232-.073 5.066 5.066 0 0 0 1.777-1.297c.798-.924.919-1.992.605-3.144a.42.42 0 0 0-.117-.008c-.915.252-1.665.74-2.107 1.618-.452.902-.491 1.872-.39 2.903zm9.218.6c-.293-.112-.556-.205-.808-.321a5.64 5.64 0 0 1-1.621-1.131c-.953-.946-1.247-2.099-1.002-3.411.049-.265.134-.522.213-.821.268.068.5.112.722.188 1.508.51 2.379 1.562 2.599 3.17.089.62.086 1.25-.008 1.869-.022.138-.056.274-.094.458zm-2.916-5.158c-.329 1.248-.182 2.344.673 3.272a5.265 5.265 0 0 0 1.625 1.18c.091.038.184.07.279.097a.88.88 0 0 0 .045-.143 5.353 5.353 0 0 0-.219-2.311c-.389-1.15-1.237-1.775-2.403-2.095zm-2.239-11.208c-.52.529.287 1.353.808.823s-.287-1.354-.808-.823zm.023-2.054c-.521.529.287 1.353.808.823s-.287-1.353-.808-.823zm-2.019 0c-.52.529.287 1.353.808.823s-.287-1.353-.808-.823zm1.996-2.055c-.52.53.287 1.354.808.823s-.287-1.353-.808-.823zm2.042 2.055c-.521.529.287 1.353.808.823s-.287-1.353-.808-.823zm4.995 5.723c-.712-.189-1.001.938-.287 1.126s1.001-.938.287-1.126zm1.753-1.02c-.713-.189-1.002.937-.288 1.126s1.001-.936.288-1.126zm-1.022-1.771c-.712-.189-1.001.936-.288 1.126s1.002-.938.288-1.126zm2.752.712c-.713-.189-1.002.936-.288 1.126s1.001-.937.288-1.126zm2.607-2.919c-.713-.189-1.002.937-.288 1.127s1.001-.937.288-1.127zm-2.759-.994c-.713-.189-1.002.937-.288 1.126s1.001-.936.288-1.126zm3.734-1.403c-.712-.19-1.001.936-.288 1.126s1.001-.938.288-1.126zm2.378.819c-.712-.19-1.001.936-.287 1.126s1.001-.937.287-1.126zm-6.669 7.328c-.712-.189-1.001.938-.288 1.126s1.002-.938.288-1.126zm-2.324 7.28c-.201-.72-1.301-.404-1.097.317s1.299.405 1.097-.317zm1.755 1.024c-.201-.721-1.302-.405-1.097.317s1.295.407 1.097-.317zm.987-1.794c-.201-.721-1.302-.405-1.097.317s1.293.405 1.097-.317zm3.303.492c-.201-.721-1.301-.405-1.097.317s1.303.405 1.097-.317zm2.408 1.032c-.201-.721-1.302-.405-1.097.317s1.297.405 1.097-.317zm2.081-1.898c-.201-.72-1.301-.404-1.097.317s1.297.405 1.097-.317zm-7.008 3.149c-.201-.72-1.302-.404-1.097.317s1.3.405 1.097-.317zm-2.758.812c-.201-.721-1.302-.405-1.097.317s1.297.4 1.097-.317zm-7.497 1.65c.52-.53-.291-1.353-.81-.821s.291 1.353.81.821zm-.019 2.054c.52-.531-.29-1.353-.81-.821s.291 1.353.81.821zm2.02-.004c.52-.531-.291-1.353-.81-.821s.291 1.353.81.821zm-1.992 2.059c.52-.531-.29-1.353-.81-.821s.293 1.353.81.821zm-2.045-2.05c.519-.53-.291-1.353-.81-.821s.29 1.353.81.821zm-5.085-5.834c.71.2 1.016-.921.305-1.116s-1.014.916-.305 1.116zm-1.768.994c.71.2 1.016-.922.305-1.122s-1.014.922-.305 1.122zm.996 1.786c.71.2 1.016-.922.305-1.116s-1.016.916-.305 1.116zm-2.74-.754c.71.2 1.016-.921.305-1.122s-1.016.922-.305 1.122zm.75-2.821c.71.2 1.016-.922.305-1.116s-1.02.916-.305 1.116zm2.387-7.144c.2.721 1.301.407 1.097-.315s-1.295-.407-1.097.315zm58.722.858a5.734 5.734 0 0 0-3.446.748c-.045-1.228-.359-2.358-1.086-3.401-.405.494-.631 1.042-.812 1.614a5.028 5.028 0 0 0-.268 1.801c-1.097-.612-2.214-.883-3.46-.763a4.89 4.89 0 0 0 .968 1.516c.388.461.858.843 1.385 1.126-1.051.657-1.833 1.501-2.339 2.605.616.276 2.091-.02 3.423-.68.035 1.228.355 2.353 1.054 3.357.548-.446 1.01-1.81 1.133-3.359a5.767 5.767 0 0 0 3.378.757c-.103-.727-1.136-1.927-2.277-2.66a5.997 5.997 0 0 0 2.346-2.661zm-.591 4.938c-.035.026-.05.046-.068.048a.608.608 0 0 1-.128.008 5.906 5.906 0 0 1-1.915-.429 2.471 2.471 0 0 1-1.043-.752 2.391 2.391 0 0 1-.341-.66c-.077-.223-.021-.31.2-.361a1.95 1.95 0 0 1 .604-.05 2.37 2.37 0 0 1 1.132.446 5.736 5.736 0 0 1 1.484 1.585c.029.053.054.108.076.164zm-7.944.085c.036-.087.077-.173.122-.256a5.84 5.84 0 0 1 1.38-1.509 2.411 2.411 0 0 1 1.239-.521c.224-.003.447.022.665.075a.182.182 0 0 1 .136.086.183.183 0 0 1 .013.161 2.502 2.502 0 0 1-.219.573 2.07 2.07 0 0 1-.982.827c-.441.176-.894.32-1.355.431-.33.064-.662.108-.997.133zm3.948 2.278c-.126-.294-.254-.558-.352-.83-.231-.643-.397-1.299-.32-1.993.047-.422.159-.818.457-1.135.219-.223.31-.223.529.006a1.8 1.8 0 0 1 .447 1.104c.092.998-.207 1.903-.651 2.771-.011.021-.035.021-.112.078h.002zm-3.91-7.002c.319.035.599.049.877.098.651.112 1.288.286 1.838.686.294.213.559.459.704.8.219.507.151.644-.404.696-.458.045-.877-.112-1.262-.346-.718-.439-1.261-1.059-1.706-1.772a.766.766 0 0 1-.049-.163h.002zm7.877 0 .037.087c-.06.114-.128.223-.205.326-.336.386-.666.781-1.025 1.139a2.363 2.363 0 0 1-1.058.617 2.19 2.19 0 0 1-.762.097c-.499-.046-.572-.167-.384-.633.075-.195.193-.369.343-.511.256-.233.537-.437.837-.608.439-.243.93-.349 1.426-.429.257-.037.524-.052.79-.08l.002-.006zm-3.932-2.261c.027.011.056.014.064.029.472.906.781 1.854.648 2.902a1.72 1.72 0 0 1-.421.979c-.229.247-.329.249-.554 0a1.842 1.842 0 0 1-.439-1.139c-.079-.973.219-1.859.645-2.71.005-.02.032-.037.055-.055l.002-.006zm-.197 4.63c.099-.075.152-.146.201-.143s.11.075.136.13c.009.019-.068.112-.11.112s-.115-.041-.227-.098z"/><path d="M62.475 11.135a5.844 5.844 0 0 0-2.193 1.228c-.616.537-1.054 1.184-1.227 2-.17.796-.073 1.57.188 2.329a.292.292 0 0 0 .054.076c.773-.075 1.502-.399 2.081-.926s.976-1.229 1.135-2.002a6.132 6.132 0 0 0 .014-2.513l-.05-.191zm-2.862 5.124c-.034-.036-.057-.049-.061-.068-.319-1.196-.151-2.286.71-3.209.457-.483 1-.874 1.6-1.152.091-.043.19-.071.308-.112.11.955.068 1.848-.286 2.698-.43 1.022-1.248 1.573-2.27 1.843zm-6.651-5.125a5.62 5.62 0 0 0-.14 2.026c.029.284.078.565.147.842.289 1.179 1.007 1.993 2.099 2.462.334.144.692.233 1.055.353.042-.071.079-.146.11-.223.209-.614.28-1.267.208-1.913a3.4 3.4 0 0 0-.933-1.981 5.73 5.73 0 0 0-2.545-1.565zm.318.551c.928.421 1.711.933 2.256 1.748.58.869.615 1.82.348 2.799-.041.009-.064.022-.081.017-1.23-.335-2.084-1.068-2.418-2.353a4.893 4.893 0 0 1-.11-.549 5.714 5.714 0 0 1 .005-1.662zm7.558 7.837c.694.814 1.492 1.377 2.53 1.527a3.57 3.57 0 0 0 1.685-.199 5.771 5.771 0 0 0 2.145-1.295c0-.035 0-.064-.013-.075a5.328 5.328 0 0 0-2.961-1.492c-.799-.119-1.542.077-2.228.501a4.47 4.47 0 0 0-1.158 1.032zm5.734-.015c-.4.375-1.01.704-1.664.932-1.246.433-2.332.146-3.29-.734a1.99 1.99 0 0 1-.155-.176.656.656 0 0 1 .021-.057.287.287 0 0 1 .041-.051c.971-.944 2.084-1.277 3.385-.826.602.201 1.165.51 1.66.913h.002zm-18.359.004c.306.322.657.596 1.041.815.475.287.988.502 1.523.64.434.118.887.146 1.332.082s.873-.217 1.259-.451a4.239 4.239 0 0 0 1.235-1.091c-.671-.795-1.47-1.366-2.522-1.518-.67-.097-1.309.038-1.931.282a5.883 5.883 0 0 0-1.645.972c-.098.083-.187.177-.291.269zm.626.02a5.328 5.328 0 0 1 1.692-.935c1.245-.435 2.332-.147 3.29.733.061.057.11.125.178.2-.5.52-1.059.899-1.748 1.038-1.291.261-2.351-.298-3.412-1.036zm10.442 2.736c-.041.089-.078.18-.11.272-.468 1.642-.16 3.06 1.163 4.189.538.46 1.151.822 1.811 1.069.1.038.204.059.347.099.048-.29.11-.558.133-.823a6.019 6.019 0 0 0-.167-2.092c-.379-1.422-1.339-2.232-2.688-2.628-.11-.034-.231-.056-.348-.079a1.314 1.314 0 0 0-.14-.008zm2.895 5.05a2.165 2.165 0 0 1-.233-.073 5.057 5.057 0 0 1-1.777-1.297c-.8-.924-.92-1.992-.606-3.144a.42.42 0 0 1 .117-.008c.915.252 1.665.74 2.107 1.618.453.902.493 1.872.392 2.903zm-9.218.6c.293-.112.557-.205.808-.321a5.642 5.642 0 0 0 1.617-1.131c.953-.946 1.247-2.099 1.003-3.411-.049-.265-.135-.522-.213-.821-.269.068-.501.112-.723.188-1.507.51-2.379 1.562-2.598 3.17a6.302 6.302 0 0 0 .008 1.865c.025.143.059.279.098.462zm2.916-5.158c.329 1.248.183 2.344-.673 3.272a5.249 5.249 0 0 1-1.625 1.18c-.091.038-.184.07-.279.097a.88.88 0 0 1-.045-.143 5.353 5.353 0 0 1 .219-2.311c.389-1.15 1.238-1.775 2.403-2.095zm2.239-11.208c.521.529-.287 1.353-.808.823s.287-1.354.808-.823zm-.023-2.054c.521.529-.287 1.353-.808.823s.287-1.353.808-.823zm2.019 0c.521.529-.287 1.353-.808.823s.287-1.353.808-.823zm-1.996-2.055c.521.53-.287 1.354-.808.823s.287-1.353.808-.823zm-2.041 2.055c.52.529-.288 1.353-.809.823s.287-1.353.809-.823zm-4.996 5.723c.712-.189 1.001.938.288 1.126s-1.002-.938-.288-1.126zm-1.752-1.02c.712-.189 1.001.937.287 1.126s-1.001-.936-.287-1.126zm1.021-1.771c.712-.189 1.001.936.288 1.126s-1.001-.938-.288-1.126zm-2.748.712c.713-.189 1.002.936.288 1.126s-1.005-.937-.288-1.126zm-2.609-2.919c.712-.189 1.001.937.287 1.127s-1.001-.937-.287-1.127zm2.758-.994c.712-.189 1.001.937.287 1.126s-1.001-.936-.287-1.126zm-3.735-1.403c.713-.19 1.002.936.288 1.126s-1.001-.938-.288-1.126zm-2.378.819c.712-.19 1.001.936.288 1.126s-1.002-.937-.288-1.126zm6.669 7.328c.712-.189 1.001.938.288 1.126s-1.001-.938-.288-1.126zm2.323 7.28c.201-.72 1.301-.404 1.097.317s-1.297.405-1.097-.317zm-1.752 1.024c.201-.721 1.302-.405 1.097.317s-1.297.407-1.097-.317zm-.985-1.794c.201-.721 1.302-.405 1.097.317s-1.297.405-1.097-.317zm-3.307.492c.201-.721 1.302-.405 1.097.317s-1.297.405-1.097-.317zm-2.408 1.032c.201-.721 1.302-.405 1.097.317s-1.297.405-1.097-.317zm-2.081-1.898c.201-.72 1.302-.404 1.097.317s-1.297.405-1.097-.317zm7.008 3.149c.201-.72 1.302-.404 1.097.317s-1.297.405-1.097-.317zm2.758.812c.201-.721 1.302-.405 1.097.317s-1.297.4-1.097-.317zm7.499 1.65c-.519-.53.291-1.353.81-.821s-.293 1.353-.81.821zm.017 2.054c-.52-.531.291-1.353.81-.821s-.291 1.353-.81.821zm-2.019-.004c-.519-.531.291-1.353.81-.821s-.291 1.353-.81.821zm1.991 2.059c-.52-.531.291-1.353.81-.821s-.291 1.353-.81.821zm2.047-2.05c-.52-.53.29-1.353.81-.821s-.291 1.353-.81.821zm5.083-5.834c-.709.2-1.015-.921-.304-1.116s1.015.916.304 1.116zm1.765.994c-.71.2-1.016-.922-.305-1.122s1.019.922.305 1.122zm-.987 1.786c-.708.2-1.015-.922-.305-1.116s1.01.916.305 1.116zm2.735-.754c-.71.2-1.016-.921-.305-1.122s1.015.922.305 1.122zm-.751-2.821c-.708.2-1.015-.922-.305-1.116s1.016.916.305 1.116zm-2.387-7.144c-.198.721-1.301.407-1.097-.315s1.296-.407 1.097.315z"/></symbol><symbol id="icon-close" viewBox="0 0 32 32"><path d="m26.667 7.303-1.97-1.97-7.808 7.808-7.808-7.808-1.97 1.97 7.808 7.808-7.808 7.808 1.97 1.97 7.808-7.808 7.808 7.808 1.97-1.97-7.808-7.808 7.808-7.808z"/></symbol><symbol id="icon-Twitter" viewBox="0 0 38 32"><path d="M37.647 4.141a15.273 15.273 0 0 1-4.436 1.233 7.823 7.823 0 0 0 3.395-4.33 15.348 15.348 0 0 1-4.905 1.9A7.663 7.663 0 0 0 26.064.472c-4.266 0-7.723 3.505-7.723 7.827 0 .613.07 1.212.2 1.783-6.419-.326-12.109-3.442-15.92-8.179A7.888 7.888 0 0 0 1.577 5.84a7.852 7.852 0 0 0 3.434 6.514 7.62 7.62 0 0 1-3.498-.979v.098c0 3.793 2.661 6.957 6.196 7.674a7.632 7.632 0 0 1-3.488.135c.983 3.109 3.836 5.373 7.215 5.437a15.36 15.36 0 0 1-9.592 3.351 15.38 15.38 0 0 1-1.843-.11 21.656 21.656 0 0 0 11.84 3.516c14.207 0 21.974-11.927 21.974-22.27 0-.339-.007-.676-.022-1.012a15.844 15.844 0 0 0 3.856-4.051z"/></symbol><symbol id="icon-location" viewBox="0 0 28 32"><path d="M14 2.477c3.022 0 5.921 1.142 8.058 3.175s3.338 4.79 3.338 7.664c0 4.199-2.869 8.258-5.992 11.393A40.928 40.928 0 0 1 14 29.242a40.928 40.928 0 0 1-5.404-4.533c-3.123-3.135-5.992-7.194-5.992-11.393 0-2.875 1.201-5.631 3.338-7.664S10.977 2.477 14 2.477zm0 28.285c.722 1.031.723 1.03.723 1.03l.004-.003.009-.006.032-.021.116-.076a38.475 38.475 0 0 0 1.911-1.362 43.568 43.568 0 0 0 4.499-3.912C24.52 23.173 28 18.51 28 13.315c0-3.532-1.475-6.919-4.101-9.416S17.713-.001 14-.001s-7.274 1.403-9.899 3.9C1.475 6.396 0 9.783 0 13.315c0 5.195 3.479 9.858 6.706 13.097a43.568 43.568 0 0 0 5.986 4.988c.181.124.324.22.424.286l.116.076.032.021.012.008s.002.001.724-1.029zm0 0-.724 1.029c.437.277 1.01.278 1.447.001L14 30.762zm0-20.233c1.618 0 2.93 1.248 2.93 2.787s-1.312 2.787-2.93 2.787-2.93-1.248-2.93-2.787 1.312-2.787 2.93-2.787zm5.535 2.787c0-2.908-2.478-5.265-5.535-5.265s-5.535 2.357-5.535 5.265c0 2.908 2.478 5.265 5.535 5.265s5.535-2.357 5.535-5.265z"/></symbol><symbol id="icon-mobile-menu" viewBox="0 0 57 32"><path d="M2.526 0h52.211a2.526 2.526 0 0 1 0 5.052H2.526a2.526 2.526 0 0 1 0-5.052zm0 13.474h52.211a2.526 2.526 0 0 1 0 5.052H2.526a2.526 2.526 0 0 1 0-5.052zm0 13.473h52.211a2.526 2.526 0 0 1 0 5.052H2.526a2.526 2.526 0 0 1 0-5.052z"/></symbol><symbol id="icon-phone" viewBox="0 0 32 32"><path d="M27.506 21.284c-1.659 0-3.457-.276-4.978-.829h-.415c-.415 0-.691.138-.968.415l-3.042 3.042c-3.872-2.074-7.19-5.254-9.126-9.126l3.042-3.042c.415-.415.553-.968.277-1.383-.415-1.521-.691-3.319-.691-4.978 0-.691-.691-1.383-1.383-1.383h-4.84c-.691 0-1.383.691-1.383 1.383 0 12.998 10.509 23.506 23.506 23.506.691 0 1.383-.691 1.383-1.383v-4.839c0-.691-.691-1.383-1.383-1.383zM6.765 6.765h2.074c.138 1.244.415 2.489.691 3.595l-1.659 1.659c-.553-1.659-.968-3.457-1.106-5.254zm19.358 19.358c-1.797-.138-3.595-.553-5.254-1.106l1.659-1.659c1.106.276 2.351.553 3.595.553v2.212zm-5.53-9.679h2.765a6.913 6.913 0 0 0-6.914-6.914v2.765a4.148 4.148 0 0 1 4.148 4.148zm5.53 0h2.765A12.418 12.418 0 0 0 16.444 4v2.765c5.337 0 9.679 4.328 9.679 9.679z"/></symbol><symbol id="icon-rhombus" viewBox="0 0 32 32"><path d="M0 15.328 15.328 0l15.328 15.328-15.328 15.328L0 15.328z"/></symbol><symbol id="icon-envelope" viewBox="0 0 43 32"><path d="M38.667 0H4C1.794 0 0 1.794 0 4v24c0 2.206 1.794 4 4 4h34.667c2.206 0 4-1.794 4-4V4c0-2.206-1.794-4-4-4zm0 2.667c.181 0 .353.038.511.103L21.334 18.236 3.49 2.77a1.32 1.32 0 0 1 .511-.103h34.667zm0 26.666H4A1.334 1.334 0 0 1 2.667 28V5.587L20.46 21.008a1.335 1.335 0 0 0 1.748 0L40.001 5.587V28c0 .736-.598 1.333-1.333 1.333z"/></symbol></defs></svg>