<svg width="14" height="16" viewBox="0 0 14 16" fill="none" xmlns="http://www.w3.org/2000/svg">
<path fill-rule="evenodd" clip-rule="evenodd" d="M7 1.23872C8.51112 1.23872 9.96034 1.80969 11.0289 2.82602C12.0974 3.84236 12.6977 5.2208 12.6977 6.65811C12.6977 8.75757 11.263 10.7872 9.70171 12.3548C8.93437 13.1252 8.16482 13.7557 7.58638 14.1938C7.35543 14.3687 7.15578 14.5124 7 14.6213C6.84422 14.5124 6.64457 14.3687 6.41362 14.1938C5.83518 13.7557 5.06563 13.1252 4.2983 12.3548C2.73699 10.7872 1.30233 8.75757 1.30233 6.65811C1.30233 5.2208 1.90262 3.84236 2.97114 2.82602C4.03966 1.80969 5.48888 1.23872 7 1.23872ZM7 15.3808C7.3612 15.8961 7.36137 15.896 7.36156 15.8959L7.3635 15.8946L7.36811 15.8917L7.38408 15.8814C7.39768 15.8726 7.41714 15.86 7.44205 15.8436C7.49188 15.8107 7.56359 15.7628 7.65405 15.7007C7.83491 15.5765 8.09113 15.395 8.39763 15.1628C9.0096 14.6993 9.82726 14.0299 10.6471 13.2067C12.2602 11.5871 14 9.25546 14 6.65811C14 4.89227 13.2625 3.19875 11.9497 1.95012C10.637 0.701478 8.85652 0 7 0C5.14348 0 3.36301 0.701478 2.05025 1.95012C0.737497 3.19875 -6.35783e-07 4.89227 -6.35783e-07 6.65811C-6.35783e-07 9.25546 1.73975 11.5871 3.35287 13.2067C4.17274 14.0299 4.9904 14.6993 5.60237 15.1628C5.90887 15.395 6.16509 15.5765 6.34595 15.7007C6.43641 15.7628 6.50812 15.8107 6.55795 15.8436C6.58286 15.86 6.60232 15.8726 6.61592 15.8814L6.63189 15.8917L6.6365 15.8946L6.63794 15.8955C6.63813 15.8957 6.6388 15.8961 7 15.3808ZM7 15.3808L6.63794 15.8955C6.85666 16.0342 7.14283 16.0346 7.36156 15.8959L7 15.3808ZM7 5.26455C7.80916 5.26455 8.46512 5.88847 8.46512 6.65811C8.46512 7.42775 7.80916 8.05167 7 8.05167C6.19084 8.05167 5.53488 7.42775 5.53488 6.65811C5.53488 5.88847 6.19084 5.26455 7 5.26455ZM9.76744 6.65811C9.76744 5.20435 8.52842 4.02584 7 4.02584C5.47158 4.02584 4.23256 5.20435 4.23256 6.65811C4.23256 8.11188 5.47158 9.29039 7 9.29039C8.52842 9.29039 9.76744 8.11188 9.76744 6.65811Z" fill="#3D2C23"/>
</svg>
