<svg width="157" height="73" viewBox="0 0 157 73" fill="none" xmlns="http://www.w3.org/2000/svg">
<path d="M48.7047 39.9727C48.7651 37.0855 49.8778 34.6388 51.7131 32.4619C55.7412 27.6779 61.0508 25.0275 66.8588 23.2351C67.5335 23.0263 67.5914 22.8048 67.3623 22.1683C66.4363 19.6658 66.3805 16.919 67.2042 14.3802C68.0279 11.8414 69.6819 9.66194 71.8939 8.20072C72.5585 7.75771 72.5913 7.38344 72.3445 6.72911C71.6005 4.66694 70.204 2.91093 68.3718 1.73378C68.0622 1.53264 67.7475 1.34678 67.6896 0.929233C67.6597 0.777494 67.6771 0.620131 67.7393 0.478792C67.8015 0.337452 67.9055 0.219081 68.037 0.139961C68.4197 -0.114642 68.7923 0.0228437 69.1397 0.244349C71.2595 1.58611 72.8455 3.40907 73.7116 5.77944C74.0439 6.69092 74.3057 6.96589 75.3278 6.64C77.5477 5.94467 79.929 5.98392 82.1253 6.75202C82.7118 6.94807 82.8805 6.81822 83.0719 6.26573C83.9011 3.8095 85.5355 1.71368 87.7042 0.325822C88.0642 0.0864947 88.4317 -0.137557 88.8698 0.104317C89.5218 0.45567 89.4413 1.17365 88.6608 1.68541C86.9182 2.81894 85.5532 4.45662 84.7435 6.38539C84.3508 7.28924 84.449 7.76789 85.3175 8.36621C87.4428 9.84429 89.0204 11.9965 89.8009 14.4827C90.5815 16.9689 90.5205 19.6472 89.6276 22.0944C89.3607 22.8379 89.5218 23.0518 90.2192 23.2605C95.0277 24.7041 99.4838 26.8555 103.232 30.2876C105.569 32.4288 107.512 34.8705 108.109 38.1421C108.675 41.2279 107.814 43.9522 106.095 46.4677C105.217 47.7167 104.203 48.8627 103.074 49.8844C102.876 50.0727 102.643 50.2183 102.388 50.3124C102.133 50.4066 101.862 50.4472 101.591 50.4318C98.6102 50.3784 95.9819 49.2938 93.5575 47.6312C92.7519 47.0922 91.9846 46.4966 91.2615 45.849C90.7126 45.3398 90.6094 45.518 90.4433 46.129C89.0911 51.3507 86.1601 56.0148 82.0598 59.4703C81.1535 60.2341 80.1691 60.8986 79.1999 61.5784C78.6712 61.9501 78.2835 61.9323 77.7447 61.5784C72.0701 57.9002 68.3316 52.7801 66.529 46.2182C66.2772 45.2888 66.0607 45.5205 65.5421 45.9635C62.8735 48.2703 59.9204 49.971 56.3455 50.3886C55.1093 50.5337 54.1501 50.2714 53.2514 49.332C51.0611 47.0405 49.2359 44.5887 48.755 41.3374C48.7298 41.1566 48.6946 40.9733 48.687 40.79C48.6946 40.5176 48.7047 40.2401 48.7047 39.9727ZM91.3874 25.4603C91.3471 25.3101 91.2615 25.3126 91.1557 25.3916L91.3194 25.5418C92.7846 27.0694 94.2398 28.6199 95.7176 30.1399C99.0743 33.5805 102.431 37.0125 105.788 40.4361C105.987 40.6372 106.125 40.9453 106.52 40.9657C106.562 40.859 106.591 40.748 106.609 40.6347C106.634 40.2379 106.634 39.8399 106.609 39.4431C106.261 35.4535 103.749 32.8438 100.954 30.4276C100.089 29.743 99.1706 29.1308 98.2074 28.597C96.0524 27.2935 93.8369 26.1197 91.3874 25.4603ZM65.5522 25.4603C65.3183 25.5056 65.0872 25.5643 64.8598 25.636C61.2144 27.0007 57.8107 28.8313 54.8828 31.4206C52.8687 33.1875 51.2474 35.26 50.5878 37.9461C50.336 38.9645 50.1523 39.9829 50.5274 41.3298C50.6933 41.0566 50.8766 40.7946 51.0762 40.5456C53.7196 37.7806 56.3933 35.0563 59.0518 32.3346C61.2471 30.0788 63.4651 27.8434 65.6554 25.58C65.6906 25.5061 65.887 25.4909 65.7385 25.3585C65.7234 25.333 65.6227 25.4145 65.5622 25.4603H65.5522ZM69.039 21.8322C75.343 16.9981 81.6369 16.9981 87.9207 21.8322C89.7358 18.2321 88.3915 12.9211 84.9348 10.1204C83.0784 8.63958 80.7794 7.84059 78.415 7.85447C76.0506 7.86835 73.761 8.69427 71.9216 10.1968C68.533 13.0356 67.2188 18.3747 69.0491 21.8246L69.039 21.8322ZM78.4119 44.9553C81.652 44.9553 84.8921 44.9553 88.1322 44.9553C88.4569 44.9553 88.8874 45.1641 89.0863 44.6829C89.1819 44.4747 89.2091 44.2409 89.1638 44.016C89.1184 43.791 89.0031 43.5866 88.8345 43.4328C87.3246 41.7563 86.0296 39.8941 84.9802 37.8901C84.9227 37.7345 84.8166 37.6021 84.6781 37.513C84.5395 37.4239 84.376 37.3829 84.2123 37.3961C80.399 37.4097 76.5841 37.4097 72.7675 37.3961C72.6039 37.3794 72.4393 37.4152 72.297 37.4983C72.1547 37.5815 72.0418 37.7079 71.9745 37.8595C70.8993 39.912 69.573 41.8195 68.0269 43.5372C67.7097 43.8936 67.745 44.2475 67.8658 44.6447C68.0118 45.1259 68.4071 44.9528 68.7041 44.9528C71.9442 44.9528 75.1843 44.9477 78.4219 44.9477L78.4119 44.9553ZM78.4647 46.6128C75.348 46.6128 72.2338 46.6128 69.117 46.6128C68.5581 46.6128 68.3618 46.6866 68.5707 47.318C69.3592 49.6322 70.4743 51.8189 71.8813 53.8104C71.9782 53.9623 72.1143 54.0843 72.275 54.1634C72.4357 54.2424 72.6148 54.2753 72.7927 54.2585C76.5438 54.2433 80.2941 54.2433 84.0436 54.2585C84.2811 54.2706 84.5172 54.2161 84.726 54.1011C84.9347 53.9861 85.1081 53.815 85.2269 53.6068C86.5397 51.6906 87.5954 49.6067 88.3663 47.4097C88.5878 46.7808 88.5526 46.5822 87.82 46.5899C84.7057 46.6255 81.589 46.6052 78.4748 46.6052L78.4647 46.6128ZM66.4258 34.9774L66.101 34.7814C65.4565 35.5095 64.7868 36.2148 64.1751 36.9709C63.9115 37.3274 63.5593 37.6069 63.1542 37.7809C62.7491 37.9548 62.3056 38.0171 61.869 37.9614C61.2925 37.9028 60.9476 38.137 60.6102 38.6259C58.6943 41.4825 56.7332 44.3086 54.8022 47.1525C54.6159 47.4275 54.1627 47.6847 54.4195 48.0691C54.6763 48.4536 55.0791 48.8762 55.6909 48.7744C56.3455 48.6649 57.0151 48.6267 57.6571 48.4739C60.9299 47.7101 63.4928 45.7675 65.8392 43.4582C65.9209 43.391 65.988 43.3074 66.0365 43.2128C66.085 43.1182 66.1138 43.0146 66.1211 42.9083C66.2286 40.2604 66.3335 37.6142 66.4358 34.9698L66.4258 34.9774ZM90.8184 39.2802C90.8184 40.4106 90.8184 41.5385 90.8184 42.669C90.8145 42.8352 90.8468 43.0002 90.9129 43.1525C90.979 43.3047 91.0774 43.4404 91.2011 43.5499C92.655 45.0241 94.3109 46.2794 96.1178 47.2773C97.6706 48.1077 99.3709 48.6183 101.12 48.7795C101.391 48.8148 101.666 48.7704 101.913 48.6516C102.159 48.5329 102.366 48.3448 102.51 48.1099C102.825 47.649 102.316 47.4021 102.12 47.1144C100.247 44.3366 98.3434 41.5869 96.4703 38.8041C96.0801 38.2236 95.6798 37.8672 94.9447 37.9537C94.1038 38.053 93.4341 37.7144 92.8727 37.0601C92.48 36.5967 92.0167 36.1969 91.5862 35.7692C91.3723 35.5579 91.3143 35.5146 91.0827 35.5732C90.7731 35.6266 90.8108 36.0187 90.8058 36.2911C90.8058 37.3248 90.7504 39.2726 90.8285 39.2726L90.8184 39.2802ZM78.4823 35.7285C80.0558 35.7285 81.6293 35.7056 83.2003 35.7285C83.7717 35.7412 83.885 35.5172 83.734 35.0334C83.6534 34.7788 83.5527 34.5242 83.452 34.2696C82.6288 32.1946 82.2083 30.061 82.586 27.8256C82.6514 27.4335 82.5683 27.2502 82.1806 27.2069C79.7428 26.9485 77.2849 26.9485 74.847 27.2069C74.5172 27.24 74.2579 27.3393 74.3989 27.7848C74.6229 28.513 74.4769 29.2564 74.4366 29.9923C74.3346 31.7004 73.9456 33.3785 73.2861 34.9545C72.9865 35.6826 73.1753 35.7336 73.7644 35.731L78.4823 35.7285ZM86.4504 23.0441C82.4903 18.6878 73.8047 19.1359 70.5772 23.067C71.7932 23.5431 72.843 24.2458 73.5228 25.3916C73.7065 25.6971 73.9482 25.6793 74.2252 25.6462C77.0428 25.2592 79.8992 25.2592 82.7169 25.6462C82.9686 25.6818 83.2481 25.7607 83.4344 25.4425C84.1267 24.2408 85.1992 23.5279 86.4479 23.0365L86.4504 23.0441ZM99.3353 36.2835C99.3353 36.3344 99.3579 36.2555 99.3353 36.2224C97.1433 33.9479 94.9472 31.6769 92.7468 29.4092C91.619 28.2482 90.4231 27.1458 89.3406 25.9415C87.83 24.2713 86.823 24.1593 85.3528 25.6869C85.3331 25.7102 85.3121 25.7323 85.2898 25.7531C84.7863 26.2241 84.7234 26.6111 85.2898 27.1662C88.2203 30.033 91.1104 32.9482 94.0157 35.843C94.2045 36.0315 94.3681 36.2861 94.6753 36.2861C96.2236 36.2708 97.7794 36.2682 99.3328 36.2682L99.3353 36.2835ZM57.5438 36.2988C57.5841 36.365 57.6244 36.4286 57.6621 36.4948C58.8983 36.4388 60.1319 36.337 61.3655 36.3446C61.7385 36.3708 62.1122 36.3055 62.455 36.1544C62.7977 36.0032 63.0993 35.7706 63.3342 35.4764C63.873 34.8297 64.5275 34.2849 65.1242 33.6942C67.3547 31.469 69.5702 29.2284 71.8209 27.0236C72.2237 26.6289 72.2161 26.3565 71.8813 25.967C71.3575 25.372 70.6957 24.9179 69.9554 24.6456C69.7314 24.5301 69.4745 24.4978 69.2293 24.554C68.9842 24.6103 68.7663 24.7517 68.6135 24.9536C66.3301 27.3418 64.0064 29.6918 61.6978 32.0545L57.5438 36.2988ZM72.7574 28.4901C71.3652 29.5798 70.3355 30.919 69.0969 32.024C68.7458 32.3262 68.4677 32.7056 68.284 33.1332C68.1003 33.5609 68.0158 34.0253 68.037 34.4911C68.0219 35.9551 67.9665 37.419 67.9388 38.883C67.9262 39.5323 67.9388 40.184 67.9388 40.9198C70.6351 37.8417 73.3365 32.1156 72.7574 28.4901ZM84.0562 28.3501C84.0562 33.3708 86.2364 37.2128 88.9705 40.8384C89.0489 40.5362 89.0795 40.2234 89.0611 39.9116C89.0007 38.1421 88.8522 36.3701 88.9 34.6031C88.9302 33.5593 88.7918 32.7674 87.9257 32.0724C86.604 31.0158 85.6373 29.5747 84.0562 28.3501ZM98.0589 38.1905C99.9496 40.9555 101.8 43.6645 103.655 46.3709C103.907 46.7299 104.061 46.4422 104.199 46.264C104.813 45.4697 105.349 44.6171 105.8 43.7179C106.032 43.2546 105.989 42.9669 105.624 42.6053C104.305 41.2967 103.018 39.9549 101.719 38.6284C101.531 38.4324 101.349 38.2032 101.047 38.2007C100.093 38.1905 99.1389 38.1905 98.0589 38.1905ZM58.9234 38.1905H56.0736C55.9379 38.1922 55.8042 38.2228 55.681 38.2803C55.5578 38.3378 55.4479 38.4208 55.3586 38.524C54.0024 39.9226 52.643 41.3162 51.2801 42.7046C51.046 42.9439 50.9277 43.168 51.0888 43.5143C51.5532 44.5118 52.1302 45.4516 52.8083 46.3149C53.06 46.6204 53.1935 46.5873 53.4024 46.2793C55.2151 43.611 57.0378 40.9529 58.9234 38.1905ZM73.6688 55.9466C74.9657 57.4043 76.4421 58.6878 78.0619 59.7656C78.2507 59.8929 78.4194 60.1017 78.7039 59.9133C80.4032 58.8129 81.945 57.4816 83.2859 55.9567L73.6688 55.9466Z" fill="#3D2C23"/>
<path fill-rule="evenodd" clip-rule="evenodd" d="M14.0731 38.4679C16.82 38.1969 19.5824 38.7929 21.9808 40.1738C22.0865 37.3731 22.804 34.794 24.4732 32.416C25.4021 33.5439 25.9208 34.794 26.3361 36.0976C26.793 37.4165 27.0013 38.8103 26.9504 40.2069C29.468 38.8117 32.0334 38.193 34.8933 38.4654C34.3721 39.7481 33.6181 40.9207 32.6703 41.9229C31.7806 42.9748 30.7016 43.8466 29.4907 44.4919C31.9025 45.9915 33.6975 47.9163 34.8606 50.4343C33.4457 51.0632 30.0596 50.3885 27.0058 48.8838C26.9253 51.6844 26.1876 54.2508 24.5839 56.5423C23.3126 55.5239 22.2653 52.4126 21.9858 48.8787C19.6313 50.2313 16.9277 50.8329 14.2292 50.6049C14.4659 48.9474 16.8374 46.2079 19.4557 44.5377C17.095 43.1125 15.218 40.9958 14.0731 38.4679V38.4679ZM15.4301 49.7342C15.5081 49.7927 15.5434 49.8386 15.5837 49.8436C15.681 49.8597 15.7797 49.8657 15.8782 49.8615C17.3864 49.7809 18.8714 49.4506 20.2739 48.8838C21.205 48.5295 22.0273 47.9332 22.658 47.155C22.9961 46.6985 23.2604 46.1906 23.441 45.6503C23.6172 45.1411 23.4888 44.9425 22.9828 44.828C22.529 44.7177 22.0611 44.6791 21.5956 44.7134C20.6573 44.8212 19.7625 45.1719 18.9975 45.7318C17.6487 46.7106 16.4983 47.9423 15.6088 49.3599C15.5395 49.4796 15.4797 49.6048 15.4301 49.7342V49.7342ZM33.6648 49.9277C33.5087 49.6018 33.4608 49.4643 33.3828 49.3446C32.534 48.0173 31.4601 46.852 30.2107 45.9024C29.3914 45.2441 28.4056 44.8321 27.3658 44.7134C26.8523 44.7063 26.3398 44.7636 25.8402 44.884C25.7769 44.89 25.7159 44.9109 25.6621 44.945C25.6082 44.9791 25.563 45.0254 25.53 45.0803C25.497 45.1352 25.4771 45.1971 25.4719 45.2612C25.4668 45.3252 25.4765 45.3896 25.5003 45.4492C25.6147 45.9038 25.7838 46.3424 26.0038 46.7553C26.5435 47.61 27.3366 48.2704 28.2696 48.6419C29.2798 49.0417 30.3161 49.3701 31.3713 49.6247C32.1294 49.7697 32.8952 49.8709 33.6648 49.9277V49.9277ZM24.6016 55.1241C24.8911 54.4545 25.1856 53.8511 25.4122 53.2299C25.9409 51.7634 26.321 50.2663 26.1448 48.6827C26.0391 47.7203 25.7798 46.8164 25.0975 46.0933C24.594 45.5841 24.3825 45.5841 23.8815 46.1061C23.2634 46.803 22.9016 47.6941 22.8569 48.6292C22.6454 50.9053 23.3327 52.9702 24.3548 54.951C24.3725 54.9943 24.4203 54.9943 24.6041 55.1241H24.6016ZM33.5792 39.1503C32.8466 39.2292 32.2046 39.2623 31.5651 39.3743C30.0697 39.6289 28.612 40.0261 27.3457 40.9402C26.671 41.4264 26.0617 41.9866 25.7294 42.7657C25.2259 43.9216 25.382 44.2347 26.6584 44.3544C27.7082 44.4562 28.6724 44.0998 29.5536 43.5651C31.2051 42.5645 32.4488 41.1489 33.4709 39.522C33.5208 39.4024 33.5579 39.2778 33.5817 39.1503H33.5792ZM15.4955 39.1503C15.4678 39.2165 15.4402 39.2827 15.4099 39.3489C15.5476 39.6086 15.705 39.8572 15.8807 40.0923C16.6511 40.9732 17.4089 41.8745 18.2346 42.6918C18.9095 43.367 19.7469 43.8523 20.6641 44.0998C21.234 44.2779 21.8306 44.3529 22.4264 44.3213C23.5719 44.2169 23.7431 43.9394 23.3075 42.8777C23.135 42.4346 22.8667 42.0361 22.522 41.7116C21.9322 41.1803 21.2874 40.7151 20.5986 40.324C19.5916 39.769 18.4637 39.5271 17.3258 39.3463C16.7216 39.2623 16.1123 39.2267 15.4981 39.163L15.4955 39.1503ZM24.521 33.992C24.4581 34.0175 24.3951 34.0251 24.3775 34.0582C23.2924 36.1256 22.5825 38.2872 22.8871 40.6779C22.9647 41.5082 23.3045 42.2911 23.8564 42.9108C24.38 43.4735 24.6116 43.4785 25.1151 42.9108C25.737 42.1876 26.0928 41.2693 26.1222 40.3113C26.3034 38.0911 25.6186 36.0696 24.6418 34.1295C24.6084 34.0825 24.5686 34.0404 24.5235 34.0047L24.521 33.992ZM24.9716 44.5555C24.7476 44.3849 24.6217 44.222 24.5109 44.2296C24.4001 44.2373 24.2592 44.4002 24.1987 44.525C24.1786 44.5683 24.3548 44.7796 24.4505 44.7796C24.5462 44.7796 24.7148 44.6854 24.9716 44.5555Z" fill="#3D2C23"/>
<path fill-rule="evenodd" clip-rule="evenodd" d="M13.5948 25.4019C15.4526 25.9588 17.17 26.914 18.6299 28.2025C20.0448 29.4271 21.0493 30.9038 21.4496 32.765C21.8017 34.5422 21.6516 36.3837 21.0166 38.0786C20.9844 38.1417 20.9438 38.2 20.8957 38.2517C19.118 38.085 17.44 37.3461 16.1083 36.1436C14.7765 34.9411 13.8611 33.3384 13.4966 31.5709C13.0868 29.6833 13.0757 27.7295 13.4639 25.8372C13.4916 25.715 13.5293 25.5954 13.5948 25.4019ZM20.1656 37.0907C20.2437 37.0092 20.2965 36.9787 20.3066 36.9354C21.0392 34.2061 20.654 31.7211 18.6778 29.6155C17.6257 28.5117 16.3758 27.62 14.9946 26.988C14.7831 26.8887 14.5565 26.8251 14.2846 26.7334C14.0329 28.9128 14.131 30.9497 14.9442 32.8872C15.9286 35.2194 17.8092 36.4746 20.153 37.0907H20.1656Z" fill="#3D2C23"/>
<path fill-rule="evenodd" clip-rule="evenodd" d="M35.4245 25.3992C35.812 26.9064 35.9221 28.4728 35.7493 30.0202C35.6853 30.6677 35.5734 31.3094 35.4145 31.9399C34.7473 34.6286 33.1008 36.4872 30.5959 37.5565C29.8255 37.8849 29.0048 38.0886 28.1715 38.361C28.0756 38.1976 27.9915 38.0274 27.9197 37.8518C27.4398 36.4516 27.2763 34.9604 27.4414 33.4879C27.6371 31.782 28.3913 30.1913 29.5838 28.9687C31.1871 27.2809 33.2015 26.0498 35.4245 25.3992V25.3992ZM34.6919 26.6569C32.5621 27.6168 30.7645 28.7854 29.5158 30.644C28.184 32.6274 28.1035 34.7966 28.7178 37.0295C28.8084 37.0498 28.8613 37.0804 28.9015 37.0677C31.7262 36.3038 33.6849 34.6311 34.4402 31.7006C34.547 31.2881 34.6311 30.8699 34.6919 30.448C34.877 29.1912 34.877 27.9137 34.6919 26.6569V26.6569Z" fill="#3D2C23"/>
<path fill-rule="evenodd" clip-rule="evenodd" d="M17.3409 44.5352C15.7473 46.3912 13.917 47.677 11.5329 48.0182C10.2258 48.1784 8.89973 48.0231 7.66342 47.565C5.8302 46.952 4.15017 45.9444 2.73907 44.6116C2.73907 44.5326 2.73907 44.4664 2.76929 44.441C4.62615 42.6136 7.00403 41.4228 9.56669 41.0369C11.4045 40.7645 13.1064 41.2126 14.6824 42.1801C15.6977 42.8022 16.5975 43.5992 17.3409 44.5352ZM4.17912 44.4995C5.09803 45.355 6.49779 46.1061 7.99826 46.6255C10.8582 47.6133 13.3506 46.959 15.5509 44.9502C15.6784 44.8266 15.7978 44.6948 15.9084 44.5555C15.8967 44.5108 15.8807 44.4673 15.8606 44.4257C15.8331 44.3847 15.8019 44.3463 15.7674 44.3111C13.5394 42.1572 10.9841 41.3985 7.99826 42.4271C6.6131 42.8818 5.31965 43.5837 4.17912 44.4995V44.4995Z" fill="#3D2C23"/>
<path fill-rule="evenodd" clip-rule="evenodd" d="M46.323 44.5098C45.6196 45.2428 44.8149 45.8688 43.9339 46.3684C42.8464 47.0204 41.6722 47.5117 40.4471 47.8273C39.451 48.0958 38.4119 48.1599 37.391 48.0156C36.3701 47.8713 35.3881 47.5215 34.5031 46.9871C33.4054 46.3537 32.4421 45.5076 31.6683 44.4971C33.2066 42.6843 35.0393 41.3807 37.4587 41.0344C38.9995 40.8129 40.4647 41.121 41.8921 41.6786C43.2613 42.2063 44.5366 42.9553 45.6685 43.8962C45.88 44.0846 46.0889 44.301 46.323 44.5098ZM44.883 44.5556C43.726 43.6133 42.4099 42.8904 40.9984 42.422C38.1435 41.4291 35.6461 42.086 33.4457 44.0948C33.3047 44.2246 33.194 44.3799 33.0379 44.5505C34.1859 45.737 35.4724 46.6026 37.0509 46.9183C40.0291 47.5141 42.4435 46.2385 44.8855 44.5556H44.883Z" fill="#3D2C23"/>
<path fill-rule="evenodd" clip-rule="evenodd" d="M20.9158 50.7959C21.0014 51.0098 21.0996 51.2084 21.1676 51.4171C22.2426 55.1624 21.5326 58.3984 18.4965 60.9724C17.2616 62.0235 15.8551 62.8489 14.34 63.4115C14.1134 63.4981 13.8717 63.5465 13.5444 63.6381C13.4362 62.9761 13.2927 62.3651 13.2398 61.7617C13.0869 60.1609 13.2165 58.5454 13.6225 56.9904C14.4936 53.7468 16.6964 51.8983 19.793 50.9945C20.0448 50.9181 20.3242 50.8672 20.5911 50.8137C20.6989 50.8016 20.8073 50.7957 20.9158 50.7959V50.7959ZM14.2695 62.3167C14.4501 62.2708 14.6282 62.2155 14.8032 62.1512C16.3598 61.4776 17.7518 60.4679 18.8817 59.1927C20.7144 57.0846 20.9914 54.6481 20.2714 52.0206C20.1828 52.0024 20.0921 51.9964 20.002 52.0027C17.9023 52.5781 16.1803 53.6908 15.1657 55.6945C14.1285 57.7517 14.0379 59.9642 14.2695 62.3167Z" fill="#3D2C23"/>
<path fill-rule="evenodd" clip-rule="evenodd" d="M35.4296 63.6865C34.7574 63.4318 34.1532 63.218 33.5742 62.9532C32.1945 62.3197 30.9352 61.4468 29.8532 60.3741C27.6654 58.215 26.9907 55.585 27.5522 52.5934C27.6654 51.99 27.8593 51.4018 28.0406 50.7195C28.6548 50.8748 29.1886 50.9741 29.6971 51.1472C33.1588 52.3108 35.1577 54.7117 35.6637 58.378C35.8681 59.7924 35.8622 61.2299 35.6461 62.6426C35.5958 62.9583 35.5177 63.2689 35.4296 63.6865ZM28.7354 51.9187C27.9801 54.7651 28.3175 57.2653 30.2812 59.3836C31.3434 60.5135 32.6099 61.4271 34.0122 62.0748C34.221 62.1609 34.4345 62.2349 34.6517 62.2963C34.6953 62.1909 34.7298 62.0819 34.7549 61.9704C34.9774 60.1968 34.8054 58.3953 34.2514 56.6976C33.3576 54.0752 31.4116 52.6494 28.7354 51.9187V51.9187Z" fill="#3D2C23"/>
<path fill-rule="evenodd" clip-rule="evenodd" d="M23.5971 26.3515C22.4037 27.5583 24.2567 29.4373 25.4525 28.2279C26.6483 27.0185 24.7929 25.1395 23.5971 26.3515Z" fill="#3D2C23"/>
<path fill-rule="evenodd" clip-rule="evenodd" d="M23.6499 21.6641C22.4541 22.871 24.3095 24.7499 25.5054 23.5406C26.7012 22.3312 24.8458 20.4548 23.6499 21.6641Z" fill="#3D2C23"/>
<path fill-rule="evenodd" clip-rule="evenodd" d="M19.0151 21.6641C17.8218 22.871 19.6747 24.7499 20.8705 23.5406C22.0664 22.3312 20.2109 20.4548 19.0151 21.6641Z" fill="#3D2C23"/>
<path fill-rule="evenodd" clip-rule="evenodd" d="M23.5971 16.9769C22.4037 18.1863 24.2567 20.0653 25.4525 18.8534C26.6483 17.6415 24.7929 15.7676 23.5971 16.9769Z" fill="#3D2C23"/>
<path fill-rule="evenodd" clip-rule="evenodd" d="M28.2847 21.6641C27.0889 22.871 28.9443 24.7499 30.1402 23.5406C31.336 22.3312 29.4806 20.4548 28.2847 21.6641Z" fill="#3D2C23"/>
<path fill-rule="evenodd" clip-rule="evenodd" d="M39.7497 34.7203C38.1158 34.29 37.4512 36.8589 39.0901 37.2892C40.729 37.7195 41.3886 35.1505 39.7497 34.7203Z" fill="#3D2C23"/>
<path fill-rule="evenodd" clip-rule="evenodd" d="M43.7753 32.3931C42.1389 31.9628 41.4742 34.5318 43.1132 34.9621C44.7521 35.3924 45.4117 32.8259 43.7753 32.3931Z" fill="#3D2C23"/>
<path fill-rule="evenodd" clip-rule="evenodd" d="M41.4289 28.3526C39.795 27.9224 39.1304 30.4888 40.7668 30.9216C42.4032 31.3544 43.0679 28.7829 41.4289 28.3526Z" fill="#3D2C23"/>
<path fill-rule="evenodd" clip-rule="evenodd" d="M47.7455 29.9769C46.1091 29.5466 45.4444 32.113 47.0834 32.5459C48.7223 32.9787 49.3819 30.4072 47.7455 29.9769Z" fill="#3D2C23"/>
<path fill-rule="evenodd" clip-rule="evenodd" d="M53.7297 23.3191C52.0933 22.8889 51.4287 25.4578 53.0676 25.8906C54.7065 26.3235 55.3661 23.752 53.7297 23.3191Z" fill="#3D2C23"/>
<path fill-rule="evenodd" clip-rule="evenodd" d="M47.3981 21.0506C45.7617 20.6203 45.097 23.1893 46.7359 23.6195C48.3749 24.0498 49.0345 21.4834 47.3981 21.0506Z" fill="#3D2C23"/>
<path fill-rule="evenodd" clip-rule="evenodd" d="M55.9678 17.8502C54.3339 17.4174 53.6693 19.9863 55.3057 20.4192C56.9421 20.852 57.6042 18.2805 55.9678 17.8502Z" fill="#3D2C23"/>
<path fill-rule="evenodd" clip-rule="evenodd" d="M61.4284 19.7191C59.7945 19.2863 59.1299 21.8552 60.7688 22.2881C62.4078 22.7209 63.0674 20.1494 61.4284 19.7191Z" fill="#3D2C23"/>
<path fill-rule="evenodd" clip-rule="evenodd" d="M46.1192 36.4363C44.4853 36.0061 43.8206 38.575 45.457 39.0053C47.0934 39.4356 47.7581 36.8666 46.1192 36.4363Z" fill="#3D2C23"/>
<path fill-rule="evenodd" clip-rule="evenodd" d="M40.7844 53.044C40.3237 51.4018 37.7986 52.1223 38.2669 53.767C38.7351 55.4118 41.2477 54.6912 40.7844 53.044Z" fill="#3D2C23"/>
<path fill-rule="evenodd" clip-rule="evenodd" d="M44.8125 55.3788C44.3518 53.7341 41.8242 54.4546 42.295 56.1019C42.7657 57.7492 45.2682 57.0312 44.8125 55.3788Z" fill="#3D2C23"/>
<path fill-rule="evenodd" clip-rule="evenodd" d="M47.0783 51.2872C46.6176 49.6425 44.09 50.363 44.5608 52.0103C45.0315 53.6576 47.529 52.9345 47.0783 51.2872Z" fill="#3D2C23"/>
<path fill-rule="evenodd" clip-rule="evenodd" d="M54.6612 52.41C54.2005 50.7653 51.6754 51.4858 52.1437 53.1331C52.6119 54.7804 55.1345 54.0573 54.6612 52.41Z" fill="#3D2C23"/>
<path fill-rule="evenodd" clip-rule="evenodd" d="M60.1872 54.7626C59.7265 53.1178 57.1989 53.8384 57.6697 55.4857C58.1405 57.1329 60.648 56.4099 60.1872 54.7626Z" fill="#3D2C23"/>
<path fill-rule="evenodd" clip-rule="evenodd" d="M64.9656 50.4343C64.5049 48.7921 61.9798 49.5127 62.448 51.1574C62.9163 52.8022 65.4263 52.0816 64.9656 50.4343Z" fill="#3D2C23"/>
<path fill-rule="evenodd" clip-rule="evenodd" d="M48.8784 57.6167C48.4177 55.9745 45.89 56.695 46.3608 58.3398C46.8316 59.9845 49.3441 59.264 48.8784 57.6167Z" fill="#3D2C23"/>
<path fill-rule="evenodd" clip-rule="evenodd" d="M42.5467 59.4703C42.086 57.8256 39.5584 58.5461 40.0292 60.1934C40.5 61.8407 43.0075 61.1049 42.5467 59.4703Z" fill="#3D2C23"/>
<path fill-rule="evenodd" clip-rule="evenodd" d="M25.3367 63.2332C26.53 62.0239 24.6695 60.1474 23.4762 61.3594C22.2829 62.5713 24.1434 64.4452 25.3367 63.2332Z" fill="#3D2C23"/>
<path fill-rule="evenodd" clip-rule="evenodd" d="M25.2939 67.9206C26.4872 66.7086 24.6292 64.8348 23.4334 66.0467C22.2376 67.2586 24.1006 69.1325 25.2939 67.9206Z" fill="#3D2C23"/>
<path fill-rule="evenodd" clip-rule="evenodd" d="M29.9287 67.9103C31.122 66.6984 29.2616 64.8245 28.0682 66.0364C26.8749 67.2483 28.7354 69.1222 29.9287 67.9103Z" fill="#3D2C23"/>
<path fill-rule="evenodd" clip-rule="evenodd" d="M25.3568 72.6078C26.5501 71.3959 24.6922 69.522 23.4963 70.7339C22.3005 71.9458 24.1685 73.8197 25.3568 72.6078Z" fill="#3D2C23"/>
<path fill-rule="evenodd" clip-rule="evenodd" d="M20.6616 67.9307C21.8524 66.7214 19.9944 64.845 18.8011 66.0569C17.6078 67.2688 19.4658 69.1427 20.6616 67.9307Z" fill="#3D2C23"/>
<path fill-rule="evenodd" clip-rule="evenodd" d="M8.99017 54.6227C10.619 55.0785 11.3214 52.5223 9.69005 52.0767C8.05868 51.6311 7.36131 54.167 8.99017 54.6227Z" fill="#3D2C23"/>
<path fill-rule="evenodd" clip-rule="evenodd" d="M4.93188 56.8885C6.56074 57.3443 7.26314 54.7855 5.63176 54.3298C4.00039 53.874 3.30302 56.4328 4.93188 56.8885Z" fill="#3D2C23"/>
<path fill-rule="evenodd" clip-rule="evenodd" d="M7.21782 60.9647C8.84668 61.4205 9.54908 58.8617 7.91771 58.4187C6.28633 57.9757 5.58645 60.509 7.21782 60.9647Z" fill="#3D2C23"/>
<path fill-rule="evenodd" clip-rule="evenodd" d="M0.926443 59.2438C2.5553 59.6995 3.2577 57.1433 1.62632 56.685C-0.0050543 56.2267 -0.704936 58.7881 0.926443 59.2438Z" fill="#3D2C23"/>
<path fill-rule="evenodd" clip-rule="evenodd" d="M2.64845 52.8097C4.27732 53.2655 4.97971 50.7067 3.34834 50.2637C1.71696 49.8207 1.00701 52.354 2.64845 52.8097Z" fill="#3D2C23"/>
<path fill-rule="evenodd" clip-rule="evenodd" d="M8.12917 36.51C8.58737 38.1548 11.115 37.4393 10.6467 35.7921C10.1785 34.1448 7.67349 34.8628 8.12917 36.51Z" fill="#3D2C23"/>
<path fill-rule="evenodd" clip-rule="evenodd" d="M142.929 38.4679C140.182 38.1966 137.418 38.7925 135.019 40.1738C134.916 37.3731 134.196 34.794 132.527 32.416C131.598 33.5439 131.079 34.794 130.664 36.0976C130.208 37.4168 130 38.8104 130.05 40.2069C127.532 38.8117 124.967 38.193 122.107 38.4654C122.628 39.7481 123.382 40.9207 124.33 41.9229C125.22 42.974 126.299 43.8456 127.509 44.4919C125.097 45.9915 123.302 47.9163 122.139 50.4343C123.554 51.0632 126.94 50.3885 129.997 48.8838C130.077 51.6844 130.812 54.2508 132.416 56.5423C133.675 55.5239 134.735 52.4126 135.017 48.8787C137.37 50.2315 140.073 50.8332 142.771 50.6049C142.534 48.9474 140.163 46.2079 137.544 44.5377C139.905 43.1118 141.783 40.9954 142.929 38.4679V38.4679ZM141.572 49.7342C141.492 49.7927 141.457 49.8386 141.416 49.8436C141.319 49.8598 141.22 49.8658 141.122 49.8615C139.614 49.7809 138.129 49.4506 136.726 48.8838C135.793 48.5346 134.967 47.9427 134.332 47.1678C133.994 46.7113 133.73 46.2034 133.549 45.6631C133.373 45.1538 133.501 44.9553 134.007 44.8407C134.461 44.7305 134.929 44.6918 135.394 44.7261C136.333 44.8339 137.227 45.1847 137.992 45.7445C139.346 46.7188 140.502 47.946 141.399 49.3599C141.464 49.4808 141.522 49.6058 141.572 49.7342V49.7342ZM123.338 49.9277C123.421 49.7285 123.514 49.5339 123.617 49.3446C124.464 48.0178 125.537 46.8525 126.784 45.9024C127.604 45.2446 128.589 44.8326 129.629 44.7134C130.143 44.7061 130.655 44.7634 131.155 44.884C131.218 44.89 131.279 44.9109 131.333 44.945C131.387 44.9791 131.432 45.0254 131.465 45.0803C131.498 45.1352 131.518 45.1971 131.523 45.2612C131.528 45.3252 131.518 45.3896 131.495 45.4492C131.381 45.9041 131.212 46.3429 130.991 46.7553C130.456 47.6091 129.667 48.2696 128.738 48.6419C127.725 49.0425 126.685 49.3709 125.626 49.6247C124.87 49.7697 124.106 49.8708 123.338 49.9277V49.9277ZM132.401 55.1241C132.111 54.4545 131.817 53.8511 131.593 53.2299C131.062 51.7634 130.681 50.2663 130.858 48.6827C130.966 47.7203 131.223 46.8164 131.907 46.0933C132.411 45.5841 132.62 45.5841 133.121 46.1061C133.739 46.8013 134.102 47.6904 134.148 48.6241C134.36 50.9002 133.672 52.9651 132.653 54.9459C132.628 54.9943 132.572 54.9943 132.396 55.1241H132.401ZM123.423 39.1503C124.156 39.2292 124.798 39.2623 125.437 39.3743C126.933 39.6289 128.393 40.0261 129.657 40.9402C130.331 41.4264 130.941 41.9866 131.273 42.7657C131.777 43.9216 131.62 44.2347 130.347 44.3544C129.294 44.4562 128.333 44.0998 127.449 43.5651C125.8 42.5645 124.554 41.1489 123.532 39.522C123.481 39.4025 123.443 39.2779 123.418 39.1503H123.423ZM141.507 39.1503C141.535 39.2165 141.562 39.2827 141.593 39.3489C141.456 39.6092 141.298 39.8578 141.122 40.0923C140.351 40.9732 139.594 41.8745 138.768 42.6918C138.093 43.3675 137.256 43.8529 136.338 44.0998C135.772 44.2765 135.18 44.3514 134.589 44.3213C133.443 44.2169 133.275 43.9394 133.708 42.8777C133.88 42.434 134.149 42.0354 134.496 41.7116C135.084 41.1798 135.728 40.7145 136.416 40.324C137.423 39.769 138.551 39.5271 139.689 39.3463C140.278 39.2623 140.893 39.2267 141.502 39.163L141.507 39.1503ZM132.481 33.992C132.544 34.0175 132.61 34.0251 132.628 34.0582C133.71 36.1256 134.42 38.2872 134.115 40.6779C134.038 41.5076 133.699 42.2902 133.149 42.9108C132.622 43.4735 132.393 43.4785 131.877 42.9108C131.255 42.1876 130.9 41.2693 130.87 40.3113C130.689 38.0911 131.374 36.0696 132.351 34.1295C132.363 34.0837 132.424 34.0455 132.476 34.0047L132.481 33.992ZM132.028 44.5555C132.255 44.3849 132.378 44.222 132.489 44.2296C132.6 44.2373 132.741 44.4002 132.801 44.525C132.821 44.5683 132.645 44.7796 132.549 44.7796C132.454 44.7796 132.285 44.6854 132.028 44.5555Z" fill="#3D2C23"/>
<path fill-rule="evenodd" clip-rule="evenodd" d="M143.418 25.4019C141.56 25.9593 139.843 26.9145 138.383 28.2025C136.968 29.4271 135.963 30.9038 135.565 32.765C135.175 34.5803 135.397 36.3473 135.996 38.0786C136.028 38.1423 136.07 38.2007 136.119 38.2517C137.894 38.0813 139.568 37.3408 140.896 36.1386C142.224 34.9364 143.137 33.3357 143.501 31.5709C143.911 29.6833 143.922 27.7295 143.534 25.8372C143.501 25.715 143.471 25.5954 143.418 25.4019ZM136.847 37.0907C136.769 37.0092 136.716 36.9787 136.706 36.9354C135.973 34.2061 136.359 31.7211 138.335 29.6155C139.385 28.5135 140.631 27.622 142.008 26.988C142.217 26.8887 142.443 26.8251 142.715 26.7334C142.967 28.9128 142.871 30.9497 142.058 32.8872C141.071 35.2194 139.193 36.4746 136.847 37.0907V37.0907Z" fill="#3D2C23"/>
<path fill-rule="evenodd" clip-rule="evenodd" d="M121.578 25.3992C121.19 26.9063 121.081 28.4729 121.256 30.0202C121.322 30.6676 121.434 31.3092 121.593 31.9399C122.258 34.6286 123.904 36.4872 126.412 37.5565C127.179 37.8849 128 38.0886 128.834 38.361C128.93 38.1981 129.014 38.0279 129.085 37.8518C129.565 36.4516 129.729 34.9604 129.564 33.4879C129.368 31.782 128.614 30.1913 127.421 28.9687C125.817 27.2802 123.802 26.049 121.578 25.3992V25.3992ZM122.308 26.6569C124.438 27.6168 126.235 28.7854 127.487 30.644C128.818 32.6274 128.899 34.7966 128.285 37.0295C128.192 37.0498 128.139 37.0804 128.098 37.0677C125.274 36.3038 123.315 34.6311 122.547 31.7006C122.439 31.2884 122.355 30.8701 122.295 30.448C122.113 29.1907 122.117 27.9129 122.308 26.6569V26.6569Z" fill="#3D2C23"/>
<path fill-rule="evenodd" clip-rule="evenodd" d="M139.659 44.5352C141.253 46.3912 143.083 47.677 145.467 48.0182C146.774 48.1786 148.1 48.0233 149.337 47.565C151.17 46.9524 152.85 45.9448 154.261 44.6116C154.261 44.5326 154.261 44.4664 154.231 44.441C152.375 42.6125 149.996 41.4215 147.433 41.0369C145.598 40.7645 143.894 41.2126 142.318 42.1801C141.303 42.8028 140.403 43.5998 139.659 44.5352V44.5352ZM152.821 44.4995C151.902 45.355 150.502 46.1061 149.002 46.6255C146.142 47.6133 143.649 46.959 141.449 44.9502C141.323 44.8234 141.204 44.6891 141.094 44.5479C141.107 44.5036 141.123 44.4602 141.142 44.4181C141.169 44.3762 141.2 44.337 141.235 44.3009C143.463 42.147 146.018 41.3883 149.004 42.4169C150.387 42.8756 151.678 43.5809 152.816 44.4995H152.821Z" fill="#3D2C23"/>
<path fill-rule="evenodd" clip-rule="evenodd" d="M110.677 44.5098C111.38 45.2434 112.185 45.8695 113.066 46.3684C114.156 47.022 115.334 47.5133 116.563 47.8273C117.559 48.0958 118.599 48.1597 119.62 48.0154C120.641 47.8711 121.624 47.5215 122.509 46.9871C123.606 46.3523 124.569 45.5064 125.344 44.4971C123.803 42.6843 121.971 41.3807 119.554 41.0344C118.016 40.8129 116.548 41.121 115.12 41.6786C113.751 42.2063 112.476 42.9553 111.344 43.8962C111.12 44.0846 110.914 44.301 110.677 44.5098ZM112.114 44.5556C113.271 43.6133 114.587 42.8904 115.999 42.422C118.856 41.4291 121.351 42.086 123.552 44.0948C123.693 44.2246 123.803 44.3799 123.96 44.5505C122.812 45.737 121.528 46.6026 119.947 46.9183C116.983 47.5141 114.549 46.2385 112.114 44.5556Z" fill="#3D2C23"/>
<path fill-rule="evenodd" clip-rule="evenodd" d="M136.084 50.7959C135.989 50.9982 135.905 51.2056 135.832 51.4171C134.757 55.1624 135.465 58.3984 138.501 60.9724C139.736 62.023 141.143 62.8483 142.657 63.4115C142.887 63.4981 143.126 63.5465 143.453 63.6381C143.564 62.9761 143.705 62.3651 143.758 61.7617C143.912 60.1609 143.782 58.5451 143.375 56.9904C142.504 53.7468 140.301 51.8983 137.204 50.9945C136.953 50.9181 136.673 50.8672 136.406 50.8137C136.299 50.8017 136.192 50.7958 136.084 50.7959V50.7959ZM142.73 62.3167C142.55 62.2708 142.372 62.2155 142.197 62.1512C140.64 61.4779 139.248 60.4681 138.118 59.1927C136.283 57.0846 136.006 54.6481 136.726 52.0205C136.815 52.0024 136.905 51.9964 136.995 52.0027C139.095 52.5781 140.817 53.6907 141.832 55.6945C142.871 57.7517 142.965 59.9642 142.73 62.3167V62.3167Z" fill="#3D2C23"/>
<path fill-rule="evenodd" clip-rule="evenodd" d="M121.57 63.6865C122.243 63.4318 122.849 63.218 123.426 62.9532C124.802 62.3193 126.058 61.4464 127.137 60.3741C129.324 58.215 129.999 55.585 129.44 52.5934C129.327 51.99 129.131 51.4018 128.952 50.7195C128.335 50.8748 127.801 50.9741 127.293 51.1472C123.834 52.3108 121.832 54.7117 121.329 58.378C121.123 59.7889 121.129 61.2232 121.346 62.6324C121.404 62.9583 121.482 63.2689 121.57 63.6865ZM128.265 51.9187C129.02 54.7651 128.685 57.2653 126.719 59.3836C125.657 60.5141 124.39 61.4277 122.988 62.0748C122.779 62.1609 122.565 62.2349 122.348 62.2963C122.305 62.1909 122.27 62.0819 122.245 61.9704C122.023 60.1968 122.195 58.3953 122.749 56.6976C123.642 54.0752 125.591 52.6494 128.265 51.9187V51.9187Z" fill="#3D2C23"/>
<path fill-rule="evenodd" clip-rule="evenodd" d="M133.403 26.3515C134.599 27.5583 132.743 29.4373 131.547 28.2279C130.352 27.0185 132.207 25.1395 133.403 26.3515Z" fill="#3D2C23"/>
<path fill-rule="evenodd" clip-rule="evenodd" d="M133.35 21.6641C134.546 22.871 132.69 24.7499 131.495 23.5406C130.299 22.3312 132.154 20.4548 133.35 21.6641Z" fill="#3D2C23"/>
<path fill-rule="evenodd" clip-rule="evenodd" d="M137.985 21.6641C139.181 22.871 137.325 24.7499 136.129 23.5406C134.934 22.3312 136.789 20.4548 137.985 21.6641Z" fill="#3D2C23"/>
<path fill-rule="evenodd" clip-rule="evenodd" d="M133.403 16.9769C134.599 18.1863 132.743 20.0653 131.547 18.8534C130.352 17.6415 132.207 15.7676 133.403 16.9769Z" fill="#3D2C23"/>
<path fill-rule="evenodd" clip-rule="evenodd" d="M128.718 21.6641C129.911 22.871 128.056 24.7499 126.86 23.5406C125.664 22.3312 127.519 20.4548 128.718 21.6641Z" fill="#3D2C23"/>
<path fill-rule="evenodd" clip-rule="evenodd" d="M117.25 34.7203C118.884 34.29 119.549 36.8589 117.912 37.2892C116.276 37.7195 115.611 35.1505 117.25 34.7203Z" fill="#3D2C23"/>
<path fill-rule="evenodd" clip-rule="evenodd" d="M113.227 32.3931C114.861 31.9628 115.526 34.5318 113.887 34.9621C112.248 35.3924 111.588 32.8259 113.227 32.3931Z" fill="#3D2C23"/>
<path fill-rule="evenodd" clip-rule="evenodd" d="M115.571 28.3526C117.205 27.9224 117.87 30.4888 116.233 30.9216C114.597 31.3544 113.935 28.7829 115.571 28.3526Z" fill="#3D2C23"/>
<path fill-rule="evenodd" clip-rule="evenodd" d="M109.262 29.9769C110.898 29.5466 111.563 32.113 109.924 32.5459C108.285 32.9787 107.618 30.4072 109.262 29.9769Z" fill="#3D2C23"/>
<path fill-rule="evenodd" clip-rule="evenodd" d="M103.273 23.3191C104.907 22.8889 105.571 25.4578 103.932 25.8906C102.293 26.3235 101.634 23.752 103.273 23.3191Z" fill="#3D2C23"/>
<path fill-rule="evenodd" clip-rule="evenodd" d="M109.604 21.0506C111.238 20.6203 111.903 23.1893 110.264 23.6195C108.625 24.0498 107.965 21.4834 109.604 21.0506Z" fill="#3D2C23"/>
<path fill-rule="evenodd" clip-rule="evenodd" d="M101.032 17.8502C102.669 17.4174 103.333 19.9863 101.694 20.4192C100.055 20.852 99.3957 18.2805 101.032 17.8502Z" fill="#3D2C23"/>
<path fill-rule="evenodd" clip-rule="evenodd" d="M95.5715 19.7191C97.2054 19.2863 97.8701 21.8552 96.2337 22.2881C94.5973 22.7209 93.9326 20.1494 95.5715 19.7191Z" fill="#3D2C23"/>
<path fill-rule="evenodd" clip-rule="evenodd" d="M110.881 36.4363C112.515 36.0061 113.179 38.575 111.543 39.0053C109.907 39.4356 109.244 36.8666 110.881 36.4363Z" fill="#3D2C23"/>
<path fill-rule="evenodd" clip-rule="evenodd" d="M116.213 53.044C116.674 51.4018 119.199 52.1223 118.731 53.767C118.262 55.4118 115.752 54.6912 116.213 53.044Z" fill="#3D2C23"/>
<path fill-rule="evenodd" clip-rule="evenodd" d="M112.192 55.3788C112.653 53.7341 115.181 54.4546 114.71 56.1019C114.239 57.7492 111.732 57.0312 112.192 55.3788Z" fill="#3D2C23"/>
<path fill-rule="evenodd" clip-rule="evenodd" d="M109.932 51.2872C110.392 49.6425 112.92 50.363 112.449 52.0103C111.978 53.6576 109.471 52.9345 109.932 51.2872Z" fill="#3D2C23"/>
<path fill-rule="evenodd" clip-rule="evenodd" d="M102.339 52.41C102.799 50.7653 105.327 51.4858 104.856 53.1331C104.386 54.7804 101.878 54.0573 102.339 52.41Z" fill="#3D2C23"/>
<path fill-rule="evenodd" clip-rule="evenodd" d="M96.8127 54.7626C97.2734 53.1178 99.801 53.8384 99.3303 55.4857C98.8595 57.1329 96.352 56.4099 96.8127 54.7626Z" fill="#3D2C23"/>
<path fill-rule="evenodd" clip-rule="evenodd" d="M92.0344 50.4343C92.4951 48.7921 95.0227 49.5127 94.5519 51.1574C94.0812 52.8022 91.5737 52.0816 92.0344 50.4343Z" fill="#3D2C23"/>
<path fill-rule="evenodd" clip-rule="evenodd" d="M108.122 57.6167C108.582 55.9745 111.11 56.695 110.639 58.3398C110.168 59.9845 107.661 59.264 108.122 57.6167Z" fill="#3D2C23"/>
<path fill-rule="evenodd" clip-rule="evenodd" d="M114.453 59.4703C114.914 57.8256 117.442 58.5461 116.971 60.1934C116.5 61.8407 113.993 61.1049 114.453 59.4703Z" fill="#3D2C23"/>
<path fill-rule="evenodd" clip-rule="evenodd" d="M131.668 63.2332C130.477 62.0239 132.335 60.1474 133.529 61.3594C134.722 62.5713 132.857 64.4452 131.668 63.2332Z" fill="#3D2C23"/>
<path fill-rule="evenodd" clip-rule="evenodd" d="M131.706 67.9206C130.513 66.7086 132.373 64.8348 133.567 66.0467C134.76 67.2586 132.899 69.1325 131.706 67.9206Z" fill="#3D2C23"/>
<path fill-rule="evenodd" clip-rule="evenodd" d="M127.071 67.9103C125.88 66.6984 127.738 64.8245 128.932 66.0364C130.125 67.2483 128.265 69.1222 127.071 67.9103Z" fill="#3D2C23"/>
<path fill-rule="evenodd" clip-rule="evenodd" d="M131.643 72.6078C130.45 71.3959 132.31 69.522 133.504 70.7339C134.697 71.9458 132.836 73.8197 131.643 72.6078Z" fill="#3D2C23"/>
<path fill-rule="evenodd" clip-rule="evenodd" d="M136.341 67.9307C135.148 66.7214 137.006 64.845 138.201 66.0569C139.397 67.2688 137.534 69.1427 136.341 67.9307Z" fill="#3D2C23"/>
<path fill-rule="evenodd" clip-rule="evenodd" d="M148.01 54.6227C146.381 55.0785 145.679 52.5223 147.31 52.0767C148.941 51.6311 149.641 54.167 148.01 54.6227Z" fill="#3D2C23"/>
<path fill-rule="evenodd" clip-rule="evenodd" d="M152.061 56.8885C150.432 57.3443 149.729 54.7855 151.361 54.3298C152.992 53.874 153.699 56.4328 152.061 56.8885Z" fill="#3D2C23"/>
<path fill-rule="evenodd" clip-rule="evenodd" d="M149.795 60.9647C148.168 61.4205 147.466 58.8617 149.095 58.4187C150.724 57.9757 151.414 60.509 149.795 60.9647Z" fill="#3D2C23"/>
<path fill-rule="evenodd" clip-rule="evenodd" d="M156.074 59.2438C154.445 59.6995 153.742 57.1433 155.374 56.685C157.005 56.2267 157.705 58.7881 156.074 59.2438Z" fill="#3D2C23"/>
<path fill-rule="evenodd" clip-rule="evenodd" d="M154.352 52.8097C152.725 53.2655 152.023 50.7067 153.652 50.2637C155.281 49.8207 155.983 52.354 154.352 52.8097Z" fill="#3D2C23"/>
<path fill-rule="evenodd" clip-rule="evenodd" d="M148.871 36.51C148.415 38.1548 145.885 37.4393 146.353 35.7921C146.821 34.1448 149.326 34.8628 148.871 36.51Z" fill="#3D2C23"/>
</svg>
