<svg width="109" height="51" viewBox="0 0 109 51" fill="none" xmlns="http://www.w3.org/2000/svg">
<g clip-path="url(#clip0_99_199)">
<path d="M33.8141 27.9262C33.856 25.9091 34.6286 24.1998 35.9027 22.6789C38.6993 19.3367 42.3856 17.485 46.4179 16.2328C46.8863 16.0869 46.9265 15.9322 46.7674 15.4875C46.1245 13.7392 46.0858 11.8202 46.6577 10.0465C47.2295 8.27283 48.3779 6.7502 49.9136 5.72934C50.375 5.41984 50.3977 5.15837 50.2264 4.70123C49.7099 3.26054 48.7403 2.03374 47.4683 1.21135C47.2533 1.07082 47.0349 0.940977 46.9947 0.649264C46.9739 0.543254 46.986 0.433316 47.0292 0.334572C47.0724 0.235828 47.1446 0.15313 47.2359 0.0978549C47.5015 -0.080019 47.7602 0.0160329 48.0014 0.170783C49.4731 1.10818 50.5743 2.38176 51.1755 4.03776C51.4063 4.67455 51.588 4.86665 52.2977 4.63897C53.8388 4.1532 55.4921 4.18062 57.0169 4.71724C57.4241 4.8542 57.5412 4.76349 57.6741 4.3775C58.2498 2.66151 59.3845 1.19731 60.8901 0.227703C61.1401 0.0605014 61.3953 -0.0960276 61.6994 0.0729525C62.1521 0.318418 62.0962 0.820023 61.5543 1.17755C60.3445 1.96947 59.3968 3.1136 58.8347 4.4611C58.562 5.09255 58.6302 5.42696 59.2332 5.84496C60.7087 6.87759 61.8039 8.38119 62.3458 10.1181C62.8878 11.855 62.8454 13.7262 62.2255 15.4359C62.0402 15.9553 62.1521 16.1047 62.6362 16.2506C65.9747 17.2591 69.0684 18.7622 71.6709 21.1599C73.2929 22.6558 74.6423 24.3616 75.0565 26.6473C75.4498 28.8031 74.852 30.7064 73.6583 32.4638C73.0486 33.3364 72.3451 34.137 71.5608 34.8508C71.4237 34.9824 71.2617 35.0841 71.0847 35.1499C70.9078 35.2156 70.7195 35.244 70.5313 35.2333C68.4619 35.1959 66.6371 34.4382 64.9539 33.2767C64.3946 32.9001 63.8619 32.484 63.3599 32.0315C62.9788 31.6758 62.9072 31.8003 62.7918 32.2272C61.853 35.8752 59.8182 39.1337 56.9714 41.5478C56.3422 42.0814 55.6588 42.5457 54.9859 43.0206C54.6188 43.2803 54.3497 43.2678 53.9756 43.0206C50.0359 40.4509 47.4404 36.8739 46.1889 32.2895C46.0141 31.6402 45.8638 31.8021 45.5037 32.1116C43.651 33.7231 41.6008 34.9113 39.1188 35.203C38.2606 35.3044 37.5947 35.1212 36.9707 34.4649C35.4501 32.864 34.1829 31.1511 33.849 28.8796C33.8315 28.7533 33.8071 28.6253 33.8018 28.4972C33.8071 28.3069 33.8141 28.113 33.8141 27.9262ZM63.4473 17.7874C63.4193 17.6825 63.3599 17.6842 63.2865 17.7394L63.4001 17.8443C64.4173 18.9116 65.4276 19.9948 66.4536 21.0567C68.7841 23.4604 71.1145 25.8581 73.445 28.25C73.5831 28.3905 73.6792 28.6057 73.9536 28.6199C73.9823 28.5454 74.0029 28.4678 74.0148 28.3887C74.0323 28.1115 74.0323 27.8334 74.0148 27.5562C73.7736 24.769 72.0292 22.9458 70.0891 21.2577C69.4887 20.7794 68.8509 20.3517 68.1822 19.9788C66.686 19.0681 65.1479 18.2481 63.4473 17.7874ZM45.5107 17.7874C45.3484 17.8191 45.1879 17.8601 45.0301 17.9101C42.4992 18.8635 40.1361 20.1425 38.1033 21.9514C36.705 23.1859 35.5794 24.6338 35.1215 26.5103C34.9467 27.2218 34.8191 27.9333 35.0795 28.8743C35.1947 28.6834 35.3219 28.5004 35.4605 28.3264C37.2958 26.3947 39.152 24.4915 40.9978 22.59C42.5219 21.014 44.0618 19.4523 45.5824 17.871C45.6069 17.8194 45.7432 17.8088 45.6401 17.7163C45.6296 17.6985 45.5597 17.7554 45.5177 17.7874H45.5107ZM47.9315 15.2527C52.3082 11.8755 56.6778 11.8755 61.0405 15.2527C62.3007 12.7376 61.3673 9.02712 58.9675 7.07051C57.6786 6.03594 56.0825 5.47775 54.441 5.48744C52.7994 5.49714 51.2098 6.07415 49.9328 7.12387C47.5802 9.10717 46.6678 12.8372 47.9385 15.2474L47.9315 15.2527ZM54.4388 31.4072C56.6883 31.4072 58.9378 31.4072 61.1873 31.4072C61.4128 31.4072 61.7116 31.5531 61.8497 31.2169C61.9161 31.0714 61.9349 30.9081 61.9035 30.7509C61.872 30.5938 61.7919 30.451 61.6749 30.3435C60.6266 29.1723 59.7275 27.8713 58.999 26.4712C58.959 26.3625 58.8854 26.2701 58.7892 26.2078C58.693 26.1455 58.5795 26.1169 58.4659 26.1261C55.8184 26.1356 53.1698 26.1356 50.5201 26.1261C50.4065 26.1144 50.2923 26.1394 50.1934 26.1975C50.0946 26.2556 50.0163 26.3439 49.9695 26.4499C49.2231 27.8838 48.3023 29.2165 47.2289 30.4165C47.0086 30.6655 47.0331 30.9127 47.117 31.1902C47.2184 31.5264 47.4928 31.4054 47.699 31.4054C49.9485 31.4054 52.198 31.4019 54.4458 31.4019L54.4388 31.4072ZM54.4755 32.5652C52.3116 32.5652 50.1495 32.5652 47.9857 32.5652C47.5977 32.5652 47.4613 32.6168 47.6064 33.0579C48.1538 34.6746 48.928 36.2023 49.9048 37.5937C49.9721 37.6997 50.0666 37.785 50.1782 37.8402C50.2898 37.8954 50.4141 37.9184 50.5376 37.9067C53.1419 37.896 55.7456 37.896 58.3488 37.9067C58.5136 37.9151 58.6775 37.877 58.8225 37.7967C58.9674 37.7164 59.0878 37.5969 59.1702 37.4514C60.0817 36.1127 60.8146 34.6568 61.3498 33.1219C61.5036 32.6826 61.4792 32.5438 60.9705 32.5492C58.8084 32.5741 56.6446 32.5598 54.4825 32.5598L54.4755 32.5652ZM46.1172 24.4363L45.8918 24.2994C45.4443 24.8081 44.9794 25.3008 44.5546 25.8291C44.3717 26.0781 44.1271 26.2734 43.8459 26.3949C43.5646 26.5165 43.2568 26.56 42.9536 26.521C42.5533 26.4801 42.3139 26.6438 42.0797 26.9853C40.7496 28.981 39.388 30.9554 38.0474 32.9423C37.918 33.1344 37.6034 33.314 37.7817 33.5826C37.96 33.8512 38.2396 34.1465 38.6644 34.0753C39.1188 33.9988 39.5837 33.9722 40.0294 33.8654C42.3017 33.3318 44.081 31.9746 45.71 30.3613C45.7667 30.3143 45.8133 30.2559 45.847 30.1899C45.8807 30.1238 45.9007 30.0514 45.9057 29.9771C45.9803 28.1272 46.0531 26.2785 46.1242 24.431L46.1172 24.4363ZM63.0522 27.4424C63.0522 28.2322 63.0522 29.0201 63.0522 29.8099C63.0495 29.926 63.072 30.0413 63.1179 30.1477C63.1638 30.254 63.2321 30.3488 63.3179 30.4253C64.3274 31.4553 65.477 32.3322 66.7315 33.0294C67.8095 33.6096 68.99 33.9663 70.2045 34.0789C70.3925 34.1035 70.5835 34.0725 70.7546 33.9896C70.9257 33.9066 71.0697 33.7752 71.1693 33.6111C71.3878 33.2891 71.0347 33.1166 70.8984 32.9156C69.598 30.975 68.2766 29.0539 66.9762 27.1098C66.7053 26.7042 66.4274 26.4552 65.917 26.5157C65.3332 26.5851 64.8683 26.3485 64.4785 25.8913C64.2058 25.5676 63.8842 25.2884 63.5853 24.9895C63.4368 24.8419 63.3966 24.8116 63.2358 24.8526C63.0208 24.8899 63.047 25.1638 63.0435 25.3542C63.0435 26.0763 63.0051 27.4371 63.0592 27.4371L63.0522 27.4424ZM54.4877 24.9611C55.5801 24.9611 56.6726 24.9451 57.7632 24.9611C58.16 24.97 58.2386 24.8134 58.1338 24.4755C58.0778 24.2976 58.0079 24.1197 57.938 23.9418C57.3665 22.4922 57.0746 21.0016 57.3367 19.4399C57.3822 19.1659 57.3245 19.0379 57.0553 19.0076C55.3628 18.8271 53.6564 18.8271 51.9638 19.0076C51.7349 19.0307 51.5548 19.1001 51.6527 19.4114C51.8083 19.9201 51.7069 20.4395 51.6789 20.9536C51.6081 22.1469 51.338 23.3193 50.8802 24.4203C50.6722 24.929 50.8032 24.9646 51.2122 24.9628L54.4877 24.9611ZM60.0197 16.0994C57.2703 13.056 51.2402 13.369 48.9995 16.1154C49.8437 16.448 50.5725 16.939 51.0445 17.7394C51.172 17.9528 51.3398 17.9404 51.5321 17.9173C53.4883 17.6469 55.4714 17.6469 57.4276 17.9173C57.6024 17.9422 57.7964 17.9973 57.9258 17.775C58.4064 16.9354 59.151 16.4373 60.018 16.0941L60.0197 16.0994ZM68.9653 25.3488C68.9653 25.3844 68.981 25.3293 68.9653 25.3061C67.4434 23.7171 65.9187 22.1305 64.3911 20.5462C63.6081 19.7351 62.7778 18.9649 62.0262 18.1236C60.9775 16.9567 60.2784 16.8785 59.2576 17.9457C59.244 17.962 59.2294 17.9774 59.2139 17.992C58.8644 18.321 58.8207 18.5914 59.2139 18.9792C61.2484 20.982 63.255 23.0187 65.272 25.0411C65.4031 25.1727 65.5167 25.3506 65.73 25.3506C66.8049 25.3399 67.8851 25.3382 68.9635 25.3382L68.9653 25.3488ZM39.9508 25.3595C39.9788 25.4057 40.0067 25.4502 40.0329 25.4965C40.8911 25.4573 41.7476 25.3862 42.604 25.3915C42.863 25.4098 43.1225 25.3642 43.3604 25.2586C43.5984 25.153 43.8078 24.9905 43.9709 24.785C44.3449 24.3332 44.7993 23.9525 45.2136 23.5399C46.7622 21.9852 48.3003 20.4199 49.8629 18.8796C50.1426 18.6039 50.1373 18.4135 49.9048 18.1414C49.5412 17.7257 49.0817 17.4085 48.5677 17.2182C48.4122 17.1376 48.2339 17.1149 48.0637 17.1543C47.8935 17.1936 47.7422 17.2924 47.6361 17.4334C46.0508 19.1019 44.4375 20.7437 42.8348 22.3943L39.9508 25.3595ZM50.5131 19.9041C49.5465 20.6654 48.8317 21.601 47.9717 22.373C47.728 22.5841 47.5349 22.8492 47.4074 23.1479C47.2798 23.4467 47.2212 23.7712 47.2359 24.0966C47.2254 25.1194 47.1869 26.1421 47.1677 27.1649C47.159 27.6185 47.1677 28.0739 47.1677 28.5879C49.0397 26.4374 50.9151 22.437 50.5131 19.9041ZM58.3575 19.8063C58.3575 23.314 59.8711 25.9981 61.7693 28.531C61.8238 28.3199 61.845 28.1014 61.8322 27.8835C61.7903 26.6473 61.6872 25.4093 61.7204 24.1749C61.7413 23.4456 61.6452 22.8924 61.044 22.4068C60.1263 21.6686 59.4551 20.6619 58.3575 19.8063ZM68.0791 26.6811C69.3917 28.6128 70.6764 30.5054 71.9646 32.3962C72.1394 32.647 72.246 32.446 72.3421 32.3215C72.7684 31.7666 73.1407 31.1709 73.4538 30.5427C73.6146 30.219 73.5848 30.018 73.3314 29.7654C72.4155 28.8512 71.5224 27.9138 70.6205 26.987C70.4894 26.8501 70.3635 26.69 70.1538 26.6882C69.4914 26.6811 68.8289 26.6811 68.0791 26.6811ZM40.9086 26.6811H38.93C38.8359 26.6823 38.743 26.7037 38.6575 26.7439C38.572 26.784 38.4957 26.842 38.4336 26.9141C37.4921 27.8912 36.5483 28.8648 35.6021 29.8348C35.4396 30.002 35.3574 30.1585 35.4693 30.4004C35.7917 31.0973 36.1923 31.7539 36.6631 32.3571C36.8378 32.5705 36.9305 32.5474 37.0756 32.3322C38.334 30.468 39.5995 28.611 40.9086 26.6811ZM51.1458 39.086C52.0462 40.1045 53.0712 41.0011 54.1958 41.7541C54.3269 41.8431 54.444 41.9889 54.6415 41.8573C55.8213 41.0886 56.8917 40.1585 57.8227 39.0931L51.1458 39.086Z" fill="#3D2C23"/>
<path fill-rule="evenodd" clip-rule="evenodd" d="M9.77051 26.875C11.6775 26.6857 13.5954 27.102 15.2605 28.0668C15.3339 26.1102 15.8321 24.3083 16.9909 22.647C17.6359 23.435 17.9959 24.3083 18.2843 25.219C18.6015 26.1405 18.7461 27.1142 18.7108 28.0899C20.4587 27.1152 22.2397 26.6829 24.2253 26.8733C23.8634 27.7694 23.34 28.5886 22.6819 29.2888C22.0642 30.0237 21.3151 30.6327 20.4744 31.0835C22.1488 32.1312 23.3951 33.4759 24.2026 35.2351C23.2203 35.6745 20.8694 35.2031 18.7493 34.1519C18.6933 36.1085 18.1812 37.9014 17.0678 39.5023C16.1852 38.7908 15.458 36.6172 15.264 34.1483C13.6294 35.0932 11.7523 35.5136 9.87887 35.3543C10.0432 34.1963 11.6897 32.2824 13.5074 31.1155C11.8685 30.1199 10.5654 28.6411 9.77051 26.875ZM10.7126 34.746C10.7668 34.7869 10.7913 34.8189 10.8192 34.8224C10.8868 34.8337 10.9553 34.8378 11.0237 34.8349C12.0708 34.7786 13.1018 34.5478 14.0755 34.1519C14.7219 33.9043 15.2929 33.4877 15.7307 32.9441C15.9654 32.6252 16.1489 32.2703 16.2743 31.8929C16.3966 31.5371 16.3075 31.3984 15.9562 31.3183C15.6411 31.2413 15.3163 31.2143 14.9931 31.2383C14.3417 31.3136 13.7204 31.5586 13.1893 31.9498C12.2529 32.6336 11.4542 33.4941 10.8367 34.4845C10.7885 34.5681 10.747 34.6556 10.7126 34.746ZM23.3723 34.8811C23.264 34.6535 23.2308 34.5574 23.1766 34.4738C22.5873 33.5465 21.8418 32.7324 20.9743 32.069C20.4055 31.609 19.7211 31.3212 18.9992 31.2383C18.6427 31.2333 18.2869 31.2734 17.94 31.3575C17.8961 31.3617 17.8537 31.3763 17.8163 31.4001C17.779 31.4239 17.7475 31.4563 17.7246 31.4946C17.7017 31.533 17.6879 31.5763 17.6843 31.621C17.6808 31.6657 17.6875 31.7107 17.704 31.7523C17.7834 32.0699 17.9008 32.3764 18.0536 32.6648C18.4283 33.262 18.9789 33.7233 19.6267 33.9829C20.328 34.2622 21.0475 34.4916 21.78 34.6695C22.3064 34.7708 22.8381 34.8415 23.3723 34.8811ZM17.0801 38.5115C17.2811 38.0437 17.4856 37.6222 17.6429 37.1882C18.0099 36.1636 18.2738 35.1177 18.1515 34.0113C18.0781 33.339 17.8981 32.7075 17.4244 32.2024C17.0748 31.8466 16.928 31.8466 16.5802 32.2113C16.151 32.6982 15.8998 33.3207 15.8688 33.974C15.722 35.5642 16.1991 37.0067 16.9088 38.3906C16.921 38.4208 16.9542 38.4208 17.0818 38.5115H17.0801ZM23.3129 27.3517C22.8043 27.4069 22.3586 27.43 21.9146 27.5083C20.8764 27.6861 19.8644 27.9636 18.9852 28.6022C18.5168 28.9419 18.0938 29.3333 17.8631 29.8775C17.5135 30.6851 17.6219 30.9039 18.5081 30.9875C19.2369 31.0586 19.9063 30.8096 20.5181 30.4361C21.6647 29.737 22.5281 28.748 23.2378 27.6114C23.2724 27.5279 23.2982 27.4408 23.3147 27.3517H23.3129ZM10.758 27.3517C10.7388 27.398 10.7196 27.4442 10.6986 27.4905C10.7942 27.672 10.9035 27.8456 11.0255 28.0099C11.5603 28.6253 12.0864 29.255 12.6597 29.826C13.1282 30.2977 13.7096 30.6367 14.3464 30.8096C14.7421 30.9341 15.1563 30.9865 15.5699 30.9644C16.3652 30.8914 16.484 30.6975 16.1817 29.9558C16.0619 29.6462 15.8756 29.3679 15.6363 29.1411C15.2268 28.77 14.7791 28.4449 14.301 28.1717C13.6018 27.784 12.8188 27.615 12.0287 27.4887C11.6093 27.43 11.1863 27.4051 10.7598 27.3606L10.758 27.3517ZM17.0241 23.748C16.9804 23.7658 16.9367 23.7711 16.9245 23.7943C16.1712 25.2386 15.6783 26.7487 15.8898 28.419C15.9436 28.999 16.1796 29.546 16.5627 29.9789C16.9262 30.372 17.087 30.3756 17.4366 29.9789C17.8684 29.4737 18.1154 28.8321 18.1358 28.1628C18.2616 26.6118 17.7862 25.1995 17.108 23.8441C17.0848 23.8112 17.0572 23.7818 17.0259 23.7569L17.0241 23.748ZM17.337 31.128C17.1814 31.0088 17.094 30.895 17.0171 30.9003C16.9402 30.9057 16.8423 31.0195 16.8004 31.1067C16.7864 31.1369 16.9088 31.2845 16.9752 31.2845C17.0416 31.2845 17.1587 31.2187 17.337 31.128Z" fill="#3D2C23"/>
<path fill-rule="evenodd" clip-rule="evenodd" d="M9.43844 17.7466C10.7283 18.1356 11.9206 18.803 12.9342 19.7032C13.9165 20.5588 14.6138 21.5904 14.8918 22.8907C15.1362 24.1323 15.032 25.4188 14.5911 26.6029C14.5688 26.647 14.5406 26.6877 14.5072 26.7239C13.273 26.6074 12.1081 26.0912 11.1835 25.2511C10.2589 24.411 9.62334 23.2913 9.37027 22.0565C9.08578 20.7377 9.07804 19.3727 9.34755 18.0507C9.36677 17.9654 9.39299 17.8818 9.43844 17.7466ZM14.0003 25.9128C14.0545 25.8559 14.0912 25.8345 14.0982 25.8043C14.6069 23.8975 14.3394 22.1614 12.9674 20.6904C12.237 19.9192 11.3692 19.2963 10.4102 18.8547C10.2634 18.7854 10.1061 18.7409 9.91735 18.6769C9.74256 20.1995 9.81073 21.6225 10.3753 22.9761C11.0587 24.6054 12.3644 25.4823 13.9916 25.9128H14.0003Z" fill="#3D2C23"/>
<path fill-rule="evenodd" clip-rule="evenodd" d="M24.5941 17.7446C24.8631 18.7976 24.9395 19.8919 24.8196 20.973C24.7751 21.4254 24.6974 21.8737 24.5871 22.3142C24.1239 24.1926 22.9808 25.491 21.2417 26.2381C20.7068 26.4676 20.137 26.6099 19.5585 26.8002C19.492 26.686 19.4336 26.5671 19.3837 26.4444C19.0505 25.4662 18.937 24.4244 19.0516 23.3957C19.1875 22.2039 19.7111 21.0926 20.539 20.2384C21.6521 19.0593 23.0507 18.1992 24.5941 17.7446ZM24.0855 18.6233C22.6068 19.2939 21.3588 20.1104 20.4919 21.4088C19.5672 22.7945 19.5113 24.31 19.9378 25.8699C20.0007 25.8841 20.0374 25.9055 20.0654 25.8966C22.0265 25.363 23.3863 24.1943 23.9107 22.147C23.9849 21.8588 24.0432 21.5667 24.0855 21.2719C24.2139 20.3939 24.2139 19.5013 24.0855 18.6233Z" fill="#3D2C23"/>
<path fill-rule="evenodd" clip-rule="evenodd" d="M12.0393 31.1137C10.9329 32.4104 9.66217 33.3087 8.00695 33.547C7.09945 33.6589 6.17882 33.5504 5.32049 33.2304C4.04774 32.8021 2.88135 32.0982 1.90167 31.1671C1.90167 31.1119 1.90167 31.0657 1.92265 31.0479C3.21181 29.7712 4.86269 28.9393 6.64187 28.6697C7.9178 28.4794 9.09936 28.7924 10.1935 29.4684C10.8984 29.903 11.5231 30.4598 12.0393 31.1137ZM2.90145 31.0888C3.53942 31.6864 4.51123 32.2112 5.55295 32.574C7.53852 33.2642 9.2689 32.8071 10.7965 31.4036C10.885 31.3173 10.9679 31.2252 11.0447 31.1279C11.0366 31.0967 11.0255 31.0663 11.0115 31.0372C10.9924 31.0086 10.9708 30.9818 10.9468 30.9572C9.39999 29.4524 7.62591 28.9223 5.55295 29.6409C4.59128 29.9586 3.69328 30.449 2.90145 31.0888Z" fill="#3D2C23"/>
<path fill-rule="evenodd" clip-rule="evenodd" d="M32.1606 31.0959C31.6722 31.608 31.1135 32.0454 30.5018 32.3944C29.7468 32.8499 28.9316 33.1931 28.0811 33.4136C27.3895 33.6012 26.6681 33.646 25.9593 33.5452C25.2506 33.4443 24.5688 33.2 23.9544 32.8266C23.1923 32.3841 22.5235 31.793 21.9863 31.087C23.0542 29.8206 24.3266 28.9098 26.0063 28.6679C27.076 28.5132 28.0933 28.7284 29.0843 29.118C30.0349 29.4866 30.9203 30.0099 31.7061 30.6672C31.8529 30.7989 31.998 30.9501 32.1606 31.0959ZM31.1608 31.1279C30.3575 30.4696 29.4438 29.9646 28.4638 29.6373C26.4818 28.9436 24.7479 29.4026 23.2203 30.806C23.1224 30.8967 23.0455 31.0052 22.9371 31.1244C23.7341 31.9533 24.6273 32.558 25.7232 32.7786C27.7909 33.1948 29.4671 32.3037 31.1625 31.1279H31.1608Z" fill="#3D2C23"/>
<path fill-rule="evenodd" clip-rule="evenodd" d="M14.5212 35.4876C14.5806 35.637 14.6488 35.7757 14.696 35.9216C15.4423 38.5381 14.9494 40.7989 12.8415 42.5972C11.9842 43.3315 11.0077 43.9081 9.9558 44.3012C9.79849 44.3617 9.6307 44.3955 9.40348 44.4595C9.32832 43.997 9.22869 43.5701 9.19199 43.1486C9.08583 42.0302 9.17578 40.9016 9.45766 39.8152C10.0624 37.5491 11.5918 36.2577 13.7417 35.6263C13.9165 35.5729 14.1105 35.5374 14.2957 35.5C14.3706 35.4916 14.4459 35.4874 14.5212 35.4876ZM9.90686 43.5363C10.0322 43.5042 10.1559 43.4656 10.2774 43.4207C11.3581 42.9501 12.3245 42.2447 13.1089 41.3538C14.3814 39.881 14.5736 38.1788 14.0738 36.3431C14.0122 36.3305 13.9493 36.3263 13.8867 36.3307C12.429 36.7327 11.2335 37.51 10.5291 38.9098C9.80898 40.3471 9.74606 41.8928 9.90686 43.5363Z" fill="#3D2C23"/>
<path fill-rule="evenodd" clip-rule="evenodd" d="M24.5976 44.4934C24.1309 44.3156 23.7114 44.1662 23.3094 43.9812C22.3516 43.5386 21.4772 42.9288 20.7261 42.1793C19.2072 40.6709 18.7388 38.8335 19.1285 36.7435C19.2072 36.3219 19.3418 35.911 19.4676 35.4343C19.8941 35.5428 20.2646 35.6122 20.6177 35.7332C23.021 36.546 24.4088 38.2234 24.7601 40.7848C24.902 41.773 24.8979 42.7772 24.7479 43.7642C24.7129 43.9847 24.6587 44.2017 24.5976 44.4934ZM19.95 36.2721C19.4257 38.2607 19.6599 40.0075 21.0232 41.4874C21.7607 42.2768 22.64 42.915 23.6135 43.3675C23.7585 43.4277 23.9067 43.4793 24.0575 43.5222C24.0878 43.4486 24.1117 43.3724 24.1291 43.2946C24.2836 42.0555 24.1642 40.7969 23.7796 39.6108C23.1591 37.7787 21.808 36.7826 19.95 36.2721Z" fill="#3D2C23"/>
<path fill-rule="evenodd" clip-rule="evenodd" d="M16.3826 18.41C15.5541 19.2531 16.8406 20.5658 17.6708 19.7209C18.501 18.876 17.2129 17.5633 16.3826 18.41Z" fill="#3D2C23"/>
<path fill-rule="evenodd" clip-rule="evenodd" d="M16.4194 15.1353C15.5891 15.9785 16.8773 17.2912 17.7075 16.4463C18.5378 15.6014 17.2496 14.2904 16.4194 15.1353Z" fill="#3D2C23"/>
<path fill-rule="evenodd" clip-rule="evenodd" d="M13.2015 15.1353C12.3731 15.9785 13.6595 17.2912 14.4897 16.4463C15.3199 15.6014 14.0318 14.2904 13.2015 15.1353Z" fill="#3D2C23"/>
<path fill-rule="evenodd" clip-rule="evenodd" d="M16.3826 11.8606C15.5541 12.7055 16.8406 14.0183 17.6708 13.1716C18.501 12.3249 17.2129 11.0157 16.3826 11.8606Z" fill="#3D2C23"/>
<path fill-rule="evenodd" clip-rule="evenodd" d="M19.6372 15.1353C18.807 15.9785 20.0951 17.2912 20.9254 16.4463C21.7556 15.6014 20.4674 14.2904 19.6372 15.1353Z" fill="#3D2C23"/>
<path fill-rule="evenodd" clip-rule="evenodd" d="M27.597 24.2567C26.4626 23.9561 26.0012 25.7509 27.139 26.0515C28.2769 26.3521 28.7348 24.5573 27.597 24.2567Z" fill="#3D2C23"/>
<path fill-rule="evenodd" clip-rule="evenodd" d="M30.3917 22.631C29.2556 22.3304 28.7942 24.1251 29.9321 24.4257C31.0699 24.7263 31.5278 22.9334 30.3917 22.631Z" fill="#3D2C23"/>
<path fill-rule="evenodd" clip-rule="evenodd" d="M28.7627 19.808C27.6284 19.5074 27.1669 21.3004 28.303 21.6028C29.4392 21.9051 29.9006 20.1086 28.7627 19.808Z" fill="#3D2C23"/>
<path fill-rule="evenodd" clip-rule="evenodd" d="M33.1481 20.9428C32.012 20.6422 31.5506 22.4351 32.6885 22.7375C33.8263 23.0399 34.2843 21.2434 33.1481 20.9428Z" fill="#3D2C23"/>
<path fill-rule="evenodd" clip-rule="evenodd" d="M37.3028 16.2914C36.1667 15.9908 35.7053 17.7855 36.8431 18.0879C37.981 18.3903 38.4389 16.5938 37.3028 16.2914Z" fill="#3D2C23"/>
<path fill-rule="evenodd" clip-rule="evenodd" d="M32.9069 14.7067C31.7708 14.4061 31.3094 16.2008 32.4473 16.5014C33.5851 16.802 34.043 15.009 32.9069 14.7067Z" fill="#3D2C23"/>
<path fill-rule="evenodd" clip-rule="evenodd" d="M38.8566 12.4707C37.7222 12.1683 37.2608 13.9631 38.3969 14.2655C39.533 14.5678 39.9927 12.7713 38.8566 12.4707Z" fill="#3D2C23"/>
<path fill-rule="evenodd" clip-rule="evenodd" d="M42.6477 13.7764C41.5134 13.474 41.0519 15.2687 42.1898 15.5711C43.3277 15.8735 43.7856 14.077 42.6477 13.7764Z" fill="#3D2C23"/>
<path fill-rule="evenodd" clip-rule="evenodd" d="M32.019 25.4554C30.8847 25.1548 30.4232 26.9496 31.5593 27.2502C32.6954 27.5508 33.1569 25.756 32.019 25.4554Z" fill="#3D2C23"/>
<path fill-rule="evenodd" clip-rule="evenodd" d="M28.3153 37.0583C27.9954 35.911 26.2423 36.4144 26.5674 37.5634C26.8925 38.7125 28.6369 38.2091 28.3153 37.0583Z" fill="#3D2C23"/>
<path fill-rule="evenodd" clip-rule="evenodd" d="M31.1119 38.6894C30.792 37.5404 29.0371 38.0437 29.364 39.1946C29.6908 40.3454 31.4282 39.8438 31.1119 38.6894Z" fill="#3D2C23"/>
<path fill-rule="evenodd" clip-rule="evenodd" d="M32.685 35.831C32.3651 34.682 30.6103 35.1853 30.9371 36.3362C31.264 37.487 32.9978 36.9819 32.685 35.831Z" fill="#3D2C23"/>
<path fill-rule="evenodd" clip-rule="evenodd" d="M37.9495 36.6154C37.6296 35.4664 35.8765 35.9698 36.2016 37.1206C36.5267 38.2714 38.2781 37.7663 37.9495 36.6154Z" fill="#3D2C23"/>
<path fill-rule="evenodd" clip-rule="evenodd" d="M41.786 38.259C41.4662 37.1099 39.7113 37.6133 40.0382 38.7642C40.365 39.915 42.1059 39.4098 41.786 38.259Z" fill="#3D2C23"/>
<path fill-rule="evenodd" clip-rule="evenodd" d="M45.1035 35.235C44.7836 34.0877 43.0305 34.5911 43.3556 35.7402C43.6807 36.8892 45.4233 36.3859 45.1035 35.235Z" fill="#3D2C23"/>
<path fill-rule="evenodd" clip-rule="evenodd" d="M33.9347 40.2528C33.6148 39.1056 31.86 39.6089 32.1868 40.758C32.5137 41.9071 34.258 41.4037 33.9347 40.2528Z" fill="#3D2C23"/>
<path fill-rule="evenodd" clip-rule="evenodd" d="M29.5388 41.5478C29.2189 40.3987 27.4641 40.9021 27.7909 42.053C28.1178 43.2038 29.8587 42.6898 29.5388 41.5478Z" fill="#3D2C23"/>
<path fill-rule="evenodd" clip-rule="evenodd" d="M17.5904 44.1769C18.4189 43.332 17.1273 42.0211 16.2988 42.8677C15.4703 43.7144 16.762 45.0236 17.5904 44.1769Z" fill="#3D2C23"/>
<path fill-rule="evenodd" clip-rule="evenodd" d="M17.5607 47.4515C18.3892 46.6048 17.0993 45.2957 16.269 46.1424C15.4388 46.989 16.7322 48.2982 17.5607 47.4515Z" fill="#3D2C23"/>
<path fill-rule="evenodd" clip-rule="evenodd" d="M20.7786 47.4442C21.607 46.5975 20.3154 45.2884 19.4869 46.135C18.6584 46.9817 19.9501 48.2909 20.7786 47.4442Z" fill="#3D2C23"/>
<path fill-rule="evenodd" clip-rule="evenodd" d="M17.6044 50.7262C18.4329 49.8795 17.143 48.5703 16.3127 49.417C15.4825 50.2637 16.7794 51.5729 17.6044 50.7262Z" fill="#3D2C23"/>
<path fill-rule="evenodd" clip-rule="evenodd" d="M14.3447 47.4586C15.1714 46.6137 13.8815 45.3028 13.053 46.1495C12.2245 46.9962 13.5144 48.3053 14.3447 47.4586Z" fill="#3D2C23"/>
<path fill-rule="evenodd" clip-rule="evenodd" d="M6.24155 38.161C7.37242 38.4794 7.86007 36.6935 6.72746 36.3822C5.59485 36.0709 5.11069 37.8426 6.24155 38.161Z" fill="#3D2C23"/>
<path fill-rule="evenodd" clip-rule="evenodd" d="M3.42405 39.7442C4.55491 40.0625 5.04257 38.2749 3.90995 37.9565C2.77734 37.6381 2.29318 39.4258 3.42405 39.7442Z" fill="#3D2C23"/>
<path fill-rule="evenodd" clip-rule="evenodd" d="M5.01111 42.592C6.14197 42.9104 6.62963 41.1228 5.49701 40.8133C4.3644 40.5038 3.8785 42.2736 5.01111 42.592Z" fill="#3D2C23"/>
<path fill-rule="evenodd" clip-rule="evenodd" d="M0.643127 41.3895C1.77399 41.7079 2.26165 39.9221 1.12903 39.6019C-0.00358057 39.2817 -0.489485 41.0711 0.643127 41.3895Z" fill="#3D2C23"/>
<path fill-rule="evenodd" clip-rule="evenodd" d="M1.83872 36.8945C2.96959 37.2129 3.45724 35.4253 2.32463 35.1158C1.19201 34.8063 0.699116 36.5761 1.83872 36.8945Z" fill="#3D2C23"/>
<path fill-rule="evenodd" clip-rule="evenodd" d="M5.64381 25.5072C5.96192 26.6563 7.71677 26.1565 7.39167 25.0056C7.06656 23.8548 5.32745 24.3564 5.64381 25.5072Z" fill="#3D2C23"/>
<path fill-rule="evenodd" clip-rule="evenodd" d="M99.2312 26.875C97.3236 26.6854 95.4051 27.1018 93.7394 28.0668C93.6678 26.1102 93.1679 24.3083 92.009 22.647C91.3641 23.435 91.004 24.3083 90.7156 25.219C90.3993 26.1407 90.2547 27.1143 90.2892 28.0899C88.5413 27.1152 86.7602 26.6829 84.7747 26.8733C85.1366 27.7694 85.66 28.5886 86.318 29.2888C86.9363 30.0231 87.6853 30.632 88.5256 31.0835C86.8511 32.1312 85.6049 33.4759 84.7974 35.2351C85.7797 35.6745 88.1305 35.2031 90.2524 34.1519C90.3084 36.1085 90.8188 37.9014 91.9321 39.5023C92.8061 38.7908 93.5419 36.6172 93.7377 34.1483C95.3716 35.0934 97.2482 35.5138 99.1211 35.3543C98.9568 34.1963 97.3103 32.2824 95.4925 31.1155C97.1315 30.1193 98.4351 28.6408 99.2312 26.875ZM98.2891 34.746C98.2332 34.7869 98.2087 34.8189 98.1807 34.8224C98.1132 34.8337 98.0446 34.8379 97.9762 34.8349C96.9291 34.7786 95.8982 34.5478 94.9245 34.1519C94.2765 33.9079 93.7031 33.4944 93.2623 32.953C93.0275 32.6341 92.844 32.2792 92.7187 31.9018C92.5963 31.546 92.6855 31.4073 93.0368 31.3272C93.3518 31.2502 93.6767 31.2232 93.9999 31.2472C94.6513 31.3225 95.2725 31.5675 95.8037 31.9587C96.7431 32.6393 97.5459 33.4967 98.1685 34.4845C98.2141 34.569 98.2543 34.6563 98.2891 34.746ZM85.6294 34.8811C85.687 34.742 85.7517 34.606 85.8234 34.4738C86.4116 33.5468 87.156 32.7327 88.0222 32.069C88.5912 31.6094 89.2755 31.3216 89.9973 31.2383C90.3538 31.2332 90.7096 31.2733 91.0565 31.3575C91.1004 31.3617 91.1427 31.3763 91.1801 31.4001C91.2175 31.4239 91.2489 31.4563 91.2718 31.4946C91.2948 31.533 91.3086 31.5763 91.3121 31.621C91.3157 31.6657 91.309 31.7107 91.2924 31.7523C91.2138 32.0702 91.0964 32.3767 90.9429 32.6648C90.5713 33.2613 90.0237 33.7228 89.3785 33.9829C88.675 34.2628 87.9531 34.4922 87.2182 34.6695C86.693 34.7708 86.1625 34.8414 85.6294 34.8811ZM91.9217 38.5115C91.7206 38.0437 91.5162 37.6222 91.3606 37.1882C90.9918 36.1636 90.7279 35.1177 90.8502 34.0113C90.9254 33.339 91.1037 32.7075 91.5791 32.2024C91.9287 31.8466 92.0737 31.8466 92.4215 32.2113C92.8506 32.697 93.1024 33.3181 93.1347 33.9704C93.2815 35.5606 92.8043 37.0032 92.0964 38.387C92.079 38.4208 92.0405 38.4208 91.9182 38.5115H91.9217ZM85.6888 27.3517C86.1974 27.4069 86.6431 27.43 87.0871 27.5083C88.1253 27.6861 89.1391 27.9636 90.0165 28.6022C90.4849 28.9419 90.9079 29.3333 91.1386 29.8775C91.4882 30.6851 91.3798 30.9039 90.4954 30.9875C89.7648 31.0586 89.0971 30.8096 88.4836 30.4361C87.3388 29.737 86.4736 28.748 85.7639 27.6114C85.7287 27.528 85.7024 27.4409 85.6853 27.3517H85.6888ZM98.2437 27.3517C98.2629 27.398 98.2821 27.4442 98.3031 27.4905C98.2082 27.6723 98.0988 27.846 97.9762 28.0099C97.4414 28.6253 96.9153 29.255 96.342 29.826C95.8737 30.298 95.2922 30.6371 94.6553 30.8096C94.2624 30.933 93.8512 30.9854 93.4405 30.9644C92.6453 30.8914 92.5282 30.6975 92.8288 29.9558C92.9486 29.6458 93.1356 29.3673 93.3759 29.1411C93.7844 28.7696 94.2316 28.4445 94.7095 28.1717C95.4086 27.784 96.1917 27.615 96.9817 27.4887C97.3907 27.43 97.8172 27.4051 98.2402 27.3606L98.2437 27.3517ZM91.9776 23.748C92.0213 23.7658 92.0667 23.7711 92.079 23.7943C92.8305 25.2386 93.3234 26.7487 93.1119 28.419C93.058 28.9986 92.8227 29.5454 92.4408 29.9789C92.0755 30.372 91.9164 30.3756 91.5581 29.9789C91.1263 29.4737 90.8794 28.8321 90.859 28.1628C90.7331 26.6118 91.2085 25.1995 91.8867 23.8441C91.8954 23.812 91.9374 23.7854 91.9741 23.7569L91.9776 23.748ZM91.663 31.128C91.8203 31.0088 91.9059 30.895 91.9828 30.9003C92.0597 30.9057 92.1576 31.0195 92.1996 31.1067C92.2135 31.1369 92.0912 31.2845 92.0248 31.2845C91.9584 31.2845 91.8413 31.2187 91.663 31.128Z" fill="#3D2C23"/>
<path fill-rule="evenodd" clip-rule="evenodd" d="M99.5703 17.7466C98.2806 18.1361 97.0884 18.8034 96.0746 19.7032C95.0923 20.5588 94.3949 21.5904 94.1187 22.8907C93.8478 24.1589 94.0016 25.3934 94.4176 26.6029C94.4399 26.6475 94.4688 26.6883 94.5032 26.7239C95.7353 26.6048 96.8975 26.0875 97.8196 25.2476C98.7418 24.4077 99.3755 23.2894 99.628 22.0565C99.9125 20.7377 99.9202 19.3727 99.6507 18.0507C99.628 17.9654 99.607 17.8818 99.5703 17.7466ZM95.0084 25.9128C94.9542 25.8559 94.9175 25.8345 94.9105 25.8043C94.4019 23.8975 94.6693 22.1614 96.0414 20.6904C96.7702 19.9205 97.6354 19.2977 98.5915 18.8547C98.7366 18.7854 98.8939 18.7409 99.0826 18.6769C99.2574 20.1995 99.191 21.6225 98.6264 22.9761C97.9413 24.6054 96.6374 25.4823 95.0084 25.9128Z" fill="#3D2C23"/>
<path fill-rule="evenodd" clip-rule="evenodd" d="M84.4076 17.7446C84.1383 18.7976 84.0625 19.8921 84.1839 20.973C84.2298 21.4253 84.308 21.8736 84.4181 22.3142C84.8795 24.1926 86.0226 25.491 87.7635 26.2381C88.2966 26.4676 88.8664 26.6099 89.4449 26.8002C89.5122 26.6864 89.5706 26.5674 89.6197 26.4444C89.9529 25.4662 90.0664 24.4244 89.9518 23.3957C89.8159 22.2039 89.2923 21.0926 88.4644 20.2384C87.351 19.0588 85.9517 18.1986 84.4076 17.7446ZM84.9145 18.6233C86.3932 19.2939 87.6412 20.1104 88.5098 21.4088C89.4345 22.7945 89.4904 24.31 89.0639 25.8699C88.9992 25.8841 88.9625 25.9055 88.9346 25.8966C86.9735 25.363 85.6136 24.1943 85.0805 22.147C85.0055 21.859 84.9471 21.5668 84.9058 21.2719C84.7793 20.3935 84.7822 19.5008 84.9145 18.6233Z" fill="#3D2C23"/>
<path fill-rule="evenodd" clip-rule="evenodd" d="M96.9607 31.1137C98.0671 32.4104 99.3378 33.3087 100.993 33.547C101.9 33.6591 102.821 33.5506 103.679 33.2304C104.952 32.8025 106.119 32.0985 107.098 31.1671C107.098 31.1119 107.098 31.0657 107.077 31.0479C105.789 29.7704 104.138 28.9384 102.358 28.6697C101.084 28.4794 99.9006 28.7924 98.8064 29.4684C98.1019 29.9034 97.4773 30.4602 96.9607 31.1137ZM106.099 31.0888C105.461 31.6864 104.489 32.2112 103.447 32.574C101.461 33.2642 99.731 32.8071 98.2034 31.4036C98.1158 31.315 98.0335 31.2212 97.957 31.1226C97.966 31.0916 97.9771 31.0613 97.9902 31.0319C98.0092 31.0026 98.0308 30.9752 98.0549 30.95C99.6017 29.4452 101.376 28.9152 103.449 29.6338C104.409 29.9542 105.305 30.447 106.095 31.0888H106.099Z" fill="#3D2C23"/>
<path fill-rule="evenodd" clip-rule="evenodd" d="M76.8394 31.0959C77.3274 31.6084 77.8861 32.0459 78.4981 32.3944C79.255 32.851 80.0727 33.1943 80.9259 33.4136C81.6177 33.6012 82.3394 33.6459 83.0484 33.5451C83.7575 33.4443 84.4395 33.2 85.0543 32.8266C85.8157 32.3831 86.4843 31.7921 87.0224 31.087C85.9527 29.8206 84.6803 28.9098 83.0023 28.6679C81.9344 28.5132 80.9154 28.7284 79.9243 29.118C78.9738 29.4866 78.0884 30.0099 77.3025 30.6672C77.147 30.7989 77.0037 30.9501 76.8394 31.0959ZM77.8374 31.1279C78.6406 30.4696 79.5544 29.9646 80.5343 29.6373C82.5182 28.9436 84.2503 29.4026 85.7779 30.806C85.8758 30.8967 85.9527 31.0052 86.0611 31.1244C85.264 31.9533 84.3726 32.558 83.275 32.7786C81.2177 33.1948 79.5276 32.3037 77.8374 31.1279Z" fill="#3D2C23"/>
<path fill-rule="evenodd" clip-rule="evenodd" d="M94.4787 35.4875C94.4127 35.6289 94.3544 35.7738 94.3039 35.9216C93.5576 38.5381 94.0487 40.7989 96.1567 42.5972C97.0142 43.3311 97.9907 43.9077 99.0424 44.3012C99.2014 44.3617 99.3675 44.3955 99.5947 44.4595C99.6716 43.997 99.7695 43.5701 99.8062 43.1486C99.9132 42.0302 99.8232 40.9014 99.5405 39.8152C98.9358 37.5491 97.4064 36.2577 95.2565 35.6263C95.0817 35.5729 94.8877 35.5374 94.7024 35.5C94.6282 35.4916 94.5535 35.4875 94.4787 35.4875ZM99.0931 43.5363C98.9677 43.5042 98.844 43.4656 98.7225 43.4207C97.6418 42.9503 96.6753 42.2448 95.891 41.3538C94.6168 39.881 94.4245 38.1788 94.9244 36.3431C94.9859 36.3305 95.0488 36.3263 95.1114 36.3307C96.5691 36.7327 97.7647 37.51 98.4691 38.9098C99.1909 40.3471 99.2556 41.8928 99.0931 43.5363Z" fill="#3D2C23"/>
<path fill-rule="evenodd" clip-rule="evenodd" d="M84.4024 44.4934C84.8691 44.3156 85.2903 44.1662 85.6906 43.9812C86.6462 43.5383 87.5181 42.9285 88.2669 42.1793C89.7858 40.6709 90.2542 38.8335 89.8662 36.7435C89.7875 36.3219 89.6512 35.911 89.5271 35.4343C89.0989 35.5428 88.7283 35.6122 88.3753 35.7332C85.9737 36.546 84.5842 38.2234 84.2346 40.7848C84.0916 41.7705 84.0958 42.7726 84.2468 43.757C84.287 43.9847 84.3412 44.2017 84.4024 44.4934ZM89.0499 36.2721C89.5743 38.2607 89.3418 40.0075 87.9768 41.4874C87.2396 42.2772 86.3602 42.9154 85.3864 43.3675C85.2415 43.4277 85.0932 43.4793 84.9425 43.5222C84.9122 43.4486 84.8882 43.3724 84.8708 43.2946C84.7163 42.0555 84.8358 40.7969 85.2204 39.6108C85.8409 37.7787 87.1937 36.7826 89.0499 36.2721Z" fill="#3D2C23"/>
<path fill-rule="evenodd" clip-rule="evenodd" d="M92.6173 18.41C93.4475 19.2531 92.1593 20.5658 91.3291 19.7209C90.4988 18.876 91.787 17.5633 92.6173 18.41Z" fill="#3D2C23"/>
<path fill-rule="evenodd" clip-rule="evenodd" d="M92.5806 15.1353C93.4109 15.9785 92.1227 17.2912 91.2925 16.4463C90.4622 15.6014 91.7504 14.2904 92.5806 15.1353Z" fill="#3D2C23"/>
<path fill-rule="evenodd" clip-rule="evenodd" d="M95.7984 15.1353C96.6286 15.9785 95.3405 17.2912 94.5102 16.4463C93.68 15.6014 94.9682 14.2904 95.7984 15.1353Z" fill="#3D2C23"/>
<path fill-rule="evenodd" clip-rule="evenodd" d="M92.6173 11.8606C93.4475 12.7055 92.1593 14.0183 91.3291 13.1716C90.4988 12.3249 91.787 11.0157 92.6173 11.8606Z" fill="#3D2C23"/>
<path fill-rule="evenodd" clip-rule="evenodd" d="M89.3645 15.1353C90.193 15.9785 88.9048 17.2912 88.0746 16.4463C87.2444 15.6014 88.5325 14.2904 89.3645 15.1353Z" fill="#3D2C23"/>
<path fill-rule="evenodd" clip-rule="evenodd" d="M81.4031 24.2567C82.5374 23.9561 82.9989 25.7509 81.8627 26.0515C80.7266 26.3521 80.2652 24.5573 81.4031 24.2567Z" fill="#3D2C23"/>
<path fill-rule="evenodd" clip-rule="evenodd" d="M78.6099 22.631C79.7443 22.3304 80.2057 24.1251 79.0679 24.4257C77.93 24.7263 77.4721 22.9334 78.6099 22.631Z" fill="#3D2C23"/>
<path fill-rule="evenodd" clip-rule="evenodd" d="M80.2372 19.808C81.3716 19.5074 81.833 21.3004 80.6969 21.6028C79.5608 21.9051 79.1011 20.1086 80.2372 19.808Z" fill="#3D2C23"/>
<path fill-rule="evenodd" clip-rule="evenodd" d="M75.857 20.9428C76.9932 20.6422 77.4546 22.4351 76.3167 22.7375C75.1789 23.0399 74.7157 21.2434 75.857 20.9428Z" fill="#3D2C23"/>
<path fill-rule="evenodd" clip-rule="evenodd" d="M71.6989 16.2914C72.8333 15.9908 73.2947 17.7855 72.1569 18.0879C71.019 18.3903 70.5611 16.5938 71.6989 16.2914Z" fill="#3D2C23"/>
<path fill-rule="evenodd" clip-rule="evenodd" d="M76.0947 14.7067C77.2291 14.4061 77.6905 16.2008 76.5527 16.5014C75.4148 16.802 74.9569 15.009 76.0947 14.7067Z" fill="#3D2C23"/>
<path fill-rule="evenodd" clip-rule="evenodd" d="M70.1433 12.4707C71.2794 12.1683 71.7408 13.9631 70.603 14.2655C69.4651 14.5678 69.0072 12.7713 70.1433 12.4707Z" fill="#3D2C23"/>
<path fill-rule="evenodd" clip-rule="evenodd" d="M66.3522 13.7764C67.4866 13.474 67.948 15.2687 66.8119 15.5711C65.6758 15.8735 65.2144 14.077 66.3522 13.7764Z" fill="#3D2C23"/>
<path fill-rule="evenodd" clip-rule="evenodd" d="M76.9809 25.4554C78.1153 25.1548 78.5767 26.9496 77.4406 27.2502C76.3045 27.5508 75.8448 25.756 76.9809 25.4554Z" fill="#3D2C23"/>
<path fill-rule="evenodd" clip-rule="evenodd" d="M80.6829 37.0583C81.0028 35.911 82.7559 36.4144 82.4308 37.5634C82.1057 38.7125 80.3631 38.2091 80.6829 37.0583Z" fill="#3D2C23"/>
<path fill-rule="evenodd" clip-rule="evenodd" d="M77.8916 38.6894C78.2114 37.5404 79.9663 38.0437 79.6394 39.1946C79.3126 40.3454 77.5717 39.8438 77.8916 38.6894Z" fill="#3D2C23"/>
<path fill-rule="evenodd" clip-rule="evenodd" d="M76.322 35.831C76.6419 34.682 78.3967 35.1853 78.0699 36.3362C77.743 37.487 76.0021 36.9819 76.322 35.831Z" fill="#3D2C23"/>
<path fill-rule="evenodd" clip-rule="evenodd" d="M71.0505 36.6154C71.3703 35.4664 73.1252 35.9698 72.7983 37.1206C72.4715 38.2714 70.7306 37.7663 71.0505 36.6154Z" fill="#3D2C23"/>
<path fill-rule="evenodd" clip-rule="evenodd" d="M67.2139 38.259C67.5338 37.1099 69.2886 37.6133 68.9618 38.7642C68.6349 39.915 66.8941 39.4098 67.2139 38.259Z" fill="#3D2C23"/>
<path fill-rule="evenodd" clip-rule="evenodd" d="M63.8965 35.235C64.2163 34.0877 65.9712 34.5911 65.6443 35.7402C65.3175 36.8892 63.5766 36.3859 63.8965 35.235Z" fill="#3D2C23"/>
<path fill-rule="evenodd" clip-rule="evenodd" d="M75.0653 40.2528C75.3851 39.1056 77.14 39.6089 76.8131 40.758C76.4863 41.9071 74.7454 41.4037 75.0653 40.2528Z" fill="#3D2C23"/>
<path fill-rule="evenodd" clip-rule="evenodd" d="M79.4612 41.5478C79.781 40.3987 81.5359 40.9021 81.209 42.053C80.8822 43.2038 79.1413 42.6898 79.4612 41.5478Z" fill="#3D2C23"/>
<path fill-rule="evenodd" clip-rule="evenodd" d="M91.4131 44.1769C90.5863 43.332 91.8762 42.0211 92.7047 42.8677C93.5332 43.7144 92.238 45.0236 91.4131 44.1769Z" fill="#3D2C23"/>
<path fill-rule="evenodd" clip-rule="evenodd" d="M91.4393 47.4515C90.6108 46.6048 91.9025 45.2957 92.7309 46.1424C93.5594 46.989 92.2678 48.2982 91.4393 47.4515Z" fill="#3D2C23"/>
<path fill-rule="evenodd" clip-rule="evenodd" d="M88.2214 47.4442C87.3947 46.5975 88.6846 45.2884 89.5131 46.135C90.3416 46.9817 89.0499 48.2909 88.2214 47.4442Z" fill="#3D2C23"/>
<path fill-rule="evenodd" clip-rule="evenodd" d="M91.3956 50.7262C90.5671 49.8795 91.8588 48.5703 92.6872 49.417C93.5157 50.2637 92.2241 51.5729 91.3956 50.7262Z" fill="#3D2C23"/>
<path fill-rule="evenodd" clip-rule="evenodd" d="M94.657 47.4586C93.8285 46.6137 95.1185 45.3028 95.9487 46.1495C96.7789 46.9962 95.4855 48.3053 94.657 47.4586Z" fill="#3D2C23"/>
<path fill-rule="evenodd" clip-rule="evenodd" d="M102.758 38.161C101.628 38.4794 101.14 36.6935 102.273 36.3822C103.405 36.0709 103.891 37.8426 102.758 38.161Z" fill="#3D2C23"/>
<path fill-rule="evenodd" clip-rule="evenodd" d="M105.571 39.7442C104.44 40.0625 103.952 38.2749 105.085 37.9565C106.217 37.6381 106.709 39.4258 105.571 39.7442Z" fill="#3D2C23"/>
<path fill-rule="evenodd" clip-rule="evenodd" d="M103.998 42.592C102.869 42.9104 102.381 41.1228 103.512 40.8133C104.643 40.5038 105.122 42.2736 103.998 42.592Z" fill="#3D2C23"/>
<path fill-rule="evenodd" clip-rule="evenodd" d="M108.357 41.3895C107.226 41.7079 106.738 39.9221 107.871 39.6019C109.004 39.2817 109.489 41.0711 108.357 41.3895Z" fill="#3D2C23"/>
<path fill-rule="evenodd" clip-rule="evenodd" d="M107.161 36.8945C106.032 37.2129 105.544 35.4253 106.675 35.1158C107.806 34.8063 108.294 36.5761 107.161 36.8945Z" fill="#3D2C23"/>
<path fill-rule="evenodd" clip-rule="evenodd" d="M103.356 25.5072C103.04 26.6563 101.283 26.1565 101.608 25.0056C101.933 23.8548 103.673 24.3564 103.356 25.5072Z" fill="#3D2C23"/>
</g>
<defs>
<clipPath id="clip0_99_199">
<rect width="109" height="51" fill="white"/>
</clipPath>
</defs>
</svg>
