<svg width="18" height="18" viewBox="0 0 18 18" fill="none" xmlns="http://www.w3.org/2000/svg">
<path d="M15.4722 11.9722C14.5389 11.9722 13.5278 11.8167 12.6722 11.5056H12.4389C12.2056 11.5056 12.05 11.5833 11.8944 11.7389L10.1833 13.45C8.00556 12.2833 6.13889 10.4944 5.05 8.31667L6.76111 6.60556C6.99444 6.37222 7.07222 6.06111 6.91667 5.82778C6.68333 4.97222 6.52778 3.96111 6.52778 3.02778C6.52778 2.63889 6.13889 2.25 5.75 2.25H3.02778C2.63889 2.25 2.25 2.63889 2.25 3.02778C2.25 10.3389 8.16111 16.25 15.4722 16.25C15.8611 16.25 16.25 15.8611 16.25 15.4722V12.75C16.25 12.3611 15.8611 11.9722 15.4722 11.9722ZM3.80556 3.80556H4.97222C5.05 4.50556 5.20556 5.20556 5.36111 5.82778L4.42778 6.76111C4.11667 5.82778 3.88333 4.81667 3.80556 3.80556ZM14.6944 14.6944C13.6833 14.6167 12.6722 14.3833 11.7389 14.0722L12.6722 13.1389C13.2944 13.2944 13.9944 13.45 14.6944 13.45V14.6944ZM11.5833 9.25H13.1389C13.1389 8.2186 12.7292 7.22945 11.9999 6.50014C11.2706 5.77083 10.2814 5.36111 9.25 5.36111V6.91667C9.86884 6.91667 10.4623 7.1625 10.8999 7.60008C11.3375 8.03767 11.5833 8.63116 11.5833 9.25ZM14.6944 9.25H16.25C16.25 5.36111 13.1156 2.25 9.25 2.25V3.80556C12.2522 3.80556 14.6944 6.24 14.6944 9.25Z" fill="#3D2C23"/>
</svg>
