<svg aria-hidden="true" style="position: absolute; width: 0; height: 0; overflow: hidden;" version="1.1" xmlns="http://www.w3.org/2000/svg" xmlns:xlink="http://www.w3.org/1999/xlink">
<defs>
<symbol id="icon-envelope-footer" viewBox="0 0 45 32">
<path stroke-linejoin="round" stroke-linecap="round" stroke-miterlimit="4" stroke-width="2.8235" d="M33.129 1.882h-21.082c-1.449 0-2.635 1.165-2.635 2.588v15.529c0 1.424 1.186 2.588 2.635 2.588h21.082c1.449 0 2.635-1.165 2.635-2.588v-15.529c0-1.424-1.186-2.588-2.635-2.588z"></path>
<path stroke-linejoin="round" stroke-linecap="round" stroke-miterlimit="4" stroke-width="2.8235" d="M9.412 3.953l13.176 10.353 13.176-10.353"></path>
</symbol>
<symbol id="icon-telegram-footer" viewBox="0 0 40 32">
<path d="M3.72 14.262c0 0 16.65-6.715 22.425-9.079 2.214-0.946 9.721-3.972 9.721-3.972s3.465-1.324 3.176 1.891c-0.096 1.324-0.866 5.958-1.636 10.971-1.155 7.093-2.406 14.848-2.406 14.848s-0.192 2.175-1.829 2.554c-1.636 0.378-4.331-1.324-4.812-1.702-0.385-0.284-7.218-4.54-9.721-6.62-0.674-0.567-1.444-1.702 0.096-3.026 3.465-3.121 7.603-6.998 10.106-9.457 1.155-1.135 2.31-3.783-2.502-0.568-6.833 4.634-13.57 8.985-13.57 8.985s-1.54 0.946-4.427 0.095c-2.887-0.851-6.256-1.986-6.256-1.986s-2.31-1.419 1.636-2.932z"></path>
</symbol>
<symbol id="icon-vk-footer" viewBox="0 0 50 32">
<path d="M49.171 3.668c0.338-1.126 0-1.953-1.607-1.953h-5.314c-1.351 0-1.974 0.715-2.312 1.503 0 0-2.702 6.587-6.53 10.865-1.238 1.238-1.802 1.633-2.477 1.633-0.338 0-0.827-0.394-0.827-1.52v-10.527c0-1.351-0.392-1.953-1.518-1.953h-8.35c-0.844 0-1.352 0.627-1.352 1.221 0 1.281 1.914 1.576 2.111 5.179v7.825c0 1.716-0.31 2.027-0.985 2.027-1.801 0-6.183-6.616-8.782-14.186-0.509-1.471-1.020-2.066-2.378-2.066h-5.314c-1.518 0-1.822 0.715-1.822 1.503 0 1.407 1.801 8.388 8.388 17.62 4.391 6.305 10.578 9.723 16.207 9.723 3.378 0 3.796-0.759 3.796-2.067v-4.765c0-1.518 0.32-1.821 1.39-1.821 0.788 0 2.139 0.394 5.292 3.434 3.603 3.603 4.197 5.219 6.223 5.219h5.314c1.518 0 2.277-0.759 1.839-2.257-0.479-1.493-2.199-3.659-4.482-6.227-1.239-1.464-3.096-3.040-3.659-3.828-0.788-1.013-0.563-1.464 0-2.364 0 0 6.474-9.12 7.15-12.216z"></path>
</symbol>
<symbol id="icon-logo-footer-mobile" viewBox="0 0 68 32">
<path d="M21.217 17.522c0.026-1.266 0.511-2.338 1.311-3.292 1.755-2.097 4.068-3.259 6.598-4.045 0.294-0.092 0.319-0.189 0.219-0.468-0.403-1.097-0.428-2.301-0.069-3.414s1.079-2.068 2.043-2.709c0.29-0.194 0.304-0.358 0.196-0.645-0.324-0.904-0.932-1.674-1.731-2.19-0.135-0.088-0.272-0.17-0.297-0.353-0.013-0.067-0.005-0.136 0.022-0.197s0.072-0.114 0.13-0.149c0.167-0.112 0.329-0.051 0.48 0.046 0.923 0.588 1.614 1.387 1.992 2.426 0.145 0.4 0.259 0.52 0.704 0.377 0.967-0.305 2.004-0.288 2.961 0.049 0.255 0.086 0.329 0.029 0.412-0.213 0.361-1.077 1.073-1.995 2.018-2.604 0.157-0.105 0.317-0.203 0.508-0.097 0.284 0.154 0.249 0.469-0.091 0.693-0.759 0.497-1.354 1.215-1.706 2.060-0.171 0.396-0.128 0.606 0.25 0.868 0.926 0.648 1.613 1.591 1.953 2.681s0.313 2.264-0.075 3.337c-0.116 0.326-0.046 0.42 0.258 0.511 2.095 0.633 4.036 1.576 5.669 3.080 1.018 0.939 1.864 2.009 2.124 3.443 0.247 1.353-0.128 2.547-0.877 3.65-0.383 0.547-0.824 1.050-1.316 1.498-0.086 0.083-0.188 0.146-0.299 0.188s-0.229 0.059-0.347 0.052c-1.298-0.023-2.443-0.499-3.5-1.228-0.351-0.236-0.685-0.497-1-0.781-0.239-0.223-0.284-0.145-0.356 0.123-0.589 2.289-1.866 4.334-3.652 5.848-0.395 0.335-0.824 0.626-1.246 0.924-0.23 0.163-0.399 0.155-0.634 0-2.472-1.612-4.101-3.857-4.886-6.733-0.11-0.407-0.204-0.306-0.43-0.112-1.162 1.011-2.449 1.757-4.006 1.94-0.538 0.064-0.956-0.051-1.348-0.463-0.954-1.005-1.749-2.079-1.959-3.505-0.011-0.079-0.026-0.16-0.030-0.24 0.003-0.119 0.008-0.241 0.008-0.358zM39.81 11.161c-0.018-0.066-0.055-0.065-0.101-0.030l0.071 0.066c0.638 0.67 1.272 1.349 1.916 2.016 1.462 1.508 2.925 3.013 4.387 4.513 0.087 0.088 0.147 0.223 0.319 0.232 0.018-0.047 0.031-0.095 0.038-0.145 0.011-0.174 0.011-0.348 0-0.522-0.151-1.749-1.246-2.893-2.463-3.952-0.377-0.3-0.777-0.568-1.197-0.802-0.939-0.571-1.904-1.086-2.971-1.375zM28.556 11.161c-0.102 0.020-0.203 0.046-0.302 0.077-1.588 0.598-3.071 1.401-4.346 2.536-0.877 0.775-1.584 1.683-1.871 2.861-0.11 0.446-0.19 0.893-0.026 1.483 0.072-0.12 0.152-0.235 0.239-0.344 1.152-1.212 2.316-2.406 3.474-3.599 0.956-0.989 1.922-1.969 2.877-2.961 0.015-0.032 0.101-0.039 0.036-0.097-0.007-0.011-0.050 0.025-0.077 0.045h-0.004zM30.075 9.57c2.746-2.119 5.488-2.119 8.225 0 0.791-1.578 0.205-3.906-1.301-5.134-0.809-0.649-1.81-0.999-2.84-0.993s-2.027 0.368-2.829 1.027c-1.476 1.244-2.049 3.585-1.251 5.097l-0.004 0.003zM34.158 19.706c1.411 0 2.823 0 4.234 0 0.142 0 0.329 0.092 0.416-0.119 0.042-0.091 0.053-0.194 0.034-0.292s-0.070-0.188-0.143-0.256c-0.658-0.735-1.222-1.551-1.679-2.43-0.025-0.068-0.071-0.126-0.132-0.165s-0.132-0.057-0.203-0.051c-1.661 0.006-3.323 0.006-4.986 0-0.071-0.007-0.143 0.008-0.205 0.045s-0.111 0.092-0.14 0.158c-0.468 0.9-1.046 1.736-1.72 2.489-0.138 0.156-0.123 0.311-0.070 0.485 0.064 0.211 0.236 0.135 0.365 0.135 1.411 0 2.823-0.002 4.233-0.002l-0.004 0.003zM34.181 20.433c-1.358 0-2.714 0-4.072 0-0.243 0-0.329 0.032-0.238 0.309 0.343 1.014 0.829 1.973 1.442 2.846 0.042 0.067 0.102 0.12 0.172 0.155s0.148 0.049 0.226 0.042c1.634-0.007 3.268-0.007 4.901 0 0.103 0.005 0.206-0.019 0.297-0.069s0.166-0.125 0.218-0.217c0.572-0.84 1.032-1.753 1.368-2.717 0.096-0.276 0.081-0.363-0.238-0.359-1.357 0.016-2.714 0.007-4.071 0.007l-0.004 0.003zM28.936 15.333l-0.141-0.086c-0.281 0.319-0.573 0.628-0.839 0.96-0.115 0.156-0.268 0.279-0.445 0.355s-0.37 0.104-0.56 0.079c-0.251-0.026-0.401 0.077-0.548 0.291-0.835 1.252-1.689 2.491-2.53 3.738-0.081 0.121-0.279 0.233-0.167 0.402s0.287 0.354 0.554 0.309c0.285-0.048 0.577-0.065 0.856-0.132 1.426-0.335 2.542-1.186 3.564-2.199 0.036-0.029 0.065-0.066 0.086-0.108s0.034-0.087 0.037-0.134c0.047-1.161 0.093-2.321 0.137-3.48l-0.004 0.003zM39.562 17.219c0 0.496 0 0.99 0 1.486-0.002 0.073 0.012 0.145 0.041 0.212s0.072 0.126 0.126 0.174c0.633 0.646 1.355 1.197 2.142 1.634 0.676 0.364 1.417 0.588 2.179 0.659 0.118 0.015 0.238-0.004 0.345-0.056s0.198-0.135 0.26-0.238c0.137-0.202-0.084-0.31-0.17-0.436-0.816-1.218-1.645-2.423-2.461-3.643-0.17-0.255-0.344-0.411-0.665-0.373-0.366 0.044-0.658-0.105-0.903-0.392-0.171-0.203-0.373-0.378-0.56-0.566-0.093-0.093-0.118-0.112-0.219-0.086-0.135 0.023-0.118 0.195-0.121 0.315 0 0.453-0.024 1.307 0.010 1.307l-0.004 0.003zM34.188 15.662c0.685 0 1.371-0.010 2.055 0 0.249 0.006 0.298-0.093 0.233-0.305-0.035-0.112-0.079-0.223-0.123-0.335-0.359-0.91-0.542-1.845-0.377-2.825 0.029-0.172-0.008-0.252-0.177-0.271-1.062-0.113-2.133-0.113-3.195 0-0.144 0.014-0.257 0.058-0.195 0.253 0.098 0.319 0.034 0.645 0.016 0.968-0.044 0.749-0.214 1.484-0.501 2.175-0.131 0.319-0.048 0.342 0.208 0.34l2.055-0.001zM37.659 10.102c-1.725-1.91-5.509-1.713-6.915 0.010 0.53 0.209 0.987 0.517 1.283 1.019 0.080 0.134 0.185 0.126 0.306 0.112 1.227-0.17 2.472-0.17 3.699 0 0.11 0.016 0.231 0.050 0.313-0.089 0.302-0.527 0.769-0.839 1.313-1.055l0.001 0.003zM43.272 15.905c0 0.022 0.010-0.012 0-0.027-0.955-0.997-1.912-1.993-2.87-2.987-0.491-0.509-1.012-0.992-1.484-1.52-0.658-0.732-1.097-0.781-1.737-0.112-0.009 0.010-0.018 0.020-0.027 0.029-0.219 0.206-0.247 0.376 0 0.619 1.277 1.257 2.536 2.535 3.801 3.804 0.082 0.083 0.154 0.194 0.287 0.194 0.674-0.007 1.352-0.008 2.029-0.008l0.001 0.007zM25.067 15.912c0.018 0.029 0.035 0.057 0.052 0.086 0.538-0.025 1.076-0.069 1.613-0.066 0.163 0.011 0.325-0.017 0.475-0.083s0.281-0.168 0.383-0.297c0.235-0.283 0.52-0.522 0.78-0.781 0.972-0.976 1.937-1.958 2.917-2.924 0.175-0.173 0.172-0.292 0.026-0.463-0.228-0.261-0.516-0.46-0.839-0.579-0.098-0.051-0.209-0.065-0.316-0.040s-0.202 0.087-0.268 0.175c-0.995 1.047-2.007 2.077-3.013 3.113l-1.81 1.861zM31.695 12.489c-0.607 0.478-1.055 1.065-1.595 1.549-0.153 0.132-0.274 0.299-0.354 0.486s-0.117 0.391-0.108 0.595c-0.007 0.642-0.031 1.283-0.043 1.925-0.005 0.285 0 0.57 0 0.893 1.175-1.349 2.351-3.859 2.099-5.449zM36.616 12.427c0 2.201 0.95 3.885 2.141 5.474 0.034-0.132 0.047-0.27 0.039-0.406-0.026-0.776-0.091-1.552-0.070-2.327 0.013-0.458-0.047-0.805-0.424-1.109-0.576-0.463-0.997-1.095-1.686-1.632zM42.716 16.741c0.824 1.212 1.63 2.4 2.438 3.586 0.11 0.157 0.177 0.031 0.237-0.047 0.267-0.348 0.501-0.722 0.698-1.116 0.101-0.203 0.082-0.329-0.077-0.488-0.575-0.574-1.135-1.162-1.701-1.743-0.082-0.086-0.161-0.186-0.293-0.187-0.416-0.004-0.831-0.004-1.302-0.004zM25.668 16.741h-1.241c-0.059 0.001-0.117 0.014-0.171 0.039s-0.102 0.062-0.14 0.107c-0.591 0.613-1.183 1.224-1.777 1.833-0.102 0.105-0.154 0.203-0.083 0.355 0.202 0.437 0.454 0.849 0.749 1.228 0.11 0.134 0.168 0.119 0.259-0.016 0.79-1.17 1.584-2.335 2.405-3.546zM32.091 24.525c0.565 0.639 1.208 1.202 1.914 1.674 0.082 0.056 0.156 0.147 0.28 0.065 0.74-0.482 1.412-1.066 1.996-1.734l-4.189-0.004z"></path>
<path d="M6.131 16.863c1.197-0.119 2.4 0.142 3.445 0.748 0.046-1.228 0.359-2.358 1.086-3.401 0.405 0.494 0.631 1.042 0.812 1.614 0.199 0.578 0.29 1.189 0.268 1.801 1.097-0.612 2.214-0.883 3.46-0.763-0.227 0.562-0.555 1.076-0.968 1.516-0.388 0.461-0.858 0.843-1.385 1.126 1.051 0.657 1.833 1.501 2.339 2.605-0.616 0.276-2.091-0.020-3.422-0.68-0.035 1.228-0.356 2.353-1.055 3.357-0.554-0.446-1.010-1.81-1.132-3.359-1.026 0.593-2.203 0.857-3.379 0.757 0.103-0.727 1.136-1.927 2.277-2.66-1.028-0.625-1.846-1.553-2.345-2.661zM6.722 21.801c0.034 0.026 0.049 0.046 0.067 0.048 0.042 0.007 0.085 0.010 0.128 0.008 0.657-0.035 1.304-0.18 1.915-0.429 0.406-0.155 0.764-0.417 1.039-0.758 0.147-0.2 0.262-0.423 0.341-0.66 0.077-0.223 0.021-0.31-0.2-0.361-0.198-0.048-0.402-0.065-0.604-0.050-0.409 0.047-0.799 0.201-1.132 0.446-0.588 0.429-1.089 0.969-1.476 1.59-0.030 0.052-0.056 0.107-0.078 0.164zM14.665 21.886c-0.068-0.143-0.089-0.203-0.123-0.256-0.37-0.582-0.838-1.093-1.382-1.509-0.357-0.289-0.786-0.469-1.239-0.521-0.224-0.003-0.447 0.022-0.665 0.075-0.028 0.003-0.054 0.012-0.078 0.027s-0.043 0.035-0.058 0.059c-0.014 0.024-0.023 0.051-0.025 0.079s0.002 0.056 0.012 0.082c0.050 0.199 0.123 0.392 0.219 0.573 0.235 0.375 0.581 0.664 0.987 0.827 0.44 0.175 0.891 0.319 1.351 0.431 0.33 0.064 0.664 0.108 0.999 0.133zM10.717 24.164c0.126-0.294 0.254-0.558 0.353-0.83 0.23-0.643 0.396-1.299 0.319-1.993-0.046-0.422-0.159-0.818-0.456-1.135-0.219-0.223-0.311-0.223-0.53 0.006-0.269 0.305-0.427 0.696-0.446 1.106-0.092 0.998 0.207 1.903 0.653 2.771 0.008 0.019 0.028 0.019 0.109 0.076h-0.001zM14.628 17.162c-0.319 0.035-0.599 0.049-0.877 0.098-0.651 0.112-1.286 0.286-1.838 0.686-0.294 0.213-0.559 0.459-0.704 0.8-0.219 0.507-0.151 0.644 0.405 0.696 0.457 0.045 0.877-0.112 1.261-0.346 0.719-0.439 1.261-1.059 1.706-1.772 0.022-0.052 0.038-0.107 0.048-0.163h-0.001zM6.75 17.162c-0.012 0.029-0.024 0.058-0.037 0.087 0.060 0.114 0.129 0.223 0.205 0.326 0.336 0.386 0.666 0.781 1.025 1.139 0.294 0.296 0.659 0.509 1.058 0.617 0.248 0.078 0.508 0.111 0.768 0.097 0.499-0.046 0.574-0.167 0.384-0.633-0.075-0.194-0.192-0.369-0.342-0.511-0.257-0.233-0.538-0.437-0.838-0.608-0.439-0.243-0.93-0.349-1.426-0.429-0.263-0.037-0.529-0.052-0.796-0.080l-0.001-0.006zM10.682 14.901c-0.027 0.011-0.055 0.014-0.063 0.029-0.473 0.906-0.782 1.854-0.649 2.902 0.034 0.364 0.182 0.707 0.422 0.979 0.228 0.247 0.329 0.249 0.548 0 0.271-0.317 0.426-0.72 0.439-1.139 0.079-0.973-0.219-1.859-0.645-2.71-0.015-0.021-0.032-0.039-0.052-0.055l-0.001-0.006zM10.878 19.531c-0.098-0.075-0.152-0.146-0.201-0.143s-0.11 0.075-0.136 0.13c-0.009 0.019 0.068 0.112 0.11 0.112s0.115-0.041 0.227-0.098z"></path>
<path d="M5.922 11.135c0.809 0.244 1.557 0.663 2.193 1.228 0.616 0.537 1.054 1.184 1.228 2 0.153 0.779 0.088 1.586-0.189 2.329-0.014 0.028-0.032 0.053-0.053 0.076-0.774-0.073-1.505-0.397-2.085-0.924s-0.979-1.23-1.138-2.004c-0.178-0.827-0.183-1.684-0.014-2.513 0.012-0.054 0.029-0.106 0.057-0.191zM8.784 16.259c0.034-0.036 0.057-0.049 0.061-0.068 0.319-1.196 0.151-2.286-0.71-3.209-0.458-0.484-1.003-0.875-1.605-1.152-0.092-0.043-0.191-0.071-0.309-0.112-0.11 0.955-0.067 1.848 0.287 2.698 0.429 1.022 1.248 1.573 2.269 1.843h0.005z"></path>
<path d="M15.432 11.134c0.169 0.661 0.217 1.347 0.142 2.026-0.028 0.284-0.077 0.565-0.146 0.842-0.291 1.179-1.008 1.993-2.099 2.462-0.336 0.144-0.693 0.233-1.056 0.353-0.042-0.072-0.078-0.146-0.11-0.223-0.209-0.614-0.28-1.267-0.208-1.913 0.085-0.748 0.414-1.445 0.933-1.981 0.698-0.74 1.576-1.28 2.544-1.565zM15.112 11.685c-0.928 0.421-1.711 0.933-2.255 1.748-0.58 0.869-0.615 1.82-0.348 2.799 0.039 0.009 0.063 0.022 0.080 0.017 1.23-0.335 2.084-1.068 2.413-2.353 0.047-0.181 0.083-0.364 0.11-0.549 0.081-0.551 0.081-1.111 0-1.662z"></path>
<path d="M7.554 19.522c-0.694 0.814-1.492 1.377-2.53 1.527-0.569 0.070-1.147 0.002-1.686-0.199-0.799-0.269-1.53-0.71-2.145-1.295 0-0.035 0-0.064 0.013-0.075 0.809-0.801 1.845-1.323 2.961-1.492 0.801-0.119 1.542 0.077 2.228 0.501 0.442 0.273 0.834 0.622 1.158 1.032zM1.821 19.507c0.4 0.375 1.010 0.704 1.664 0.932 1.246 0.433 2.332 0.146 3.29-0.734 0.056-0.054 0.108-0.112 0.156-0.173-0.005-0.020-0.012-0.039-0.021-0.057-0.012-0.018-0.026-0.035-0.041-0.050-0.971-0.944-2.084-1.277-3.384-0.826-0.603 0.199-1.167 0.507-1.664 0.909z"></path>
<path d="M20.179 19.511c-0.306 0.321-0.657 0.596-1.041 0.815-0.474 0.286-0.985 0.501-1.519 0.64-0.434 0.118-0.887 0.146-1.331 0.083s-0.872-0.217-1.258-0.451c-0.478-0.278-0.898-0.649-1.235-1.091 0.67-0.795 1.468-1.366 2.522-1.518 0.671-0.097 1.309 0.038 1.931 0.282 0.596 0.231 1.152 0.56 1.645 0.972 0.092 0.083 0.183 0.177 0.285 0.269zM19.552 19.531c-0.504-0.413-1.077-0.73-1.692-0.935-1.244-0.435-2.332-0.147-3.29 0.733-0.061 0.057-0.11 0.125-0.178 0.2 0.5 0.52 1.061 0.899 1.748 1.038 1.297 0.261 2.349-0.298 3.413-1.036h-0.001z"></path>
<path d="M9.111 22.267c0.037 0.094 0.080 0.181 0.11 0.272 0.468 1.642 0.159 3.060-1.164 4.189-0.538 0.461-1.151 0.823-1.811 1.069-0.099 0.038-0.204 0.059-0.347 0.099-0.047-0.29-0.11-0.558-0.133-0.823-0.067-0.702-0.010-1.41 0.167-2.092 0.379-1.422 1.339-2.232 2.688-2.628 0.11-0.034 0.231-0.056 0.348-0.079 0.047-0.005 0.094-0.008 0.142-0.008zM6.216 27.317c0.079-0.020 0.156-0.044 0.232-0.073 0.678-0.295 1.284-0.738 1.777-1.297 0.798-0.924 0.919-1.992 0.605-3.144-0.039-0.008-0.078-0.011-0.117-0.008-0.915 0.252-1.665 0.74-2.107 1.618-0.452 0.902-0.491 1.872-0.39 2.903z"></path>
<path d="M15.434 27.917c-0.293-0.112-0.556-0.205-0.808-0.321-0.601-0.278-1.15-0.66-1.621-1.131-0.953-0.946-1.247-2.099-1.002-3.411 0.049-0.265 0.134-0.522 0.213-0.821 0.268 0.068 0.5 0.112 0.722 0.188 1.508 0.51 2.379 1.562 2.599 3.17 0.089 0.62 0.086 1.25-0.008 1.869-0.022 0.138-0.056 0.274-0.094 0.458zM12.518 22.759c-0.329 1.248-0.182 2.344 0.673 3.272 0.463 0.495 1.014 0.896 1.625 1.18 0.091 0.038 0.184 0.070 0.279 0.097 0.019-0.046 0.034-0.094 0.045-0.143 0.097-0.777 0.022-1.567-0.219-2.311-0.389-1.15-1.237-1.775-2.403-2.095z"></path>
<path d="M10.279 11.551c-0.52 0.529 0.287 1.353 0.808 0.823s-0.287-1.354-0.808-0.823z"></path>
<path d="M10.302 9.497c-0.521 0.529 0.287 1.353 0.808 0.823s-0.287-1.353-0.808-0.823z"></path>
<path d="M8.283 9.497c-0.52 0.529 0.287 1.353 0.808 0.823s-0.287-1.353-0.808-0.823z"></path>
<path d="M10.279 7.442c-0.52 0.53 0.287 1.354 0.808 0.823s-0.287-1.353-0.808-0.823z"></path>
<path d="M12.321 9.497c-0.521 0.529 0.287 1.353 0.808 0.823s-0.287-1.353-0.808-0.823z"></path>
<path d="M17.316 15.22c-0.712-0.189-1.001 0.938-0.287 1.126s1.001-0.938 0.287-1.126z"></path>
<path d="M19.069 14.2c-0.713-0.189-1.002 0.937-0.288 1.126s1.001-0.936 0.288-1.126z"></path>
<path d="M18.047 12.429c-0.712-0.189-1.001 0.936-0.288 1.126s1.002-0.938 0.288-1.126z"></path>
<path d="M20.799 13.141c-0.713-0.189-1.002 0.936-0.288 1.126s1.001-0.937 0.288-1.126z"></path>
<path d="M23.406 10.222c-0.713-0.189-1.002 0.937-0.288 1.127s1.001-0.937 0.288-1.127z"></path>
<path d="M20.647 9.228c-0.713-0.189-1.002 0.937-0.288 1.126s1.001-0.936 0.288-1.126z"></path>
<path d="M24.381 7.825c-0.712-0.19-1.001 0.936-0.288 1.126s1.001-0.938 0.288-1.126z"></path>
<path d="M26.759 8.644c-0.712-0.19-1.001 0.936-0.287 1.126s1.001-0.937 0.287-1.126z"></path>
<path d="M20.090 15.972c-0.712-0.189-1.001 0.938-0.288 1.126s1.002-0.938 0.288-1.126z"></path>
<path d="M17.766 23.252c-0.201-0.72-1.301-0.404-1.097 0.317s1.299 0.405 1.097-0.317z"></path>
<path d="M19.521 24.276c-0.201-0.721-1.302-0.405-1.097 0.317s1.295 0.407 1.097-0.317z"></path>
<path d="M20.508 22.482c-0.201-0.721-1.302-0.405-1.097 0.317s1.293 0.405 1.097-0.317z"></path>
<path d="M23.811 22.974c-0.201-0.721-1.301-0.405-1.097 0.317s1.303 0.405 1.097-0.317z"></path>
<path d="M26.219 24.006c-0.201-0.721-1.302-0.405-1.097 0.317s1.297 0.405 1.097-0.317z"></path>
<path d="M28.3 22.108c-0.201-0.72-1.301-0.404-1.097 0.317s1.297 0.405 1.097-0.317z"></path>
<path d="M21.292 25.257c-0.201-0.72-1.302-0.404-1.097 0.317s1.3 0.405 1.097-0.317z"></path>
<path d="M18.534 26.069c-0.201-0.721-1.302-0.405-1.097 0.317s1.297 0.4 1.097-0.317z"></path>
<path d="M11.037 27.719c0.52-0.53-0.291-1.353-0.81-0.821s0.291 1.353 0.81 0.821z"></path>
<path d="M11.018 29.773c0.52-0.531-0.29-1.353-0.81-0.821s0.291 1.353 0.81 0.821z"></path>
<path d="M13.038 29.769c0.52-0.531-0.291-1.353-0.81-0.821s0.291 1.353 0.81 0.821z"></path>
<path d="M11.046 31.828c0.52-0.531-0.29-1.353-0.81-0.821s0.293 1.353 0.81 0.821z"></path>
<path d="M9.001 29.778c0.519-0.53-0.291-1.353-0.81-0.821s0.29 1.353 0.81 0.821z"></path>
<path d="M3.916 23.944c0.71 0.2 1.016-0.921 0.305-1.116s-1.014 0.916-0.305 1.116z"></path>
<path d="M2.148 24.938c0.71 0.2 1.016-0.922 0.305-1.122s-1.014 0.922-0.305 1.122z"></path>
<path d="M3.144 26.724c0.71 0.2 1.016-0.922 0.305-1.116s-1.016 0.916-0.305 1.116z"></path>
<path d="M0.404 25.97c0.71 0.2 1.016-0.921 0.305-1.122s-1.016 0.922-0.305 1.122z"></path>
<path d="M1.154 23.149c0.71 0.2 1.016-0.922 0.305-1.116s-1.020 0.916-0.305 1.116z"></path>
<path d="M3.541 16.005c0.2 0.721 1.301 0.407 1.097-0.315s-1.295-0.407-1.097 0.315z"></path>
<path d="M62.263 16.863c-1.197-0.119-2.401 0.142-3.446 0.748-0.045-1.228-0.359-2.358-1.086-3.401-0.405 0.494-0.631 1.042-0.812 1.614-0.198 0.578-0.289 1.189-0.268 1.801-1.097-0.612-2.214-0.883-3.46-0.763 0.227 0.562 0.555 1.076 0.968 1.516 0.388 0.461 0.858 0.843 1.385 1.126-1.051 0.657-1.833 1.501-2.339 2.605 0.616 0.276 2.091-0.020 3.423-0.68 0.035 1.228 0.355 2.353 1.054 3.357 0.548-0.446 1.010-1.81 1.133-3.359 1.025 0.593 2.203 0.857 3.378 0.757-0.103-0.727-1.136-1.927-2.277-2.66 1.028-0.625 1.846-1.553 2.346-2.661zM61.672 21.801c-0.035 0.026-0.050 0.046-0.068 0.048-0.042 0.007-0.085 0.010-0.128 0.008-0.657-0.035-1.304-0.18-1.915-0.429-0.407-0.153-0.766-0.413-1.043-0.752-0.147-0.2-0.262-0.423-0.341-0.66-0.077-0.223-0.021-0.31 0.2-0.361 0.198-0.048 0.401-0.065 0.604-0.050 0.409 0.047 0.798 0.201 1.132 0.446 0.589 0.427 1.093 0.965 1.484 1.585 0.029 0.053 0.054 0.108 0.076 0.164zM53.728 21.886c0.036-0.087 0.077-0.173 0.122-0.256 0.369-0.582 0.836-1.092 1.38-1.509 0.357-0.288 0.786-0.469 1.239-0.521 0.224-0.003 0.447 0.022 0.665 0.075 0.028 0.003 0.054 0.012 0.078 0.027s0.043 0.035 0.058 0.059c0.014 0.024 0.023 0.051 0.025 0.079s-0.002 0.056-0.012 0.082c-0.049 0.199-0.123 0.392-0.219 0.573-0.233 0.374-0.577 0.664-0.982 0.827-0.441 0.176-0.894 0.32-1.355 0.431-0.33 0.064-0.662 0.108-0.997 0.133zM57.676 24.164c-0.126-0.294-0.254-0.558-0.352-0.83-0.231-0.643-0.397-1.299-0.32-1.993 0.047-0.422 0.159-0.818 0.457-1.135 0.219-0.223 0.31-0.223 0.529 0.006 0.269 0.305 0.427 0.694 0.447 1.104 0.092 0.998-0.207 1.903-0.651 2.771-0.011 0.021-0.035 0.021-0.112 0.078h0.002zM53.766 17.162c0.319 0.035 0.599 0.049 0.877 0.098 0.651 0.112 1.288 0.286 1.838 0.686 0.294 0.213 0.559 0.459 0.704 0.8 0.219 0.507 0.151 0.644-0.404 0.696-0.458 0.045-0.877-0.112-1.262-0.346-0.718-0.439-1.261-1.059-1.706-1.772-0.022-0.052-0.039-0.107-0.049-0.163h0.002zM61.643 17.162c0.012 0.029 0.024 0.058 0.037 0.087-0.060 0.114-0.128 0.223-0.205 0.326-0.336 0.386-0.666 0.781-1.025 1.139-0.294 0.296-0.659 0.509-1.058 0.617-0.247 0.077-0.505 0.11-0.762 0.097-0.499-0.046-0.572-0.167-0.384-0.633 0.075-0.195 0.193-0.369 0.343-0.511 0.256-0.233 0.537-0.437 0.837-0.608 0.439-0.243 0.93-0.349 1.426-0.429 0.257-0.037 0.524-0.052 0.79-0.080l0.002-0.006zM57.711 14.901c0.027 0.011 0.056 0.014 0.064 0.029 0.472 0.906 0.781 1.854 0.648 2.902-0.034 0.364-0.181 0.707-0.421 0.979-0.229 0.247-0.329 0.249-0.554 0-0.271-0.317-0.426-0.72-0.439-1.139-0.079-0.973 0.219-1.859 0.645-2.71 0.005-0.020 0.032-0.037 0.055-0.055l0.002-0.006zM57.514 19.531c0.099-0.075 0.152-0.146 0.201-0.143s0.11 0.075 0.136 0.13c0.009 0.019-0.068 0.112-0.11 0.112s-0.115-0.041-0.227-0.098z"></path>
<path d="M62.475 11.135c-0.809 0.244-1.557 0.663-2.193 1.228-0.616 0.537-1.054 1.184-1.227 2-0.17 0.796-0.073 1.57 0.188 2.329 0.014 0.028 0.032 0.054 0.054 0.076 0.773-0.075 1.502-0.399 2.081-0.926s0.976-1.229 1.135-2.002c0.178-0.827 0.183-1.684 0.014-2.513-0.014-0.054-0.027-0.106-0.050-0.191zM59.613 16.259c-0.034-0.036-0.057-0.049-0.061-0.068-0.319-1.196-0.151-2.286 0.71-3.209 0.457-0.483 1-0.874 1.6-1.152 0.091-0.043 0.19-0.071 0.308-0.112 0.11 0.955 0.068 1.848-0.286 2.698-0.43 1.022-1.248 1.573-2.27 1.843z"></path>
<path d="M52.962 11.134c-0.169 0.661-0.217 1.347-0.14 2.026 0.029 0.284 0.078 0.565 0.147 0.842 0.289 1.179 1.007 1.993 2.099 2.462 0.334 0.144 0.692 0.233 1.055 0.353 0.042-0.071 0.079-0.146 0.11-0.223 0.209-0.614 0.28-1.267 0.208-1.913-0.085-0.748-0.414-1.445-0.933-1.981-0.699-0.74-1.577-1.28-2.545-1.565zM53.28 11.685c0.928 0.421 1.711 0.933 2.256 1.748 0.58 0.869 0.615 1.82 0.348 2.799-0.041 0.009-0.064 0.022-0.081 0.017-1.23-0.335-2.084-1.068-2.418-2.353-0.047-0.181-0.084-0.364-0.11-0.549-0.079-0.551-0.078-1.111 0.005-1.662z"></path>
<path d="M60.838 19.522c0.694 0.814 1.492 1.377 2.53 1.527 0.569 0.070 1.147 0.002 1.685-0.199 0.799-0.268 1.531-0.71 2.145-1.295 0-0.035 0-0.064-0.013-0.075-0.808-0.802-1.844-1.324-2.961-1.492-0.799-0.119-1.542 0.077-2.228 0.501-0.442 0.273-0.834 0.622-1.158 1.032zM66.572 19.507c-0.4 0.375-1.010 0.704-1.664 0.932-1.246 0.433-2.332 0.146-3.29-0.734-0.055-0.056-0.107-0.114-0.155-0.176 0.006-0.019 0.013-0.038 0.021-0.057 0.012-0.018 0.025-0.036 0.041-0.051 0.971-0.944 2.084-1.277 3.385-0.826 0.602 0.201 1.165 0.51 1.66 0.913h0.002z"></path>
<path d="M48.213 19.511c0.306 0.322 0.657 0.596 1.041 0.815 0.475 0.287 0.988 0.502 1.523 0.64 0.434 0.118 0.887 0.146 1.332 0.082s0.873-0.217 1.259-0.451c0.478-0.278 0.897-0.649 1.235-1.091-0.671-0.795-1.47-1.366-2.522-1.518-0.67-0.097-1.309 0.038-1.931 0.282-0.596 0.231-1.152 0.56-1.645 0.972-0.098 0.083-0.187 0.177-0.291 0.269zM48.839 19.531c0.504-0.413 1.077-0.73 1.692-0.935 1.245-0.435 2.332-0.147 3.29 0.733 0.061 0.057 0.11 0.125 0.178 0.2-0.5 0.52-1.059 0.899-1.748 1.038-1.291 0.261-2.351-0.298-3.412-1.036z"></path>
<path d="M59.281 22.267c-0.041 0.089-0.078 0.18-0.11 0.272-0.468 1.642-0.16 3.060 1.163 4.189 0.538 0.46 1.151 0.822 1.811 1.069 0.1 0.038 0.204 0.059 0.347 0.099 0.048-0.29 0.11-0.558 0.133-0.823 0.067-0.702 0.011-1.41-0.167-2.092-0.379-1.422-1.339-2.232-2.688-2.628-0.11-0.034-0.231-0.056-0.348-0.079-0.047-0.005-0.093-0.008-0.14-0.008zM62.176 27.317c-0.079-0.020-0.156-0.044-0.233-0.073-0.678-0.295-1.285-0.738-1.777-1.297-0.8-0.924-0.92-1.992-0.606-3.144 0.039-0.008 0.078-0.011 0.117-0.008 0.915 0.252 1.665 0.74 2.107 1.618 0.453 0.902 0.493 1.872 0.392 2.903z"></path>
<path d="M52.958 27.917c0.293-0.112 0.557-0.205 0.808-0.321 0.6-0.278 1.147-0.661 1.617-1.131 0.953-0.946 1.247-2.099 1.003-3.411-0.049-0.265-0.135-0.522-0.213-0.821-0.269 0.068-0.501 0.112-0.723 0.188-1.507 0.51-2.379 1.562-2.598 3.17-0.090 0.618-0.087 1.247 0.008 1.865 0.025 0.143 0.059 0.279 0.098 0.462zM55.874 22.759c0.329 1.248 0.183 2.344-0.673 3.272-0.463 0.496-1.014 0.896-1.625 1.18-0.091 0.038-0.184 0.070-0.279 0.097-0.019-0.046-0.034-0.094-0.045-0.143-0.097-0.777-0.022-1.567 0.219-2.311 0.389-1.15 1.238-1.775 2.403-2.095z"></path>
<path d="M58.113 11.551c0.521 0.529-0.287 1.353-0.808 0.823s0.287-1.354 0.808-0.823z"></path>
<path d="M58.090 9.497c0.521 0.529-0.287 1.353-0.808 0.823s0.287-1.353 0.808-0.823z"></path>
<path d="M60.109 9.497c0.521 0.529-0.287 1.353-0.808 0.823s0.287-1.353 0.808-0.823z"></path>
<path d="M58.113 7.442c0.521 0.53-0.287 1.354-0.808 0.823s0.287-1.353 0.808-0.823z"></path>
<path d="M56.072 9.497c0.52 0.529-0.288 1.353-0.809 0.823s0.287-1.353 0.809-0.823z"></path>
<path d="M51.076 15.22c0.712-0.189 1.001 0.938 0.288 1.126s-1.002-0.938-0.288-1.126z"></path>
<path d="M49.324 14.2c0.712-0.189 1.001 0.937 0.287 1.126s-1.001-0.936-0.287-1.126z"></path>
<path d="M50.345 12.429c0.712-0.189 1.001 0.936 0.288 1.126s-1.001-0.938-0.288-1.126z"></path>
<path d="M47.597 13.141c0.713-0.189 1.002 0.936 0.288 1.126s-1.005-0.937-0.288-1.126z"></path>
<path d="M44.988 10.222c0.712-0.189 1.001 0.937 0.287 1.127s-1.001-0.937-0.287-1.127z"></path>
<path d="M47.746 9.228c0.712-0.189 1.001 0.937 0.287 1.126s-1.001-0.936-0.287-1.126z"></path>
<path d="M44.011 7.825c0.713-0.19 1.002 0.936 0.288 1.126s-1.001-0.938-0.288-1.126z"></path>
<path d="M41.633 8.644c0.712-0.19 1.001 0.936 0.288 1.126s-1.002-0.937-0.288-1.126z"></path>
<path d="M48.302 15.972c0.712-0.189 1.001 0.938 0.288 1.126s-1.001-0.938-0.288-1.126z"></path>
<path d="M50.625 23.252c0.201-0.72 1.301-0.404 1.097 0.317s-1.297 0.405-1.097-0.317z"></path>
<path d="M48.873 24.276c0.201-0.721 1.302-0.405 1.097 0.317s-1.297 0.407-1.097-0.317z"></path>
<path d="M47.888 22.482c0.201-0.721 1.302-0.405 1.097 0.317s-1.297 0.405-1.097-0.317z"></path>
<path d="M44.581 22.974c0.201-0.721 1.302-0.405 1.097 0.317s-1.297 0.405-1.097-0.317z"></path>
<path d="M42.173 24.006c0.201-0.721 1.302-0.405 1.097 0.317s-1.297 0.405-1.097-0.317z"></path>
<path d="M40.092 22.108c0.201-0.72 1.302-0.404 1.097 0.317s-1.297 0.405-1.097-0.317z"></path>
<path d="M47.1 25.257c0.201-0.72 1.302-0.404 1.097 0.317s-1.297 0.405-1.097-0.317z"></path>
<path d="M49.858 26.069c0.201-0.721 1.302-0.405 1.097 0.317s-1.297 0.4-1.097-0.317z"></path>
<path d="M57.357 27.719c-0.519-0.53 0.291-1.353 0.81-0.821s-0.293 1.353-0.81 0.821z"></path>
<path d="M57.374 29.773c-0.52-0.531 0.291-1.353 0.81-0.821s-0.291 1.353-0.81 0.821z"></path>
<path d="M55.355 29.769c-0.519-0.531 0.291-1.353 0.81-0.821s-0.291 1.353-0.81 0.821z"></path>
<path d="M57.346 31.828c-0.52-0.531 0.291-1.353 0.81-0.821s-0.291 1.353-0.81 0.821z"></path>
<path d="M59.393 29.778c-0.52-0.53 0.29-1.353 0.81-0.821s-0.291 1.353-0.81 0.821z"></path>
<path d="M64.476 23.944c-0.709 0.2-1.015-0.921-0.304-1.116s1.015 0.916 0.304 1.116z"></path>
<path d="M66.241 24.938c-0.71 0.2-1.016-0.922-0.305-1.122s1.019 0.922 0.305 1.122z"></path>
<path d="M65.254 26.724c-0.708 0.2-1.015-0.922-0.305-1.116s1.010 0.916 0.305 1.116z"></path>
<path d="M67.989 25.97c-0.71 0.2-1.016-0.921-0.305-1.122s1.015 0.922 0.305 1.122z"></path>
<path d="M67.238 23.149c-0.708 0.2-1.015-0.922-0.305-1.116s1.016 0.916 0.305 1.116z"></path>
<path d="M64.851 16.005c-0.198 0.721-1.301 0.407-1.097-0.315s1.296-0.407 1.097 0.315z"></path>
</symbol>
<symbol id="icon-close" viewBox="0 0 32 32">
<path d="M26.667 7.303l-1.97-1.97-7.808 7.808-7.808-7.808-1.97 1.97 7.808 7.808-7.808 7.808 1.97 1.97 7.808-7.808 7.808 7.808 1.97-1.97-7.808-7.808 7.808-7.808z"></path>
</symbol>
<symbol id="icon-Twitter" viewBox="0 0 38 32">
<path d="M37.647 4.141c-1.386 0.624-2.874 1.043-4.436 1.233 1.595-0.968 2.819-2.502 3.395-4.33-1.491 0.897-3.145 1.548-4.905 1.9-1.409-1.522-3.416-2.472-5.637-2.472-4.266 0-7.723 3.505-7.723 7.827 0 0.613 0.070 1.212 0.2 1.783-6.419-0.326-12.109-3.442-15.92-8.179-0.663 1.156-1.044 2.5-1.044 3.937 0 2.715 1.363 5.111 3.434 6.514-1.266-0.041-2.457-0.393-3.498-0.979 0 0.034 0 0.065 0 0.098 0 3.793 2.661 6.957 6.196 7.674-0.647 0.179-1.331 0.274-2.036 0.274-0.497 0-0.982-0.050-1.452-0.139 0.983 3.109 3.836 5.373 7.215 5.437-2.642 2.1-5.973 3.351-9.592 3.351-0.623 0-1.238-0.037-1.843-0.11 3.418 2.22 7.477 3.516 11.84 3.516 14.207 0 21.974-11.927 21.974-22.27 0-0.339-0.007-0.676-0.022-1.012 1.51-1.105 2.821-2.483 3.856-4.051z"></path>
</symbol>
<symbol id="icon-location" viewBox="0 0 28 32">
<path d="M14 2.477c3.022 0 5.921 1.142 8.058 3.175s3.338 4.79 3.338 7.664c0 4.199-2.869 8.258-5.992 11.393-1.535 1.541-3.074 2.802-4.231 3.678-0.462 0.35-0.861 0.637-1.173 0.855-0.312-0.218-0.711-0.505-1.173-0.855-1.157-0.876-2.696-2.137-4.231-3.678-3.123-3.135-5.992-7.194-5.992-11.393 0-2.875 1.201-5.631 3.338-7.664s5.035-3.175 8.058-3.175zM14 30.762c0.722 1.031 0.723 1.030 0.723 1.030l0.004-0.003 0.009-0.006 0.032-0.021c0.027-0.018 0.066-0.043 0.116-0.076 0.1-0.066 0.243-0.162 0.424-0.286 0.362-0.248 0.874-0.611 1.487-1.076 1.224-0.927 2.859-2.266 4.499-3.912 3.226-3.239 6.706-7.902 6.706-13.097 0-3.532-1.475-6.919-4.101-9.416s-6.186-3.9-9.899-3.9-7.274 1.403-9.899 3.9c-2.626 2.497-4.101 5.884-4.101 9.416 0 5.195 3.479 9.858 6.706 13.097 1.64 1.646 3.275 2.985 4.499 3.912 0.613 0.464 1.125 0.827 1.487 1.076 0.181 0.124 0.324 0.22 0.424 0.286 0.050 0.033 0.089 0.058 0.116 0.076l0.032 0.021 0.012 0.008c0 0 0.002 0.001 0.724-1.029zM14 30.762l-0.724 1.029c0.437 0.277 1.010 0.278 1.447 0.001l-0.723-1.030zM14 10.529c1.618 0 2.93 1.248 2.93 2.787s-1.312 2.787-2.93 2.787c-1.618 0-2.93-1.248-2.93-2.787s1.312-2.787 2.93-2.787zM19.535 13.316c0-2.908-2.478-5.265-5.535-5.265s-5.535 2.357-5.535 5.265c0 2.908 2.478 5.265 5.535 5.265s5.535-2.357 5.535-5.265z"></path>
</symbol>
<symbol id="icon-mobile-menu" viewBox="0 0 57 32">
<path d="M2.526 0h52.211c1.395 0 2.526 1.131 2.526 2.526s-1.131 2.526-2.526 2.526h-52.211c-1.395 0-2.526-1.131-2.526-2.526s1.131-2.526 2.526-2.526z"></path>
<path d="M2.526 13.474h52.211c1.395 0 2.526 1.131 2.526 2.526s-1.131 2.526-2.526 2.526h-52.211c-1.395 0-2.526-1.131-2.526-2.526s1.131-2.526 2.526-2.526z"></path>
<path d="M2.526 26.947h52.211c1.395 0 2.526 1.131 2.526 2.526s-1.131 2.526-2.526 2.526h-52.211c-1.395 0-2.526-1.131-2.526-2.526s1.131-2.526 2.526-2.526z"></path>
</symbol>
<symbol id="icon-phone" viewBox="0 0 32 32">
<path d="M27.506 21.284c-1.659 0-3.457-0.276-4.978-0.829h-0.415c-0.415 0-0.691 0.138-0.968 0.415l-3.042 3.042c-3.872-2.074-7.19-5.254-9.126-9.126l3.042-3.042c0.415-0.415 0.553-0.968 0.277-1.383-0.415-1.521-0.691-3.319-0.691-4.978 0-0.691-0.691-1.383-1.383-1.383h-4.84c-0.691 0-1.383 0.691-1.383 1.383 0 12.998 10.509 23.506 23.506 23.506 0.691 0 1.383-0.691 1.383-1.383v-4.839c0-0.691-0.691-1.383-1.383-1.383zM6.765 6.765h2.074c0.138 1.244 0.415 2.489 0.691 3.595l-1.659 1.659c-0.553-1.659-0.968-3.457-1.106-5.254zM26.123 26.123c-1.797-0.138-3.595-0.553-5.254-1.106l1.659-1.659c1.106 0.276 2.351 0.553 3.595 0.553v2.212zM20.593 16.444h2.765c0-1.834-0.728-3.592-2.025-4.889s-3.055-2.025-4.889-2.025v2.765c1.1 0 2.155 0.437 2.933 1.215s1.215 1.833 1.215 2.933zM26.123 16.444h2.765c0-6.914-5.572-12.444-12.444-12.444v2.765c5.337 0 9.679 4.328 9.679 9.679z"></path>
</symbol>
<symbol id="icon-rhombus" viewBox="0 0 32 32">
<path d="M0 15.328l15.328-15.328 15.328 15.328-15.328 15.328-15.328-15.328z"></path>
</symbol>
</defs>
</svg>
