<svg width="21" height="17" viewBox="0 0 21 17" fill="none" xmlns="http://www.w3.org/2000/svg">
<path d="M1.97617 7.57691C1.97617 7.57691 10.8217 4.00974 13.8895 2.75364C15.0655 2.25125 19.0536 0.643445 19.0536 0.643445C19.0536 0.643445 20.8943 -0.0599075 20.7409 1.64831C20.6898 2.35173 20.2807 4.81357 19.8717 7.47643C19.2581 11.2446 18.5934 15.3645 18.5934 15.3645C18.5934 15.3645 18.4912 16.5201 17.622 16.7211C16.7528 16.922 15.3211 16.0177 15.0655 15.8167C14.8609 15.666 11.2307 13.405 9.90133 12.2997C9.5434 11.9983 9.13439 11.3954 9.95242 10.692C11.7931 9.03396 13.9917 6.97404 15.3211 5.66774C15.9347 5.0648 16.5482 3.65802 13.9917 5.36624C10.3615 7.82815 6.7824 10.1393 6.7824 10.1393C6.7824 10.1393 5.96429 10.6417 4.43041 10.1895C2.89645 9.73739 1.1069 9.13444 1.1069 9.13444C1.1069 9.13444 -0.120153 8.38082 1.97617 7.57691Z" fill="#3D2C23"/>
</svg>
