<svg width="32" height="32" viewBox="0 0 32 32" fill="none" xmlns="http://www.w3.org/2000/svg">
<circle cx="16" cy="16" r="15" stroke="#3D2C23" stroke-width="0.8"/>
<path d="M5.97617 15.5769C5.97617 15.5769 14.8217 12.0097 17.8895 10.7536C19.0655 10.2512 23.0536 8.64345 23.0536 8.64345C23.0536 8.64345 24.8943 7.94009 24.7409 9.64831C24.6898 10.3517 24.2807 12.8136 23.8717 15.4764C23.2581 19.2446 22.5934 23.3645 22.5934 23.3645C22.5934 23.3645 22.4912 24.5201 21.622 24.7211C20.7528 24.922 19.3211 24.0177 19.0655 23.8167C18.8609 23.666 15.2307 21.405 13.9013 20.2997C13.5434 19.9983 13.1344 19.3954 13.9524 18.692C15.7931 17.034 17.9917 14.974 19.3211 13.6677C19.9347 13.0648 20.5482 11.658 17.9917 13.3662C14.3615 15.8281 10.7824 18.1393 10.7824 18.1393C10.7824 18.1393 9.96429 18.6417 8.43041 18.1895C6.89645 17.7374 5.1069 17.1344 5.1069 17.1344C5.1069 17.1344 3.87985 16.3808 5.97617 15.5769Z" fill="#3D2C23"/>
</svg>
