<svg width="20" height="17" viewBox="0 0 20 17" fill="none" xmlns="http://www.w3.org/2000/svg">
<path d="M20 2.20008C19.2639 2.53138 18.4731 2.75432 17.6432 2.85488C18.4908 2.34039 19.1408 1.52579 19.4469 0.554503C18.6547 1.03079 17.7762 1.3769 16.8409 1.56399C16.0925 0.755621 15.0263 0.250488 13.8464 0.250488C11.5803 0.250488 9.74347 2.11277 9.74347 4.40848C9.74347 4.73432 9.78039 5.05236 9.84962 5.3556C6.43975 5.18254 3.41679 3.52683 1.39225 1.01053C1.03996 1.62479 0.83766 2.33884 0.83766 3.10199C0.83766 4.54411 1.56148 5.81708 2.66221 6.5623C1.98992 6.54048 1.35687 6.35339 0.803815 6.04236C0.803815 6.06029 0.803815 6.07666 0.803815 6.09459C0.803815 8.10966 2.21761 9.79032 4.09523 10.1715C3.75139 10.2666 3.38833 10.3173 3.01373 10.3173C2.74989 10.3173 2.49221 10.2908 2.24222 10.2432C2.76451 11.895 4.27984 13.0978 6.07515 13.1314C4.67136 14.2469 2.9022 14.9118 0.979193 14.9118C0.648437 14.9118 0.321526 14.8923 0 14.8533C1.81608 16.0328 3.97216 16.7211 6.28976 16.7211C13.8372 16.7211 17.9632 10.3851 17.9632 4.89022C17.9632 4.71015 17.9593 4.53086 17.9516 4.35235C18.7539 3.76537 19.45 3.03339 20 2.20008Z" fill="#3D2C23"/>
</svg>
