<svg width="32" height="32" viewBox="0 0 32 32" fill="none" xmlns="http://www.w3.org/2000/svg">
<circle cx="16" cy="16" r="15" stroke="#3D2C23" stroke-width="0.8"/>
<path d="M26 9.20008C25.2639 9.53138 24.4731 9.75432 23.6432 9.85488C24.4908 9.34039 25.1408 8.52579 25.4469 7.5545C24.6547 8.03079 23.7762 8.3769 22.8409 8.56399C22.0925 7.75562 21.0263 7.25049 19.8464 7.25049C17.5803 7.25049 15.7435 9.11277 15.7435 11.4085C15.7435 11.7343 15.7804 12.0524 15.8496 12.3556C12.4398 12.1825 9.41679 10.5268 7.39225 8.01053C7.03996 8.62479 6.83766 9.33884 6.83766 10.102C6.83766 11.5441 7.56148 12.8171 8.66221 13.5623C7.98992 13.5405 7.35687 13.3534 6.80382 13.0424C6.80382 13.0603 6.80382 13.0767 6.80382 13.0946C6.80382 15.1097 8.21761 16.7903 10.0952 17.1715C9.75139 17.2666 9.38833 17.3173 9.01373 17.3173C8.74989 17.3173 8.49221 17.2908 8.24222 17.2432C8.76451 18.895 10.2798 20.0978 12.0752 20.1314C10.6714 21.2469 8.9022 21.9118 6.97919 21.9118C6.64844 21.9118 6.32153 21.8923 6 21.8533C7.81608 23.0328 9.97216 23.7211 12.2898 23.7211C19.8372 23.7211 23.9632 17.3851 23.9632 11.8902C23.9632 11.7102 23.9593 11.5309 23.9516 11.3523C24.7539 10.7654 25.45 10.0334 26 9.20008Z" fill="#3D2C23"/>
</svg>
