<svg width="22" height="14" viewBox="0 0 22 14" fill="none" xmlns="http://www.w3.org/2000/svg">
<path fill-rule="evenodd" clip-rule="evenodd" d="M21.5124 1.60479C21.6601 1.1122 21.5124 0.750244 20.8094 0.750244H18.4846C17.8935 0.750244 17.621 1.06292 17.4732 1.40772C17.4732 1.40772 16.291 4.28935 14.6162 6.16115C14.0744 6.70298 13.828 6.87538 13.5325 6.87538C13.3847 6.87538 13.1708 6.70298 13.1708 6.21043V1.6048C13.1708 1.01369 12.9993 0.750244 12.5066 0.750244H8.85345C8.48406 0.750244 8.2619 1.02459 8.2619 1.2846C8.2619 1.84496 9.09925 1.97419 9.18556 3.55048V6.97394C9.18556 7.72452 9.05001 7.8606 8.75445 7.8606C7.96635 7.8606 6.04928 4.9661 4.91228 1.65403C4.68946 1.01029 4.46597 0.750244 3.87182 0.750244H1.54707C0.88285 0.750244 0.75 1.06292 0.75 1.40772C0.75 2.02347 1.53814 5.07749 4.41973 9.11666C6.34078 11.8751 9.0474 13.3704 11.5103 13.3704C12.988 13.3704 13.1709 13.0382 13.1709 12.4662V10.3814C13.1709 9.71717 13.3109 9.58461 13.7788 9.58461C14.1236 9.58461 14.7147 9.75701 16.094 11.087C17.6702 12.6632 17.9301 13.3704 18.8167 13.3704H21.1415C21.8057 13.3704 22.1378 13.0383 21.9462 12.3829C21.7365 11.7296 20.984 10.7819 19.9854 9.65849C19.4435 9.01814 18.6308 8.32855 18.3844 7.98368C18.0396 7.54041 18.1382 7.34333 18.3844 6.9493C18.3844 6.9493 21.2168 2.95937 21.5124 1.60479Z" fill="white"/>
</svg>
