<svg width="30" height="30" viewBox="0 0 30 30" fill="none" xmlns="http://www.w3.org/2000/svg">
<circle cx="15" cy="15" r="15" fill="#3D2C23"/>
<path fill-rule="evenodd" clip-rule="evenodd" d="M24.5124 9.60479C24.6601 9.1122 24.5124 8.75024 23.8094 8.75024H21.4846C20.8935 8.75024 20.621 9.06292 20.4732 9.40772C20.4732 9.40772 19.291 12.2893 17.6162 14.1612C17.0744 14.703 16.828 14.8754 16.5325 14.8754C16.3847 14.8754 16.1708 14.703 16.1708 14.2104V9.6048C16.1708 9.01369 15.9993 8.75024 15.5066 8.75024H11.8534C11.4841 8.75024 11.2619 9.02459 11.2619 9.2846C11.2619 9.84496 12.0992 9.97419 12.1856 11.5505V14.9739C12.1856 15.7245 12.05 15.8606 11.7545 15.8606C10.9663 15.8606 9.04928 12.9661 7.91228 9.65403C7.68946 9.01029 7.46597 8.75024 6.87183 8.75024H4.54707C3.88285 8.75024 3.75 9.06292 3.75 9.40772C3.75 10.0235 4.53814 13.0775 7.41973 17.1167C9.34078 19.8751 12.0474 21.3704 14.5103 21.3704C15.988 21.3704 16.1709 21.0382 16.1709 20.4662V18.3814C16.1709 17.7172 16.3109 17.5846 16.7788 17.5846C17.1236 17.5846 17.7147 17.757 19.094 19.087C20.6702 20.6632 20.9301 21.3704 21.8167 21.3704H24.1415C24.8057 21.3704 25.1378 21.0383 24.9462 20.3829C24.7365 19.7296 23.984 18.7819 22.9854 17.6585C22.4435 17.0181 21.6308 16.3286 21.3844 15.9837C21.0396 15.5404 21.1382 15.3433 21.3844 14.9493C21.3844 14.9493 24.2168 10.9594 24.5124 9.60479V9.60479Z" fill="white"/>
</svg>
